<?xml version="1.0" encoding="utf-8"?>
<!-- Generator: Adobe Illustrator 16.0.3, SVG Export Plug-In . SVG Version: 6.00 Build 0)  -->
<!DOCTYPE svg PUBLIC "-//W3C//DTD SVG 1.1//EN" "http://www.w3.org/Graphics/SVG/1.1/DTD/svg11.dtd">
<svg version="1.1" id="Ebene_1" xmlns="http://www.w3.org/2000/svg" xmlns:xlink="http://www.w3.org/1999/xlink" x="0px" y="0px"
	 width="326px" height="260.334px" viewBox="0 0 326 260.334" enable-background="new 0 0 326 260.334" xml:space="preserve">
<g>
	<polygon points="179.758,113.023 217.279,113.023 105.548,250.229 143.068,145.311 105.548,145.311 217.279,8.105 	"/>
	<path d="M136.879,41.105l-94.63,116.288V41.105H136.879 M206.279,8.105H9.249v242.124L206.279,8.105L206.279,8.105z"/>
	<path d="M116.548,250.232h42.53l25.17-30.9h96.49l0.01,30.9h32.97V8.102L116.548,250.232z M211.109,186.352l69.609-85.459
		l0.021,85.45L211.109,186.352z"/>
	<polygon points="301.719,8.102 271.018,45.842 271.008,45.842 260.409,58.882 223.249,104.552 205.749,104.552 243.229,58.892 
		221.989,58.922 205.749,104.552 191.789,104.552 208.098,58.932 212.789,45.812 226.279,8.102 240.079,8.102 226.649,45.822 
		253.949,45.832 284.918,8.102 	"/>
	<polygon points="99.079,154.352 21.059,250.232 51.232,250.232 85.082,209.012 70.367,250.232 95.898,250.232 130.188,154.352 	"/>
</g>
</svg>
