<?xml version="1.0" encoding="utf-8"?>
<!-- Generator: Adobe Illustrator 16.0.3, SVG Export Plug-In . SVG Version: 6.00 Build 0)  -->
<!DOCTYPE svg PUBLIC "-//W3C//DTD SVG 1.1//EN" "http://www.w3.org/Graphics/SVG/1.1/DTD/svg11.dtd">
<svg version="1.1" id="Ebene_1" xmlns="http://www.w3.org/2000/svg" xmlns:xlink="http://www.w3.org/1999/xlink" x="0px" y="0px"
	 width="340.16px" height="117.014px" viewBox="0 0 340.16 117.014" enable-background="new 0 0 340.16 117.014"
	 xml:space="preserve">
<g>
	<path fill-rule="evenodd" clip-rule="evenodd" d="M198.206,3.277c0.658,0.351,1.322,0.689,1.973,1.053
		c3.695,2.072,5.809,5.083,5.84,9.46c0.124,16.873,0.295,33.746,0.448,50.618c0.006,0.682,0.069,1.368,0.014,2.045
		c-0.533,6.503,2.153,10.985,8.269,13.403c0.874,0.346,1.62,1.014,2.214,2.055c-1.971-0.129-3.939-0.324-5.912-0.375
		c-5.707-0.146-11.418-0.384-17.123-0.289c-3.171,0.053-4.605-1.682-5.622-4.196c-0.465-1.15-0.8-2.354-1.388-4.113
		c-0.544,1.106-0.857,1.646-1.085,2.219c-2.29,5.775-6.853,7.549-13.024,5.029c-7.57-3.09-11.993-9.007-14.606-16.471
		c-0.69-1.974-1.055-4.061-1.713-6.664c-3.493,14.347-9.839,25.698-26.256,24.053c-13.323-1.335-18.642-11.525-21.367-23.64
		c-0.195,0.995-0.436,1.983-0.577,2.986c-0.722,5.153-3.189,9.476-6.477,13.356C92.148,85.212,75.594,83.869,67.1,70.863
		c-7.568-11.59-6.053-30.384,6.667-38.762c8.818-5.808,23.601-4.791,30.763,7.002c1.764,2.903,2.556,6.397,3.79,9.621
		c0.201,0.526,0.378,1.063,0.732,2.063c3.975-13.836,11.178-23.39,26.761-21.857c12.693,1.248,17.393,10.625,20.359,22.087
		c4.378-14.974,11.464-25.635,29.321-21.775c0-4.368,0.151-8.698-0.118-13.001c-0.059-0.94-1.513-1.935-2.51-2.644
		c-2.008-1.427-4.168-2.638-6.213-4.015c-0.734-0.495-1.32-1.211-1.688-2.383c0.826,0.22,1.671,0.389,2.477,0.668
		c3.721,1.288,7.179,0.722,10.487-1.32c1.857-1.146,3.782-2.184,5.676-3.271C195.138,3.277,196.672,3.277,198.206,3.277z
		 M91.438,53.908c-0.017,0-0.033,0-0.05,0c0-2.894,0.034-5.788-0.009-8.681c-0.047-3.203-1.927-5.407-4.709-5.622
		c-3.643-0.282-6.378,1.439-6.512,4.894c-0.261,6.794-0.19,13.614,0.072,20.41c0.087,2.264,1.703,4.128,4.059,4.773
		c2.409,0.659,4.416-0.242,5.651-2.379c0.696-1.202,1.343-2.603,1.433-3.953C91.581,60.215,91.438,57.057,91.438,53.908z
		 M138.436,54.181c-0.044,0-0.087-0.001-0.131-0.001c0-3.145,0.107-6.294-0.029-9.434c-0.144-3.306-2.177-5.128-5.426-5.161
		c-3.186-0.033-5.697,2.069-5.747,5.234c-0.102,6.458-0.14,12.926,0.095,19.378c0.15,4.144,3.377,6.223,7.266,5.116
		c2.02-0.574,3.912-3.208,3.958-5.697C138.48,60.472,138.436,57.326,138.436,54.181z M185.567,37.08
		c-5.405-0.325-10.547,3.417-10.708,7.922c-0.221,6.209-0.202,12.431-0.109,18.645c0.045,2.964,2.647,5.258,5.311,5.084
		c3.085-0.201,5.486-2.563,5.493-5.428c0.011-4.599,0.011-9.196,0.014-13.795C185.569,45.358,185.567,41.208,185.567,37.08z"/>
	<path fill-rule="evenodd" clip-rule="evenodd" d="M5.925,9.925C36.337,9.94,66.75,9.944,97.163,9.988
		c2.55,0.004,5.12,0.114,7.644,0.453c4.675,0.627,8.307,3.013,10.496,7.233c3.422,6.6-1.021,13.69-9.172,13.884
		c1.092-0.897,1.999-1.397,2.551-2.156c0.79-1.086,2.147-2.822,1.791-3.461c-0.768-1.379-2.334-2.828-3.825-3.175
		c-2.525-0.59-5.244-0.439-7.882-0.445c-20.021-0.051-40.042-0.034-60.062-0.127c-2.359-0.011-3.248,0.906-3.189,3.142
		c0.056,2.112,0.012,4.226,0.012,6.798c4.81,0,9.387,0.185,13.943-0.052c4.501-0.233,8.98-0.893,13.218-1.339
		c-1.519,2.049-3.408,4.32-4.953,6.805c-0.71,1.142-1.001,2.697-1.039,4.077c-0.125,4.567-0.047,9.14-0.047,13.711
		c-0.207,0.062-0.414,0.124-0.621,0.187c-0.376-0.855-0.724-1.723-1.132-2.563c-1.507-3.108-3.684-5.285-7.418-5.3
		c-3.151-0.013-6.302-0.064-9.453-0.086c-1.964-0.015-2.952,0.852-2.937,2.942c0.05,6.73-0.208,13.471,0.091,20.188
		c0.172,3.879,2.625,6.704,6.053,8.537c1.163,0.622,2.41,1.084,3.498,2.118c-12.5,0-25.001,0-38.32,0
		c1.354-0.732,2.125-1.102,2.849-1.548c3.604-2.228,5.932-5.132,5.907-9.692c-0.083-15.761-0.188-31.524,0.058-47.281
		c0.082-5.235-2.052-8.567-6.409-10.888c-0.959-0.511-1.926-1.008-2.89-1.511C5.925,10.266,5.925,10.096,5.925,9.925z"/>
	<path fill-rule="evenodd" clip-rule="evenodd" d="M335.258,15.55c-3.153,2.433-5.222,5.356-5.374,9.593
		c-0.154,4.271-0.48,8.495,1.058,12.605c0.167,0.446,0.104,0.978-0.337,1.777c-0.462-0.556-0.938-1.101-1.382-1.67
		c-4.554-5.83-10.061-9.877-17.895-9.504c-0.919,0.043-1.896,0.189-2.727,0.557c-3.02,1.333-3.523,4.233-1.082,6.378
		c1.072,0.942,2.366,1.641,3.586,2.406c5.332,3.342,10.793,6.495,15.98,10.046c6.139,4.203,7.881,10.493,6.137,17.688
		c-3.26,13.453-17.165,18.853-29.435,15.424c-5.028-1.405-9.599-1.595-14.047,1.625c-1.097,0.794-2.813,0.731-4.347,0.722
		c7.246-5.44,5.832-13.04,5.638-20.256c-0.05-1.85-0.46-3.689-0.704-5.534c0.212-0.05,0.423-0.101,0.635-0.151
		c0.279,0.456,0.593,0.895,0.834,1.37c3.151,6.188,8.288,10.047,14.702,12.271c3.226,1.117,8.402-1.157,9.896-4.196
		c0.884-1.799,0.977-3.797-0.614-5.195c-2.084-1.831-4.334-3.521-6.692-4.982c-4.321-2.677-8.885-4.971-13.146-7.735
		c-6.584-4.272-7.178-10.604-5.537-17.589c0.638-2.717,2.199-4.716,4.301-6.436c6.85-5.605,14.613-6.698,23.087-5.05
		c2.55,0.496,5.288,0.606,7.846,0.242c1.574-0.224,3.205-1.452,4.389-2.646c1.515-1.528,3.029-2.704,5.23-2.782
		C335.258,14.868,335.258,15.209,335.258,15.55z"/>
	<path fill-rule="evenodd" clip-rule="evenodd" d="M169.569,114.76c-1.01-3.076-3.116-5.321-5.981-6.514
		c-2.259-0.94-2.813-2.311-2.611-4.477c0.125-1.328,0.023-2.678,0.023-4.34c6.138,0,11.919,0,18.048,0
		c0,2.237,0.228,4.212-0.094,6.092c-0.164,0.957-1.149,2.031-2.052,2.555c-2.797,1.621-5.093,3.616-6.31,6.684
		C170.25,114.76,169.91,114.76,169.569,114.76z"/>
	<path fill-rule="evenodd" clip-rule="evenodd" d="M269.403,15.315c-0.823,1.616-1.678,3.218-2.462,4.852
		c-2.242,4.662-2.561,9.236,0.32,13.847c0.9,1.441,1.218,3.247,1.802,4.886c-0.217,0.109-0.433,0.218-0.649,0.327
		c-0.366-0.465-0.752-0.916-1.095-1.397c-6.698-9.405-18.303-11.752-27.933-5.645c-2.699,1.711-4.979,3.904-5.089,7.232
		c-0.228,6.877-0.606,13.803-0.041,20.636c0.593,7.149,6.503,10.221,12.438,13.71c0.238-1.497,0.529-2.521,0.544-3.547
		c0.06-4.26-0.112-8.527,0.101-12.776c0.116-2.313-0.646-3.893-2.43-5.203c-1.473-1.081-2.862-2.275-4.09-4.037
		c12.877,0,25.753,0,38.629,0c0.05,0.215,0.101,0.43,0.151,0.645c-1.492,0.677-2.981,1.361-4.478,2.029
		c-2.957,1.322-4.402,3.497-4.296,6.833c0.133,4.17,0.244,8.362-0.029,12.52c-0.32,4.87,2.206,7.605,6.192,9.531
		c1.407,0.681,2.813,1.364,4.408,2.137c-4.603,3.069-11.508,0.957-17.051-4.913c-0.929,1.039-1.815,2.115-2.788,3.105
		c-4.238,4.31-9.767,4.321-15.07,3.81c-7.593-0.733-14.956-2.754-20.816-8.054c-9.386-8.487-13-19.052-10.643-31.539
		c2.058-10.895,8.621-18.372,18.36-23.045c5.625-2.699,11.723-3.479,17.911-1.916c5.688,1.438,10.959,1.228,15.391-3.267
		c0.578-0.586,1.512-0.82,2.281-1.217C269.116,15.011,269.26,15.163,269.403,15.315z"/>
	<path fill-rule="evenodd" clip-rule="evenodd" d="M182.225,106.626c-0.303-0.381-0.388-0.439-0.399-0.51
		c-1.019-6.222-0.638-6.778,5.501-6.778c46.183-0.001,92.365,0.025,138.548,0.104c1.364,0.003,2.997,0.334,4.008,1.138
		c0.851,0.677,1.466,2.333,1.309,3.431c-0.226,1.571-1.266,3.006-3.334,2.803c-0.253-0.024-0.511-0.001-0.767-0.002
		c-47.462-0.062-94.924-0.123-142.387-0.185C183.858,106.625,183.013,106.626,182.225,106.626z"/>
	<path fill-rule="evenodd" clip-rule="evenodd" d="M158.308,106.668c-8.235,0-15.979-0.009-23.723,0.001
		c-39.097,0.048-78.195,0.099-117.293,0.15c-2.698,0.004-4.287-1.292-4.32-3.538c-0.037-2.534,1.334-3.848,4.254-3.855
		c34.412-0.083,68.824-0.165,103.235-0.201c11.499-0.013,22.998,0.098,34.496,0.165c3.349,0.021,3.349,0.041,3.35,3.376
		C158.308,103.938,158.308,105.111,158.308,106.668z"/>
	<path fill-rule="evenodd" clip-rule="evenodd" d="M272.995,29.304c4.594-2.284,9.046-4.37,10.813-9.917
		c-1.417,0.544-2.45,1.166-3.549,1.32c-3.397,0.478-6.389-1.296-7.349-4.166c-1.001-2.99,0.533-6.439,3.638-8.178
		c4.913-2.751,11.696-0.645,14.524,4.51c2.449,4.463,0.478,10.266-4.402,13.049c-3.501,1.997-7.098,3.669-11.246,3.672
		c-0.506,0-1.016,0.078-1.516,0.035C273.597,29.604,273.299,29.418,272.995,29.304z"/>
	<path fill-rule="evenodd" clip-rule="evenodd" d="M328.072,92.568c-1.274,0.158-2.547,0.447-3.822,0.453
		c-18.833,0.098-37.667,0.204-56.501,0.21c-13.464,0.003-26.929-0.128-40.393-0.243c-1.063-0.01-2.123-0.367-3.185-0.563
		c-0.001-0.338-0.002-0.676-0.003-1.014c0.979-0.215,1.958-0.617,2.938-0.618c32.641-0.034,65.281-0.036,97.922,0
		c1.044,0.001,2.087,0.441,3.13,0.677C328.13,91.836,328.101,92.202,328.072,92.568z"/>
	<path fill-rule="evenodd" clip-rule="evenodd" d="M112.74,92.172c-0.91,0.192-1.82,0.554-2.729,0.554
		c-32.863,0.026-65.727,0.02-98.59,0.017c-0.255,0-0.563,0.076-0.756-0.037c-0.581-0.341-1.116-0.758-1.669-1.145
		c0.533-0.3,1.05-0.827,1.6-0.862c2.887-0.184,5.783-0.33,8.675-0.332c27.925-0.023,55.851-0.022,83.776-0.005
		c2.467,0.002,4.936,0.133,7.4,0.28c0.773,0.046,1.533,0.343,2.297,0.526C112.743,91.502,112.741,91.837,112.74,92.172z"/>
	<path fill-rule="evenodd" clip-rule="evenodd" d="M167.464,90.213c8.087,0,16.175-0.001,24.263,0.002
		c0.596,0,1.25-0.123,1.771,0.081c0.54,0.212,0.952,0.752,1.419,1.149c-0.451,0.3-0.877,0.798-1.36,0.864
		c-1.43,0.196-2.882,0.301-4.326,0.304c-14.473,0.025-28.945,0.03-43.418,0.017c-1.358-0.001-2.732-0.073-4.068-0.297
		c-0.636-0.105-1.201-0.644-1.798-0.985c0.66-0.372,1.288-0.972,1.984-1.068c1.339-0.186,2.717-0.101,4.08-0.102
		c7.152-0.006,14.303-0.002,21.454-0.002C167.464,90.188,167.464,90.2,167.464,90.213z"/>
	<path fill-rule="evenodd" clip-rule="evenodd" d="M152.65,20.161c-6.386,0-12.771,0.005-19.157-0.007
		c-0.676-0.001-1.395,0.02-2.012-0.199c-0.361-0.128-0.686-0.684-0.777-1.102c-0.041-0.189,0.49-0.667,0.823-0.741
		c0.824-0.186,1.685-0.294,2.53-0.296c12.175-0.035,24.351-0.087,36.525-0.005c1.345,0.009,2.685,0.817,4.028,1.255
		c-1.36,0.368-2.714,1.027-4.08,1.053c-5.958,0.117-11.92,0.051-17.88,0.051C152.65,20.167,152.65,20.164,152.65,20.161z"/>
	<path fill-rule="evenodd" clip-rule="evenodd" d="M253.844,9.905c-1.434,0-2.876,0.082-4.298-0.049
		c-0.434-0.04-0.814-0.663-1.219-1.019c0.391-0.364,0.771-1.031,1.175-1.045c2.937-0.103,5.879-0.118,8.816-0.04
		c0.421,0.011,0.825,0.673,1.237,1.034c-0.47,0.377-0.911,1.028-1.414,1.081c-1.419,0.149-2.863,0.052-4.298,0.052
		C253.844,9.913,253.844,9.909,253.844,9.905z"/>
	<path fill-rule="evenodd" clip-rule="evenodd" d="M335.5,9.158c0,0.688-5.175,1.208-7.378,1.068
		c-0.259-0.017-0.607-0.755-0.661-1.19c-0.038-0.322,0.248-0.823,0.541-1.021C329.013,7.329,335.5,8.471,335.5,9.158z"/>
	<path fill-rule="evenodd" clip-rule="evenodd" d="M308.12,10.604c-0.943-0.773-1.605-1.316-2.268-1.859
		c0.72-0.431,2.189-1.566,2.189-1.566s1.585,1.13,2.393,1.558C309.765,9.277,309.096,9.817,308.12,10.604z"/>
	<path fill-rule="evenodd" clip-rule="evenodd" d="M298.85,10.606c-1.007-0.778-1.698-1.312-2.39-1.846
		c0.719-0.428,2.228-1.498,2.228-1.498s1.54,1.032,2.345,1.44C300.395,9.259,299.757,9.814,298.85,10.606z"/>
	<path fill-rule="evenodd" clip-rule="evenodd" d="M317.729,10.542c-0.941-0.669-1.597-1.136-2.252-1.602
		c0.735-0.48,2.168-1.74,2.168-1.74s1.603,1.159,2.386,1.588C319.343,9.312,318.655,9.835,317.729,10.542z"/>
</g>
<g display="none">
	<rect x="-94.84" y="-103.717" display="inline" fill-rule="evenodd" clip-rule="evenodd" width="529.84" height="325.447"/>
	<g display="inline">
		<path fill-rule="evenodd" clip-rule="evenodd" fill="#FFFFFF" d="M5.925,9.925C36.337,9.94,66.75,9.944,97.163,9.988
			c2.55,0.004,5.12,0.114,7.644,0.453c4.675,0.627,8.307,3.013,10.496,7.233c3.422,6.6-1.021,13.69-9.172,13.884
			c1.092-0.897,1.999-1.397,2.551-2.156c0.79-1.086,2.147-2.822,1.791-3.461c-0.768-1.379-2.334-2.828-3.825-3.175
			c-2.525-0.59-5.244-0.439-7.882-0.445c-20.021-0.051-40.042-0.034-60.062-0.127c-2.359-0.011-3.248,0.906-3.189,3.142
			c0.056,2.112,0.012,4.226,0.012,6.798c4.81,0,9.387,0.185,13.943-0.052c4.501-0.233,8.98-0.893,13.218-1.339
			c-1.519,2.049-3.408,4.32-4.953,6.805c-0.71,1.142-1.001,2.697-1.039,4.077c-0.125,4.567-0.047,9.14-0.047,13.711
			c-0.207,0.062-0.414,0.124-0.621,0.187c-0.376-0.855-0.724-1.723-1.132-2.563c-1.507-3.108-3.684-5.285-7.418-5.3
			c-3.151-0.013-6.302-0.064-9.453-0.086c-1.964-0.015-2.952,0.852-2.937,2.942c0.05,6.73-0.208,13.471,0.091,20.188
			c0.172,3.879,2.625,6.704,6.053,8.537c1.163,0.622,2.41,1.084,3.498,2.118c-12.5,0-25.001,0-38.32,0
			c1.354-0.732,2.125-1.102,2.849-1.548c3.604-2.228,5.932-5.132,5.907-9.692c-0.083-15.761-0.188-31.524,0.058-47.281
			c0.082-5.235-2.052-8.567-6.409-10.888c-0.959-0.511-1.926-1.008-2.89-1.511C5.925,10.266,5.925,10.096,5.925,9.925z"/>
		<path fill-rule="evenodd" clip-rule="evenodd" fill="#FFFFFF" d="M335.258,15.55c-3.153,2.433-5.222,5.356-5.374,9.593
			c-0.154,4.271-0.48,8.495,1.058,12.605c0.167,0.446,0.104,0.978-0.337,1.777c-0.462-0.556-0.938-1.101-1.382-1.67
			c-4.554-5.83-10.061-9.877-17.895-9.504c-0.919,0.043-1.896,0.189-2.727,0.557c-3.02,1.333-3.523,4.233-1.082,6.378
			c1.072,0.942,2.366,1.641,3.586,2.406c5.332,3.342,10.793,6.495,15.98,10.046c6.139,4.203,7.881,10.493,6.137,17.688
			c-3.26,13.453-17.165,18.853-29.435,15.424c-5.028-1.405-9.599-1.595-14.047,1.625c-1.097,0.794-2.813,0.731-4.347,0.722
			c7.246-5.44,5.832-13.04,5.638-20.256c-0.05-1.85-0.46-3.689-0.704-5.534c0.212-0.05,0.423-0.101,0.635-0.151
			c0.279,0.456,0.593,0.895,0.834,1.37c3.151,6.188,8.288,10.047,14.702,12.271c3.226,1.117,8.402-1.157,9.896-4.196
			c0.884-1.799,0.977-3.797-0.614-5.195c-2.084-1.831-4.334-3.521-6.692-4.982c-4.321-2.677-8.885-4.971-13.146-7.735
			c-6.584-4.272-7.178-10.604-5.537-17.589c0.638-2.717,2.199-4.716,4.301-6.436c6.85-5.605,14.613-6.698,23.087-5.05
			c2.55,0.496,5.288,0.606,7.846,0.242c1.574-0.224,3.205-1.452,4.389-2.646c1.515-1.528,3.029-2.704,5.23-2.782
			C335.258,14.868,335.258,15.209,335.258,15.55z"/>
		<path fill-rule="evenodd" clip-rule="evenodd" fill="#FFFFFF" d="M269.403,15.315c-0.823,1.616-1.678,3.218-2.462,4.852
			c-2.242,4.662-2.561,9.236,0.32,13.847c0.9,1.441,1.218,3.247,1.802,4.886c-0.217,0.109-0.433,0.218-0.649,0.327
			c-0.366-0.465-0.752-0.916-1.095-1.397c-6.698-9.405-18.303-11.752-27.933-5.645c-2.699,1.711-4.979,3.904-5.089,7.232
			c-0.228,6.877-0.606,13.803-0.041,20.636c0.593,7.149,6.503,10.221,12.438,13.71c0.238-1.497,0.529-2.521,0.544-3.547
			c0.06-4.26-0.112-8.527,0.101-12.776c0.116-2.313-0.646-3.893-2.43-5.203c-1.473-1.081-2.862-2.275-4.09-4.037
			c12.877,0,25.753,0,38.629,0c0.05,0.215,0.101,0.43,0.151,0.645c-1.492,0.677-2.981,1.361-4.478,2.029
			c-2.957,1.322-4.402,3.497-4.296,6.833c0.133,4.17,0.244,8.362-0.029,12.52c-0.32,4.87,2.206,7.605,6.192,9.531
			c1.407,0.681,2.813,1.364,4.408,2.137c-4.603,3.069-11.508,0.957-17.051-4.913c-0.929,1.039-1.815,2.115-2.788,3.105
			c-4.238,4.31-9.767,4.321-15.07,3.81c-7.593-0.733-14.956-2.754-20.816-8.054c-9.386-8.487-13-19.052-10.643-31.539
			c2.058-10.895,8.621-18.372,18.36-23.045c5.625-2.699,11.723-3.479,17.911-1.916c5.688,1.438,10.959,1.228,15.391-3.267
			c0.578-0.586,1.512-0.82,2.281-1.217C269.116,15.011,269.26,15.163,269.403,15.315z"/>
		<path fill-rule="evenodd" clip-rule="evenodd" fill="#FFFFFF" d="M272.995,29.304c4.594-2.284,9.046-4.37,10.813-9.917
			c-1.417,0.544-2.45,1.166-3.549,1.32c-3.397,0.478-6.389-1.296-7.349-4.166c-1.001-2.99,0.533-6.439,3.638-8.178
			c4.913-2.751,11.696-0.645,14.524,4.51c2.449,4.463,0.478,10.266-4.402,13.049c-3.501,1.997-7.098,3.669-11.246,3.672
			c-0.506,0-1.016,0.078-1.516,0.035C273.597,29.604,273.299,29.418,272.995,29.304z"/>
		<path fill-rule="evenodd" clip-rule="evenodd" fill="#FFFFFF" d="M84.833,69.789c-0.181-0.032-0.36-0.057-0.545-0.107
			c-2.356-0.646-3.971-2.51-4.059-4.773c-0.262-6.796-0.333-13.615-0.072-20.41c0.11-2.844,1.985-4.509,4.676-4.854V28.678
			c-4.036,0.161-7.929,1.357-11.067,3.424C61.047,40.479,59.532,59.273,67.1,70.863c4.427,6.778,11.044,10.381,17.733,10.67V69.789z
			"/>
		<path fill-rule="evenodd" clip-rule="evenodd" fill="#FFFFFF" d="M131.667,69.556c-2.532-0.328-4.356-2.269-4.469-5.358
			c-0.235-6.452-0.197-12.92-0.095-19.378c0.043-2.761,1.96-4.712,4.564-5.144V28.786c-12.752,0.432-19.01,9.457-22.614,22.002
			c-0.354-1.001-0.531-1.537-0.732-2.063c-1.234-3.224-2.026-6.718-3.79-9.621c-4.195-6.907-11.003-10.113-17.696-10.421v10.95
			c2.688,0.29,4.499,2.457,4.545,5.594c0.042,2.893,0.009,5.788,0.009,8.681c0.017,0,0.034,0,0.05,0
			c0,3.148,0.143,6.307-0.066,9.441c-0.09,1.351-0.736,2.751-1.433,3.953c-0.767,1.326-1.832,2.175-3.105,2.472V81.52
			c5.473-0.307,10.854-2.845,14.979-7.713c3.288-3.881,5.755-8.203,6.477-13.356c0.141-1.003,0.382-1.991,0.577-2.986
			c2.725,12.114,8.044,22.305,21.367,23.64c0.487,0.049,0.964,0.084,1.434,0.11V69.556z"/>
		<path fill-rule="evenodd" clip-rule="evenodd" fill="#FFFFFF" d="M214.749,79.856c-6.115-2.418-8.802-6.9-8.269-13.403
			c0.056-0.677-0.008-1.363-0.014-2.045c-0.153-16.872-0.324-33.745-0.448-50.618c-0.031-4.378-2.145-7.388-5.84-9.46
			c-0.65-0.364-1.314-0.703-1.973-1.053c-1.534,0-3.068,0-4.603,0c-1.894,1.087-3.818,2.125-5.676,3.271
			c-3.309,2.042-6.767,2.608-10.487,1.32c-0.806-0.279-1.65-0.448-2.477-0.668c0.368,1.172,0.954,1.889,1.688,2.383
			c2.045,1.377,4.205,2.588,6.213,4.015c0.997,0.709,2.451,1.704,2.51,2.644c0.27,4.303,0.118,8.633,0.118,13.001
			c-1.536-0.332-2.986-0.549-4.368-0.673v9.155c1.389-0.491,2.902-0.738,4.442-0.646c0,4.128,0.002,8.278,0,12.428
			c-0.003,4.599-0.003,9.196-0.014,13.795c-0.006,2.524-1.874,4.654-4.429,5.263v12.057c2.028-0.911,3.625-2.735,4.708-5.466
			c0.228-0.573,0.541-1.112,1.085-2.219c0.588,1.76,0.923,2.963,1.388,4.113c1.017,2.515,2.451,4.249,5.622,4.196
			c5.705-0.095,11.416,0.143,17.123,0.289c1.973,0.051,3.941,0.246,5.912,0.375C216.369,80.87,215.623,80.202,214.749,79.856z"/>
		<path fill-rule="evenodd" clip-rule="evenodd" fill="#FFFFFF" d="M179.125,68.689c-2.306-0.339-4.335-2.429-4.375-5.043
			c-0.093-6.214-0.111-12.436,0.109-18.645c0.092-2.57,1.808-4.889,4.266-6.349V28.456c-13.263-0.257-19.137,9.513-22.953,22.562
			c-2.966-11.462-7.666-20.839-20.359-22.087c-0.736-0.072-1.447-0.112-2.146-0.136v10.857c2.763,0.315,4.477,2.079,4.608,5.094
			c0.136,3.14,0.029,6.289,0.029,9.434c0.044,0,0.087,0.001,0.131,0.001c0,3.146,0.044,6.291-0.014,9.436
			c-0.046,2.489-1.938,5.123-3.958,5.697c-0.27,0.077-0.535,0.135-0.797,0.181v11.758c13.889-0.186,19.585-10.902,22.822-24.201
			c0.658,2.604,1.023,4.69,1.713,6.664c2.613,7.464,7.037,13.381,14.606,16.471c2.353,0.96,4.469,1.293,6.316,1.021V68.689z"/>
	</g>
</g>
<path display="none" fill-rule="evenodd" clip-rule="evenodd" d="M-94.84-103.717V221.73H435v-325.447H-94.84z M276.548,8.364
	c4.913-2.751,11.696-0.645,14.524,4.51c2.449,4.463,0.478,10.266-4.402,13.049c-3.501,1.997-7.098,3.669-11.246,3.672
	c-0.506,0-1.016,0.078-1.516,0.035c-0.312-0.027-0.609-0.212-0.913-0.326c4.594-2.284,9.046-4.37,10.813-9.917
	c-1.417,0.544-2.45,1.166-3.549,1.32c-3.397,0.478-6.389-1.296-7.349-4.166C271.909,13.552,273.443,10.103,276.548,8.364z
	 M56.696,41.624c-0.125,4.567-0.047,9.14-0.047,13.711c-0.207,0.062-0.414,0.124-0.621,0.187c-0.376-0.855-0.724-1.723-1.132-2.563
	c-1.507-3.108-3.684-5.285-7.418-5.3c-3.151-0.013-6.302-0.064-9.453-0.086c-1.964-0.015-2.952,0.852-2.937,2.942
	c0.05,6.73-0.208,13.471,0.091,20.188c0.172,3.879,2.625,6.704,6.053,8.537c1.163,0.622,2.41,1.084,3.498,2.118
	c-12.5,0-25.001,0-38.32,0c1.354-0.732,2.125-1.102,2.849-1.548c3.604-2.228,5.932-5.132,5.907-9.692
	c-0.083-15.761-0.188-31.524,0.058-47.281c0.082-5.235-2.052-8.567-6.409-10.888c-0.959-0.511-1.926-1.008-2.89-1.511
	c0-0.17,0-0.341,0-0.512C36.337,9.94,66.75,9.944,97.163,9.988c2.55,0.004,5.12,0.114,7.644,0.453
	c4.675,0.627,8.307,3.013,10.496,7.233c3.422,6.6-1.021,13.69-9.172,13.884c1.092-0.897,1.999-1.397,2.551-2.156
	c0.79-1.086,2.147-2.822,1.791-3.461c-0.768-1.379-2.334-2.828-3.825-3.175c-2.525-0.59-5.244-0.439-7.882-0.445
	c-20.021-0.051-40.042-0.034-60.062-0.127c-2.359-0.011-3.248,0.906-3.189,3.142c0.056,2.112,0.012,4.226,0.012,6.798
	c4.81,0,9.387,0.185,13.943-0.052c4.501-0.233,8.98-0.893,13.218-1.339c-1.519,2.049-3.408,4.32-4.953,6.805
	C57.025,38.689,56.734,40.244,56.696,41.624z M84.833,39.645c-2.691,0.344-4.566,2.01-4.676,4.854
	c-0.261,6.794-0.19,13.614,0.072,20.41c0.087,2.264,1.703,4.128,4.059,4.773c0.186,0.051,0.365,0.075,0.545,0.107v11.744
	c-6.689-0.289-13.307-3.892-17.733-10.67c-7.568-11.59-6.053-30.384,6.667-38.762c3.138-2.066,7.031-3.263,11.067-3.424V39.645z
	 M131.667,39.675c-2.604,0.432-4.521,2.382-4.564,5.144c-0.102,6.458-0.14,12.926,0.095,19.378c0.112,3.09,1.937,5.03,4.469,5.358
	v11.658c-0.47-0.026-0.946-0.062-1.434-0.11c-13.323-1.335-18.642-11.525-21.367-23.64c-0.195,0.995-0.436,1.983-0.577,2.986
	c-0.722,5.153-3.189,9.476-6.477,13.356c-4.125,4.868-9.505,7.406-14.979,7.713V69.774c1.273-0.297,2.338-1.146,3.105-2.472
	c0.696-1.202,1.343-2.603,1.433-3.953c0.209-3.135,0.066-6.293,0.066-9.441c-0.017,0-0.033,0-0.05,0
	c0-2.894,0.034-5.788-0.009-8.681c-0.046-3.137-1.857-5.304-4.545-5.594v-10.95c6.693,0.308,13.501,3.514,17.696,10.421
	c1.764,2.903,2.556,6.397,3.79,9.621c0.201,0.526,0.378,1.063,0.732,2.063c3.604-12.545,9.862-21.57,22.614-22.002V39.675z
	 M179.125,38.653c-2.458,1.46-4.174,3.778-4.266,6.349c-0.221,6.209-0.202,12.431-0.109,18.645c0.04,2.614,2.069,4.704,4.375,5.043
	v12.518c-1.848,0.271-3.964-0.062-6.316-1.021c-7.57-3.09-11.993-9.007-14.606-16.471c-0.69-1.974-1.055-4.061-1.713-6.664
	c-3.237,13.299-8.934,24.016-22.822,24.201V69.494c0.262-0.046,0.527-0.104,0.797-0.181c2.02-0.574,3.912-3.208,3.958-5.697
	c0.059-3.145,0.014-6.29,0.014-9.436c-0.044,0-0.087-0.001-0.131-0.001c0-3.145,0.107-6.294-0.029-9.434
	c-0.131-3.015-1.846-4.778-4.608-5.094V28.795c0.699,0.023,1.411,0.063,2.146,0.136c12.693,1.248,17.393,10.625,20.359,22.087
	c3.815-13.048,9.69-22.818,22.953-22.562V38.653z M211.051,81.536c-5.707-0.146-11.418-0.384-17.123-0.289
	c-3.171,0.053-4.605-1.682-5.622-4.196c-0.465-1.15-0.8-2.354-1.388-4.113c-0.544,1.106-0.857,1.646-1.085,2.219
	c-1.083,2.73-2.68,4.555-4.708,5.466V68.565c2.555-0.608,4.423-2.738,4.429-5.263c0.011-4.599,0.011-9.196,0.014-13.795
	c0.002-4.15,0-8.3,0-12.428c-1.54-0.092-3.054,0.154-4.442,0.646V28.57c1.382,0.124,2.832,0.341,4.368,0.673
	c0-4.368,0.151-8.698-0.118-13.001c-0.059-0.94-1.513-1.935-2.51-2.644c-2.008-1.427-4.168-2.638-6.213-4.015
	c-0.734-0.495-1.32-1.211-1.688-2.383c0.826,0.22,1.671,0.389,2.477,0.668c3.721,1.288,7.179,0.722,10.487-1.32
	c1.857-1.146,3.782-2.184,5.676-3.271c1.534,0,3.068,0,4.603,0c0.658,0.351,1.322,0.689,1.973,1.053
	c3.695,2.072,5.809,5.083,5.84,9.46c0.124,16.873,0.295,33.746,0.448,50.618c0.006,0.682,0.069,1.368,0.014,2.045
	c-0.533,6.503,2.153,10.985,8.269,13.403c0.874,0.346,1.62,1.014,2.214,2.055C214.992,81.782,213.023,81.587,211.051,81.536z
	 M264.347,76.98c-0.929,1.039-1.815,2.115-2.788,3.105c-4.238,4.31-9.767,4.321-15.07,3.81c-7.593-0.733-14.956-2.754-20.816-8.054
	c-9.386-8.487-13-19.052-10.643-31.539c2.058-10.895,8.621-18.372,18.36-23.045c5.625-2.699,11.723-3.479,17.911-1.916
	c5.688,1.438,10.959,1.228,15.391-3.267c0.578-0.586,1.512-0.82,2.281-1.217c0.144,0.152,0.287,0.305,0.431,0.457
	c-0.823,1.616-1.678,3.218-2.462,4.852c-2.242,4.662-2.561,9.236,0.32,13.847c0.9,1.441,1.218,3.247,1.802,4.886
	c-0.217,0.109-0.433,0.218-0.649,0.327c-0.366-0.465-0.752-0.916-1.095-1.397c-6.698-9.405-18.303-11.752-27.933-5.645
	c-2.699,1.711-4.979,3.904-5.089,7.232c-0.228,6.877-0.606,13.803-0.041,20.636c0.593,7.149,6.503,10.221,12.438,13.71
	c0.238-1.497,0.529-2.521,0.544-3.547c0.06-4.26-0.112-8.527,0.101-12.776c0.116-2.313-0.646-3.893-2.43-5.203
	c-1.473-1.081-2.862-2.275-4.09-4.037c12.877,0,25.753,0,38.629,0c0.05,0.215,0.101,0.43,0.151,0.645
	c-1.492,0.677-2.981,1.361-4.478,2.029c-2.957,1.322-4.402,3.497-4.296,6.833c0.133,4.17,0.244,8.362-0.029,12.52
	c-0.32,4.87,2.206,7.605,6.192,9.531c1.407,0.681,2.813,1.364,4.408,2.137C276.795,84.963,269.89,82.851,264.347,76.98z
	 M335.258,15.55c-3.153,2.433-5.222,5.356-5.374,9.593c-0.154,4.271-0.48,8.495,1.058,12.605c0.167,0.446,0.104,0.978-0.337,1.777
	c-0.462-0.556-0.938-1.101-1.382-1.67c-4.554-5.83-10.061-9.877-17.895-9.504c-0.919,0.043-1.896,0.189-2.727,0.557
	c-3.02,1.333-3.523,4.233-1.082,6.378c1.072,0.942,2.366,1.641,3.586,2.406c5.332,3.342,10.793,6.495,15.98,10.046
	c6.139,4.203,7.881,10.493,6.137,17.688c-3.26,13.453-17.165,18.853-29.435,15.424c-5.028-1.405-9.599-1.595-14.047,1.625
	c-1.097,0.794-2.813,0.731-4.347,0.722c7.246-5.44,5.832-13.04,5.638-20.256c-0.05-1.85-0.46-3.689-0.704-5.534
	c0.212-0.05,0.423-0.101,0.635-0.151c0.279,0.456,0.593,0.895,0.834,1.37c3.151,6.188,8.288,10.047,14.702,12.271
	c3.226,1.117,8.402-1.157,9.896-4.196c0.884-1.799,0.977-3.797-0.614-5.195c-2.084-1.831-4.334-3.521-6.692-4.982
	c-4.321-2.677-8.885-4.971-13.146-7.735c-6.584-4.272-7.178-10.604-5.537-17.589c0.638-2.717,2.199-4.716,4.301-6.436
	c6.85-5.605,14.613-6.698,23.087-5.05c2.55,0.496,5.288,0.606,7.846,0.242c1.574-0.224,3.205-1.452,4.389-2.646
	c1.515-1.528,3.029-2.704,5.23-2.782C335.258,14.868,335.258,15.209,335.258,15.55z"/>
</svg>
