<?xml version="1.0" encoding="utf-8"?>
<!-- Generator: Adobe Illustrator 16.0.3, SVG Export Plug-In . SVG Version: 6.00 Build 0)  -->
<!DOCTYPE svg PUBLIC "-//W3C//DTD SVG 1.1//EN" "http://www.w3.org/Graphics/SVG/1.1/DTD/svg11.dtd">
<svg version="1.1" id="Ebene_1" xmlns="http://www.w3.org/2000/svg" xmlns:xlink="http://www.w3.org/1999/xlink" x="0px" y="0px"
	 width="329.359px" height="80.549px" viewBox="0 61.181 329.359 80.549" enable-background="new 0 61.181 329.359 80.549"
	 xml:space="preserve">
<g>
	<path d="M125.908,97.952h-0.002l-0.061-10.889c-12.75,0.504-18.957,9.564-22.49,22.129c-0.36-0.998-0.54-1.534-0.744-2.058
		c-1.252-3.218-2.063-6.708-3.844-9.601c-4.233-6.883-11.06-10.051-17.754-10.32l0.062,10.948c2.689,0.275,4.513,2.432,4.576,5.569
		c0.059,2.893,0.042,5.787,0.058,8.681c0.017,0,0.033,0,0.05,0c0.018,3.148,0.179,6.305-0.013,9.441
		c-0.083,1.35-0.722,2.755-1.411,3.96c-0.759,1.33-1.819,2.187-3.091,2.49l0.066,11.744c5.473-0.339,10.838-2.907,14.936-7.797
		c3.266-3.899,5.708-8.235,6.402-13.393c0.135-1.004,0.371-1.994,0.56-2.99c2.793,12.1,8.169,22.261,21.5,23.521
		c0.489,0.045,0.964,0.078,1.435,0.102l-0.065-11.657c-2.534-0.314-4.37-2.244-4.499-5.333c-0.271-6.451-0.27-12.919-0.204-19.378
		C121.4,100.36,123.306,98.399,125.908,97.952z"/>
	<path d="M274.391,78.149c1.098-0.159,2.127-0.787,3.542-1.34c-1.736,5.558-6.177,7.668-10.758,9.979
		c0.305,0.111,0.603,0.295,0.915,0.319c0.501,0.04,1.01-0.04,1.516-0.042c4.148-0.027,7.735-1.72,11.226-3.736
		c4.864-2.81,6.803-8.624,4.329-13.073c-2.857-5.14-9.652-7.207-14.55-4.428c-3.095,1.757-4.609,5.213-3.592,8.197
		C267.994,76.889,270.996,78.646,274.391,78.149z"/>
	<path d="M150.478,109.158c-3.03-11.445-7.783-20.796-20.483-21.972c-0.735-0.069-1.447-0.105-2.146-0.125l0.061,10.856
		c2.764,0.3,4.488,2.054,4.636,5.067c0.154,3.139,0.064,6.289,0.083,9.435c0.044-0.001,0.087,0,0.131,0
		c0.018,3.146,0.08,6.291,0.039,9.436c-0.032,2.489-1.909,5.134-3.926,5.72c-0.27,0.078-0.534,0.138-0.796,0.185l0.066,11.759
		c13.887-0.263,19.523-11.012,22.686-24.329c0.672,2.6,1.049,4.685,1.75,6.654c2.655,7.45,7.111,13.342,14.698,16.39
		c2.358,0.945,4.476,1.267,6.322,0.984l-0.07-12.518c-2.309-0.325-4.349-2.405-4.403-5.018c-0.128-6.214-0.182-12.436,0.004-18.646
		c0.078-2.57,1.78-4.898,4.23-6.372h0.002l-0.058-10.197C160.04,86.285,154.219,96.089,150.478,109.158z"/>
	<path d="M43.669,90.823c-4.555,0.263-9.133,0.103-13.943,0.13c-0.014-2.571,0.018-4.686-0.05-6.798
		c-0.072-2.234,0.813-3.157,3.171-3.159c20.02-0.02,40.041-0.149,60.062-0.211c2.638-0.009,5.356-0.176,7.884,0.401
		c1.493,0.338,3.067,1.778,3.843,3.152c0.36,0.637-0.987,2.381-1.771,3.472c-0.548,0.762-1.452,1.267-2.539,2.17
		c8.15-0.24,12.553-7.354,9.094-13.936c-2.213-4.208-5.858-6.573-10.537-7.173c-2.526-0.325-5.097-0.421-7.646-0.41
		C60.825,68.589,30.413,68.755,0,68.911c0.001,0.172,0.002,0.343,0.003,0.513c0.967,0.497,1.937,0.989,2.899,1.494
		c4.37,2.297,6.522,5.617,6.47,10.852C9.214,97.527,9.408,113.29,9.58,129.051c0.051,4.56-2.261,7.477-5.853,9.725
		c-0.721,0.45-1.49,0.824-2.84,1.564c13.319-0.075,25.819-0.146,38.319-0.216c-1.094-1.028-2.343-1.482-3.51-2.099
		c-3.438-1.813-5.907-4.625-6.101-8.503c-0.337-6.715-0.117-13.457-0.205-20.187c-0.026-2.091,0.957-2.962,2.92-2.959
		c3.151,0.005,6.303,0.038,9.454,0.033c3.734-0.007,5.923,2.159,7.447,5.258c0.413,0.838,0.766,1.704,1.146,2.558
		c0.207-0.065,0.413-0.128,0.62-0.191c-0.026-4.57-0.13-9.143-0.03-13.711c0.03-1.38,0.313-2.937,1.016-4.081
		c1.531-2.493,3.407-4.775,4.915-6.832C52.645,89.88,48.169,90.565,43.669,90.823z"/>
	<path d="M61.517,129.504c4.464,6.753,11.102,10.318,17.793,10.569l-0.066-11.744c-0.18-0.031-0.359-0.054-0.545-0.103
		c-2.359-0.633-3.986-2.488-4.086-4.751c-0.3-6.794-0.41-13.614-0.187-20.409c0.094-2.845,1.959-4.521,4.648-4.88h0.001
		l-0.062-10.969c-4.035,0.184-7.921,1.403-11.047,3.487C55.293,99.154,53.884,117.956,61.517,129.504z"/>
	<path d="M319.766,77.143c-2.556,0.378-5.294,0.283-7.847-0.198c-8.483-1.6-16.239-0.464-23.059,5.181
		c-2.093,1.731-3.643,3.739-4.265,6.459c-1.603,6.995-0.973,13.323,5.635,17.558c4.277,2.74,8.854,5.009,13.19,7.661
		c2.366,1.448,4.626,3.125,6.72,4.944c1.599,1.389,1.518,3.388,0.644,5.191c-1.477,3.048-6.64,5.351-9.873,4.252
		c-6.426-2.188-11.584-6.018-14.771-12.188c-0.244-0.474-0.56-0.911-0.842-1.365c-0.212,0.052-0.422,0.104-0.634,0.154
		c0.255,1.844,0.674,3.68,0.735,5.53c0.233,7.215,1.69,14.807-5.524,20.287c1.535,0,3.25,0.055,4.343-0.746
		c4.43-3.245,9.002-3.081,14.038-1.704c12.288,3.36,26.163-2.118,29.348-15.59c1.703-7.204-0.073-13.484-6.236-17.652
		c-5.207-3.521-10.686-6.645-16.036-9.956c-1.225-0.759-2.522-1.45-3.6-2.386c-2.453-2.131-1.967-5.034,1.047-6.385
		c0.827-0.372,1.805-0.523,2.723-0.571c7.832-0.417,13.361,3.599,17.948,9.403c0.447,0.565,0.926,1.107,1.392,1.662
		c0.437-0.802,0.497-1.334,0.326-1.779c-1.56-4.101-1.258-8.327-1.128-12.599c0.128-4.238,2.181-7.173,5.319-9.624
		c-0.002-0.341-0.004-0.682-0.006-1.021c-2.2,0.091-3.707,1.275-5.214,2.812C322.962,75.673,321.338,76.91,319.766,77.143z"/>
	<path d="M209.218,137.666c-6.129-2.384-8.841-6.851-8.346-13.356c0.053-0.677-0.015-1.363-0.024-2.045
		c-0.247-16.871-0.515-33.743-0.732-50.615c-0.056-4.376-2.187-7.375-5.893-9.427c-0.654-0.36-1.319-0.694-1.979-1.042
		c-1.535,0.009-3.069,0.018-4.603,0.026c-1.889,1.098-3.808,2.146-5.657,3.303c-3.297,2.061-6.752,2.646-10.48,1.379
		c-0.807-0.274-1.653-0.439-2.48-0.654c0.374,1.17,0.965,1.882,1.7,2.373c2.054,1.366,4.22,2.564,6.236,3.981
		c1.002,0.703,2.46,1.689,2.525,2.629c0.292,4.302,0.166,8.632,0.19,13c-1.537-0.323-2.989-0.531-4.371-0.647l0.051,9.154
		c1.386-0.5,2.897-0.754,4.439-0.671c0.022,4.128,0.048,8.278,0.069,12.428c0.022,4.6,0.048,9.196,0.064,13.795
		c0.007,2.525-1.85,4.665-4.4,5.288l0.067,12.058c2.022-0.923,3.61-2.756,4.678-5.492c0.225-0.575,0.534-1.116,1.072-2.225
		c0.598,1.755,0.939,2.957,1.412,4.104c1.03,2.51,2.474,4.235,5.645,4.165c5.704-0.127,11.416,0.079,17.124,0.192
		c1.974,0.04,3.943,0.225,5.917,0.342C210.843,138.671,210.093,138.007,209.218,137.666z"/>
	<path d="M265.207,127.721c0.25-4.16,0.115-8.352-0.041-12.521c-0.124-3.336,1.308-5.519,4.258-6.857
		c1.493-0.677,2.978-1.368,4.466-2.055c-0.051-0.215-0.104-0.429-0.154-0.644c-12.876,0.072-25.751,0.145-38.628,0.218
		c1.237,1.754,2.634,2.94,4.112,4.014c1.79,1.3,2.563,2.875,2.459,5.189c-0.189,4.25,0.007,8.516-0.029,12.775
		c-0.009,1.026-0.294,2.053-0.523,3.551c-5.955-3.456-11.883-6.494-12.516-13.641c-0.604-6.83-0.264-13.758-0.075-20.636
		c0.092-3.328,2.358-5.533,5.049-7.26c9.596-6.161,21.214-3.88,27.965,5.487c0.345,0.479,0.733,0.929,1.103,1.392
		c0.215-0.11,0.431-0.222,0.647-0.331c-0.594-1.637-0.922-3.44-1.83-4.876c-2.907-4.595-2.613-9.171-0.398-13.845
		c0.776-1.639,1.621-3.245,2.436-4.866c-0.146-0.151-0.289-0.304-0.435-0.454c-0.766,0.4-1.699,0.641-2.274,1.229
		c-4.406,4.52-9.676,4.76-15.372,3.354c-6.195-1.528-12.289-0.714-17.898,2.017c-9.714,4.729-16.234,12.241-18.231,23.147
		c-2.286,12.5,1.387,23.045,10.82,31.479c5.891,5.268,13.265,7.247,20.86,7.938c5.307,0.481,10.835,0.439,15.049-3.895
		c0.968-0.995,1.848-2.076,2.771-3.12c5.576,5.84,12.492,7.912,17.076,4.817c-1.598-0.765-3.008-1.438-4.419-2.112
		C267.456,135.313,264.914,132.593,265.207,127.721z"/>
</g>
</svg>
