<?xml version="1.0" encoding="utf-8"?>
<!-- Generator: Adobe Illustrator 15.1.0, SVG Export Plug-In . SVG Version: 6.00 Build 0)  -->
<!DOCTYPE svg PUBLIC "-//W3C//DTD SVG 1.1//EN" "http://www.w3.org/Graphics/SVG/1.1/DTD/svg11.dtd">
<svg version="1.1" id="Ebene_1" xmlns="http://www.w3.org/2000/svg" xmlns:xlink="http://www.w3.org/1999/xlink" x="0px" y="0px"
	 width="153.07px" height="153.07px" viewBox="0 0 153.07 153.07" enable-background="new 0 0 153.07 153.07" xml:space="preserve">
<path display="none" d="M154.198,67.72l-0.892-2.167l-1.369,0.167l-0.119-0.979l-1.686,0.207l0.12,0.978l-3.01,0.367
	c-0.793,0.097-1.374,0.295-1.778,0.593c-0.177-1.269-0.383-2.528-0.627-3.775c0.098-0.021,0.192-0.04,0.293-0.063l3.999-0.994
	c1.073-0.267,1.684-0.387,2.161-0.474l-0.482-1.941l-0.886,0.142l-0.007-0.028c0.512-0.519,0.784-1.241,0.54-2.227
	c-0.442-1.779-2.281-2.898-4.604-2.321c-1.192,0.296-2.06,0.973-2.503,1.831c-0.367-1.259-0.765-2.503-1.201-3.731l6.153-2.295
	l-0.221-0.593l0.912-0.396c0.323,0.392,0.809,0.511,1.267,0.34c0.604-0.241,0.915-0.843,0.656-1.539
	c-0.261-0.695-0.898-0.976-1.51-0.748c-0.426,0.158-0.698,0.524-0.733,0.967l-0.951,0.412l-0.225-0.603l-6.162,2.297
	c-0.484-1.23-1.001-2.444-1.553-3.642c0.909,0.354,2.009,0.337,3.218-0.276c2-1.015,2.707-3.074,1.685-5.086
	c-1.083-2.136-3.161-2.849-5.312-1.759c-1.099,0.558-1.762,1.394-2.02,2.336c-0.859-1.542-1.775-3.048-2.748-4.515l6.807-1.725
	l-1.377-1.995l-3.377,1.168c-0.617,0.226-1.148,0.444-1.717,0.688l-0.025-0.038c0.418-0.434,0.822-0.862,1.244-1.374l2.264-2.779
	l-1.422-2.059l-4.062,5.718c-0.919-1.271-1.871-2.516-2.872-3.719l0.673-0.896c-0.573-0.318-1.079-0.72-1.608-1.305
	c-0.722-0.798-1.025-1.812-0.357-2.496l3.203,3.541c0.146-0.089,0.435-0.29,0.728-0.554c1.358-1.23,2.133-3.156,0.524-4.934
	c-1.729-1.909-4.053-1.383-5.445-0.122c-0.9,0.813-1.35,1.764-1.342,2.75c-0.896-0.923-1.812-1.824-2.756-2.696l0.558-0.996
	c-0.611-0.239-1.165-0.568-1.769-1.077c-0.821-0.695-1.258-1.658-0.688-2.427l3.646,3.082c0.131-0.108,0.392-0.345,0.646-0.646
	c1.184-1.4,1.691-3.411-0.137-4.956c-1.968-1.664-4.198-0.831-5.411,0.604c-0.786,0.931-1.103,1.936-0.959,2.916
	c-1.004-0.792-2.027-1.558-3.075-2.294l1.94-3.086c1.161-1.848,0.74-3.313-0.543-4.119c-1.052-0.661-2.06-0.453-2.574-0.205
	l-0.039-0.024l0.461-0.928l-1.693-1.064c-0.33,0.58-0.716,1.251-1.207,2.032l-2.29,3.642c-0.898-0.505-1.81-0.989-2.732-1.456
	l1.438-3.271c0.904-2.053,0.286-3.435-1.061-4.026c-0.39-0.172-0.819-0.246-1.213-0.22c-0.406,0.02-0.788,0.135-1.145,0.342
	l-0.027-0.013l1.71-3.887l-2.109-0.928l-4.025,9.149c-0.831-0.318-1.67-0.619-2.517-0.905l0.138-1.105
	c-0.377,0.048-0.81,0.017-1.335-0.136c-1.076-0.313-1.747-1.267-1.37-2.562c0.324-1.17,1.322-1.778,2.486-1.44
	c0.582,0.169,0.945,0.386,1.175,0.578l0.828-1.542c-0.416-0.311-1.026-0.6-1.608-0.769c-2.649-0.77-4.572,0.52-5.178,2.601
	c-0.327,1.126-0.216,2.15,0.27,2.978c-1.452-0.383-2.926-0.715-4.414-1.005c0.729-0.467,1.163-1.182,1.293-2.01
	c0.225-1.421-0.453-2.479-2.132-3.416c-1.238-0.701-1.748-1.073-1.646-1.718c0.08-0.509,0.632-0.896,1.62-0.741
	c0.973,0.152,1.662,0.553,2.021,0.809l0.796-1.746c-0.555-0.378-1.343-0.731-2.495-0.913c-2.363-0.371-4.021,0.702-4.291,2.424
	c-0.229,1.467,0.731,2.568,2.313,3.431c1.146,0.608,1.568,1.043,1.471,1.673c-0.104,0.658-0.727,1.005-1.772,0.841
	c-0.974-0.153-1.883-0.618-2.432-1.024l-0.634,1.502c-2.444-0.262-4.925-0.402-7.438-0.402c-9.739,0-19.015,2.018-27.438,5.646
	c-0.018-0.53-0.052-1.119-0.109-1.807l-0.455-5.156L46.3,6.625l0.67,3.691c0.087,0.444,0.203,0.99,0.29,1.4l-0.055,0.025
	c-0.246-0.32-0.617-0.769-0.904-1.104l-2.522-2.861l-2.33,1.063l5.124,4.872c-1.304,0.625-2.579,1.296-3.837,1.997l-4.082-1.753
	l0.643-3.952l-2.346,1.479l-0.079,2.686c-0.01,0.328-0.001,0.681,0.027,1.039l-0.024,0.016L33.418,9.75l-1.947,1.229l5.329,8.444
	c-0.879,0.614-1.744,1.246-2.593,1.897c0.011-0.518-0.163-1.008-0.514-1.436c-0.692-0.823-1.599-1.021-2.997-0.504
	c-0.903,0.329-1.242,0.371-1.473,0.09c-0.229-0.282-0.129-0.66,0.306-1.014c0.48-0.396,1.14-0.619,1.512-0.69l-0.702-1.48
	c-0.495,0.111-1.216,0.428-1.885,0.976c-1.419,1.16-1.671,2.719-0.788,3.798c0.545,0.688,1.529,0.96,3.053,0.38
	c0.839-0.314,1.13-0.317,1.379-0.014c0.24,0.294,0.161,0.652-0.378,1.093c-0.528,0.433-1.391,0.767-1.882,0.835l0.535,1.135
	c-1.063,0.942-2.104,1.907-3.105,2.912l-3.057-6.324l-1.678,1.749l1.821,3.068c0.345,0.561,0.665,1.036,1.02,1.542l-0.031,0.033
	c-0.511-0.321-1.011-0.632-1.596-0.942l-3.174-1.656l-1.729,1.805l6.419,2.83c-1.219,1.328-2.377,2.711-3.492,4.131
	c-0.086-0.989-0.599-1.978-1.716-2.787c-1.818-1.315-3.972-1.003-5.298,0.826c-1.405,1.94-1.089,4.116,0.864,5.53
	c1.004,0.728,2.059,0.932,3.021,0.723c-0.732,1.095-1.427,2.216-2.098,3.354l-8.646-4.888L6.765,38.4l8.63,4.878
	c-0.516,0.944-1.007,1.903-1.479,2.873c-0.226-0.459-0.6-0.813-1.099-1.034c-0.988-0.424-1.888-0.191-2.901,0.899
	c-0.66,0.703-0.942,0.892-1.275,0.744c-0.332-0.147-0.41-0.53-0.184-1.042c0.252-0.569,0.737-1.065,1.04-1.296L8.2,43.417
	c-0.394,0.323-0.895,0.93-1.244,1.719c-0.743,1.677-0.268,3.181,1.007,3.747c0.798,0.37,1.799,0.168,2.896-1.036
	c0.607-0.659,0.866-0.793,1.228-0.634c0.347,0.155,0.437,0.509,0.154,1.146c-0.276,0.623-0.896,1.311-1.305,1.593l0.973,0.759
	c-0.446,1.113-0.864,2.241-1.254,3.382c-0.418-0.876-1.224-1.612-2.515-1.995c-2.148-0.639-4.077,0.369-4.721,2.534
	c-0.683,2.294,0.337,4.24,2.646,4.927c1.156,0.343,2.195,0.209,3.021-0.271c-0.662,2.586-1.161,5.234-1.523,7.928l-2.774-0.42
	c0.077-0.203,0.133-0.469,0.178-0.771C5.17,64.676,5,63.471,4.398,62.583c-0.461-0.698-1.267-1.142-2.255-1.291
	c-0.989-0.149-1.892,0.143-2.5,0.725c-0.642,0.592-1.063,1.555-1.274,2.963c-0.211,1.394-0.271,2.396-0.258,3.117l9.166,1.387
	c-0.233,2.319-0.355,4.67-0.355,7.051c0,38.385,31.229,69.613,69.614,69.613s69.614-31.229,69.614-69.613
	c0-2.086-0.108-4.146-0.29-6.188l0.962-0.126c-0.069-0.205-0.104-0.353-0.143-0.67c-0.082-0.676,0.297-0.952,1.184-1.061
	l2.663-0.325l0.2,1.641l1.687-0.206l-0.2-1.641L154.198,67.72z M146.475,57.452c1.309-0.326,2.204,0.138,2.408,0.962
	c0.153,0.618-0.138,1.143-0.687,1.45c-0.125,0.063-0.268,0.113-0.399,0.146l-1.06,0.263c-0.19,0.048-0.43,0.093-0.62,0.077
	c-0.553-0.02-1.048-0.38-1.193-0.968C144.694,58.456,145.4,57.718,146.475,57.452z M132.004,26.374
	c0.712,0.787,0.178,1.599-0.239,1.974l-1.83-2.023C130.425,25.961,131.354,25.655,132.004,26.374z M124.852,19.441
	c0.811,0.685,0.39,1.559,0.026,1.986l-2.083-1.76C123.232,19.243,124.11,18.814,124.852,19.441z M3.211,65.774
	c-0.052,0.347-0.102,0.567-0.175,0.755l-2.981-0.45c-0.02-0.172-0.002-0.49,0.066-0.939c0.175-1.154,0.825-1.714,1.755-1.574
	C2.895,63.719,3.396,64.561,3.211,65.774z M9.252,56.442c-0.281,0.944-1.349,1.182-2.567,0.817c-1.046-0.31-2.015-1.04-1.704-2.085
	c0.298-1.003,1.494-1.091,2.539-0.78C8.813,54.778,9.511,55.571,9.252,56.442z M140.505,42.477c0.974-0.494,2.179-0.63,2.673,0.343
	c0.473,0.934-0.335,1.819-1.309,2.313c-1.203,0.61-2.254,0.515-2.666-0.296C138.758,43.958,139.369,43.053,140.505,42.477z
	 M114.38,14.071c0.112-0.18,0.238-0.351,0.37-0.446c0.367-0.271,0.922-0.44,1.461-0.103c0.705,0.444,0.64,1.173,0.133,1.982
	l-1.752,2.784c-0.676-0.443-1.351-0.888-2.042-1.308L114.38,14.071z M104.959,9.132c0.065-0.153,0.16-0.327,0.271-0.428
	c0.323-0.321,0.829-0.529,1.386-0.285c0.789,0.348,0.826,1.094,0.437,1.981l-1.306,2.969c-0.733-0.341-1.467-0.683-2.212-0.998
	L104.959,9.132z M38.021,15.965l2.27,1.162c-0.533,0.327-1.054,0.672-1.577,1.012l-0.79-1.252L38.021,15.965z M16.968,35.242
	c-0.885-0.642-1.557-1.651-0.917-2.536c0.614-0.849,1.772-0.532,2.656,0.106c1.093,0.791,1.488,1.771,0.955,2.507
	C19.084,36.119,18,35.99,16.968,35.242z M76.535,143.15c-36.79,0-66.614-29.823-66.614-66.613S39.745,9.921,76.535,9.921
	s66.613,29.825,66.613,66.615S113.325,143.15,76.535,143.15z M144.357,60.896c-0.015-0.062-0.027-0.123-0.043-0.185
	c0.068,0.037,0.13,0.084,0.203,0.113l0.008,0.029L144.357,60.896z"/>
<g display="none">
	<g display="inline">
		<path d="M76.535,9.921c36.79,0,66.614,29.824,66.614,66.614s-29.824,66.614-66.614,66.614S9.921,113.325,9.921,76.535
			S39.745,9.921,76.535,9.921 M76.535,4.921c-39.488,0-71.614,32.126-71.614,71.614s32.126,71.614,71.614,71.614
			s71.614-32.126,71.614-71.614S116.024,4.921,76.535,4.921L76.535,4.921z"/>
	</g>
	<circle display="inline" fill="none" cx="76.535" cy="76.534" r="69.449"/>
	<text transform="matrix(-0.4494 -0.8933 0.8933 -0.4494 18.8708 116.4622)" display="inline"><tspan x="0" y="0" font-family="'MyriadPro-Bold'" font-size="33.3617">P</tspan><tspan x="16.502" y="-0.329" font-family="'MyriadPro-Bold'" font-size="33.3617" rotate="13.406">o</tspan><tspan x="32.578" y="3.466" font-family="'MyriadPro-Bold'" font-size="33.3617" rotate="24.972">s</tspan><tspan x="43.504" y="8.571" font-family="'MyriadPro-Bold'" font-size="33.3617" rotate="32.739">l</tspan><tspan x="49.443" y="11.63" font-family="'MyriadPro-Bold'" font-size="33.3617" rotate="42.381">o</tspan><tspan x="61.718" y="22.527" font-family="'MyriadPro-Bold'" font-size="33.3617" rotate="55.208">v</tspan><tspan x="70.359" y="34.774" font-family="'MyriadPro-Bold'" font-size="33.3617" rotate="66.097">s</tspan><tspan x="75.549" y="45.394" font-family="'MyriadPro-Bold'" font-size="33.3617" rotate="77.327">k</tspan><tspan x="79.161" y="60.249" font-family="'MyriadPro-Bold'" font-size="33.3617" rotate="89.654">y</tspan><tspan x="79.048" y="75.264" font-family="'MyriadPro-Bold'" font-size="33.3617" rotate="97.596"> </tspan><tspan x="78.496" y="79.924" font-family="'MyriadPro-Bold'" font-size="33.3617" rotate="101.441"> </tspan><tspan x="77.627" y="84.56" font-family="'MyriadPro-Bold'" font-size="33.3617" rotate="105.305"> </tspan><tspan x="76.455" y="89.104" font-family="'MyriadPro-Bold'" font-size="33.3617" rotate="109.153"> </tspan><tspan x="74.978" y="93.567" font-family="'MyriadPro-Bold'" font-size="33.3617" rotate="113.013"> </tspan><tspan x="73.818" y="97.771" font-family="'MyriadPro-Bold'" font-size="33.3617" rotate="121.189">S</tspan><tspan x="66.01" y="110.913" font-family="'MyriadPro-Bold'" font-size="33.3617" rotate="132.603">c</tspan><tspan x="58.052" y="120.33" font-family="'MyriadPro-Bold'" font-size="33.3617" rotate="144.549">h</tspan><tspan x="44.662" y="130.289" font-family="'MyriadPro-Bold'" font-size="33.3617" rotate="158.099">n</tspan><tspan x="29.253" y="136.716" font-family="'MyriadPro-Bold'" font-size="33.3617" rotate="171.089">e</tspan><tspan x="14.621" y="139.308" font-family="'MyriadPro-Bold'" font-size="33.3617" rotate="-176.708">e</tspan><tspan x="-0.223" y="138.749" font-family="'MyriadPro-Bold'" font-size="33.3617" rotate="-164.566">v</tspan><tspan x="-14.656" y="135.186" font-family="'MyriadPro-Bold'" font-size="33.3617" rotate="-151.787">o</tspan><tspan x="-29.225" y="127.139" font-family="'MyriadPro-Bold'" font-size="33.3617" rotate="-142.187">i</tspan><tspan x="-34.856" y="123.599" font-family="'MyriadPro-Bold'" font-size="33.3617" rotate="-132.448">g</tspan><tspan x="-46.147" y="111.174" font-family="'MyriadPro-Bold'" font-size="33.3617" rotate="-121.368">t</tspan></text>
	<g display="inline">
		<circle fill="#FFFFFF" cx="76.535" cy="76.535" r="66.614"/>
	</g>
</g>
<path fill="#1D1D1B" d="M166.031,88.962c-1.197-0.202-2.322,0.396-2.776,1.585l-2.029-0.372l0.31-1.837l-14.026-2.368
	c0.148-1.128,0.272-2.264,0.368-3.407c1.432,1.527,3.563,2.531,6.463,2.53c4.939-0.003,8.373-3.341,8.373-8.312
	c-0.004-5.273-3.375-8.741-8.68-8.739c-2.625,0.001-4.719,0.913-6.16,2.415c-0.175-2.07-0.438-4.114-0.786-6.13l15.048,2.112
	l-1.15-5.213l-7.848-0.423c-1.447-0.056-2.711-0.052-4.072-0.025l-0.02-0.098c1.213-0.54,2.393-1.074,3.676-1.766l6.922-3.779
	l-1.184-5.376l-12.789,8.125c-0.436-1.611-0.929-3.197-1.472-4.761l1.911-1.357c-0.99-1.053-1.781-2.233-2.498-3.814
	c-0.979-2.157-0.936-4.485,0.924-5.475l4.342,9.573c0.361-0.091,1.102-0.316,1.893-0.675c3.676-1.667,6.588-5.186,4.41-9.988
	c-2.344-5.166-7.568-5.617-11.336-3.908c-2.316,1.05-3.876,2.623-4.578,4.559c-0.494-0.896-1.001-1.785-1.532-2.657l1.593-1.745
	c-1.189-0.819-2.213-1.805-3.248-3.198c-1.41-1.901-1.861-4.185-0.252-5.545l6.264,8.435c0.334-0.165,1.01-0.542,1.705-1.059
	c3.24-2.407,5.342-6.459,2.199-10.69c-3.381-4.552-8.58-3.889-11.9-1.424c-2.059,1.529-3.254,3.414-3.516,5.475
	c-0.645-0.742-1.304-1.471-1.978-2.186l5.167-6.073c3.113-3.659,2.656-6.982,0.115-9.144c-2.084-1.773-4.344-1.639-5.543-1.258
	l-0.078-0.065l1.293-1.879l-3.354-2.854c-0.9,1.162-1.953,2.5-3.271,4.05l-6.091,7.158c-0.426-0.291-0.861-0.569-1.294-0.851
	l3.525-6.956c2.232-4.405,1.041-7.515-1.846-8.978c-0.832-0.423-1.771-0.637-2.637-0.626c-0.896-0.005-1.748,0.199-2.555,0.612
	l-0.061-0.03l4.225-8.333l-4.523-2.293l-9.932,19.593c-0.198-0.075-0.392-0.16-0.591-0.233l0.237-2.333
	c-0.828,0.125-1.783,0.078-2.943-0.231c-2.387-0.635-3.908-2.698-3.145-5.567c0.654-2.588,2.82-3.98,5.4-3.292
	c1.289,0.343,2.1,0.8,2.611,1.213l1.744-3.437c-0.93-0.662-2.287-1.266-3.576-1.609c-5.869-1.563-10.033,1.368-11.262,5.979
	c-0.642,2.41-0.385,4.593,0.633,6.356c-1.462-0.298-2.944-0.535-4.438-0.742c1.437-1.175,2.2-2.807,2.305-4.611
	c0.182-3.164-1.531-5.335-5.41-7.029c-2.867-1.269-4.063-1.973-3.98-3.404c0.066-1.133,1.193-2.104,3.391-1.977
	c2.164,0.125,3.76,0.853,4.602,1.335l1.367-3.998c-1.295-0.71-3.1-1.315-5.664-1.463c-5.262-0.305-8.661,2.407-8.881,6.236
	c-0.189,3.265,2.156,5.473,5.809,7.021c2.645,1.088,3.664,1.949,3.584,3.347c-0.086,1.466-1.373,2.361-3.705,2.226
	c-2.166-0.125-4.256-0.947-5.548-1.723l-1.064,3.427c-9.801,0.45-19.095,2.875-27.489,6.892c-0.114-1.103-0.27-2.331-0.477-3.726
	L43.526-3.092l-4.763,2.555l1.992,8.016c0.252,0.964,0.584,2.148,0.833,3.036l-0.116,0.063c-0.588-0.669-1.465-1.6-2.143-2.295
	l-5.945-5.934l-4.968,2.665l11.779,9.848c-1.206,0.713-2.396,1.451-3.556,2.231l-9.483-2.517l0.13-8.815l-4.633,3.976l0.687,5.873
	c0.087,0.716,0.218,1.483,0.396,2.254l-0.051,0.043l-9.276-10.81l-3.849,3.302l14.287,16.648c-0.396,0.414-0.8,0.821-1.187,1.244
	c-0.256-1.034-0.86-1.928-1.76-2.635c-1.883-1.436-3.924-1.428-6.68,0.352c-1.787,1.142-2.493,1.393-3.123,0.898
	c-0.629-0.495-0.59-1.355,0.172-2.326c0.844-1.075,2.15-1.874,2.918-2.203l-2.219-2.845c-1.012,0.478-2.408,1.501-3.582,2.996
	c-2.494,3.174-2.291,6.643,0.123,8.538c1.5,1.221,3.746,1.331,6.74-0.644c1.652-1.078,2.275-1.224,2.958-0.688
	c0.655,0.515,0.657,1.322-0.29,2.529c-0.927,1.181-2.621,2.311-3.643,2.695l1.586,2.044c-0.764,1.148-1.488,2.324-2.186,3.518
	L4.514,29.199l-2.479,4.729l5.732,5.379c1.07,0.976,2.04,1.785,3.098,2.642l-0.047,0.088c-1.275-0.368-2.523-0.72-3.949-1.017
	l-7.731-1.567l-2.556,4.876l15.033,2.024c-0.895,1.917-1.715,3.875-2.441,5.878c-0.987-1.839-2.781-3.355-5.572-4.105
	c-4.768-1.281-8.951,1.049-10.242,5.849c-1.367,5.09,0.985,9.315,6.107,10.692c2.54,0.682,4.804,0.344,6.588-0.738
	c-0.194,1.087-0.363,2.181-0.507,3.284l-21.503-2.04l-0.479,5.048L5.06,72.261c-0.038,0.647-0.059,1.299-0.08,1.951
	c-0.863-0.611-1.896-0.898-3.031-0.852c-2.365,0.131-3.912,1.463-4.852,4.606c-0.617,2.029-0.99,2.68-1.791,2.711
	c-0.8,0.033-1.328-0.646-1.38-1.879c-0.056-1.366,0.419-2.822,0.788-3.571l-3.535-0.723c-0.459,1.021-0.857,2.706-0.779,4.606
	c0.166,4.032,2.573,6.537,5.64,6.411c1.935-0.046,3.714-1.421,4.708-4.867c0.557-1.893,0.936-2.409,1.801-2.444
	c0.834-0.035,1.36,0.578,1.424,2.111c0.062,1.5-0.492,3.458-1.021,4.415l2.52,0.521c0.104,0.857,0.212,1.714,0.347,2.563
	c-1.751-1.122-4.047-1.574-6.842-0.884c-4.793,1.186-7.327,5.249-6.134,10.075c1.265,5.115,5.369,7.676,10.519,6.402
	c2.542-0.629,4.354-2.012,5.394-3.811c1.345,3.941,3.011,7.733,4.991,11.333l-5.34,2.687c-0.121-0.461-0.361-1.013-0.66-1.609
	c-1.35-2.682-3.189-4.631-5.4-5.461c-1.717-0.667-3.729-0.438-5.696,0.551s-3.216,2.664-3.569,4.484
	c-0.398,1.881,0.07,4.146,1.479,6.948c1.394,2.772,2.563,4.648,3.505,5.929l18.283-9.197c12.762,19.762,34.964,32.882,60.188,32.882
	c24.589,0,46.318-12.46,59.219-31.395l1.725,0.979c0.146-0.454,0.285-0.76,0.637-1.366c0.752-1.299,1.783-1.28,3.486-0.293
	l5.109,2.958l-1.822,3.147l3.232,1.872l1.822-3.146l3.811,2.206l1.307-4.986l-2.625-1.521l1.086-1.876l-3.232-1.873l-1.088,1.877
	l-5.773-3.345c-1.402-0.813-2.603-1.234-3.648-1.304c0.49-0.92,0.966-1.848,1.416-2.791c0.199,0.077,0.393,0.156,0.6,0.229
	l8.564,3.001c2.299,0.805,3.566,1.32,4.553,1.736l1.455-4.155l-1.803-0.809l0.023-0.063c1.566-0.334,2.943-1.337,3.682-3.445
	c1.334-3.811-0.699-8.094-5.674-9.837c-2.471-0.865-4.822-0.733-6.648,0.219c0.269-1.058,0.519-2.122,0.739-3.197l14.005,2.366
	l0.312-1.848l2.051,0.376c0.063,1.291,0.912,2.193,2.081,2.392c1.42,0.205,2.672-0.598,2.945-2.21
	C168.352,90.437,167.446,89.201,166.031,88.962z M154.17,73.281c2.402-0.001,4.904,0.932,4.904,3.335
	c0.002,2.303-2.467,3.237-4.869,3.238c-2.971,0.001-4.939-1.232-4.939-3.234C149.264,74.45,151.365,73.281,154.17,73.281z
	 M151.987,42.502c0.965,2.128-0.699,3.468-1.822,3.979l-2.482-5.471C148.953,40.58,151.104,40.557,151.987,42.502z M143.112,27.344
	c1.391,1.874,0.049,3.536-0.941,4.271l-3.58-4.82C139.74,26.106,141.838,25.63,143.112,27.344z M1.974,98.362
	c-2.332,0.576-4.984,0.27-5.562-2.062c-0.553-2.234,1.62-3.734,3.95-4.311c2.884-0.713,5.091,0.013,5.571,1.956
	C6.455,96.051,4.695,97.689,1.974,98.362z M6.299,57.626c-0.563,2.094-2.895,2.676-5.602,1.949
	c-2.318-0.623-4.492-2.175-3.869-4.494c0.598-2.223,3.224-2.484,5.543-1.861C5.238,53.99,6.818,55.694,6.299,57.626z
	 M-1.011,118.362c-0.254-0.283-0.628-0.879-1.078-1.772c-1.155-2.295-0.696-4.131,1.151-5.061c2.025-1.019,3.998-0.144,5.212,2.27
	c0.345,0.687,0.539,1.147,0.646,1.58L-1.011,118.362z M125.69,14.8c0.303-0.355,0.631-0.689,0.949-0.857
	c0.885-0.473,2.146-0.67,3.213,0.238c1.396,1.189,1.027,2.757-0.336,4.358l-4.527,5.32c-1.309-1.205-2.669-2.353-4.064-3.459
	L125.69,14.8z M109.862,4.714c0.166-0.328,0.391-0.698,0.646-0.907c0.75-0.667,1.887-1.064,3.076-0.461
	c1.697,0.86,1.688,2.502,0.723,4.407l-3.113,6.142c-1.553-0.863-3.144-1.663-4.764-2.411L109.862,4.714z M31.527,20.887
	c-1.039,0.842-2.061,1.704-3.051,2.602l-1.966-2.291l-0.08-2.041L31.527,20.887z M141.309,92.074
	c-0.008,0.032-0.015,0.065-0.022,0.098l0,0c-0.263,1.092-0.552,2.173-0.868,3.243c0.001,0,0.001-0.001,0.001-0.001
	c-0.001,0.002-0.002,0.005-0.002,0.007c-0.322,1.091-0.67,2.171-1.046,3.237c-0.001,0.005-0.002,0.01-0.004,0.014v-0.001
	c-0.718,2.038-1.531,4.029-2.437,5.971l0,0c-0.002,0.004-0.004,0.008-0.006,0.012c-0.296,0.636-0.605,1.264-0.921,1.888
	c-0.079,0.155-0.158,0.311-0.238,0.465c-0.983,1.908-2.056,3.762-3.212,5.557c-0.081,0.124-0.159,0.25-0.24,0.374
	c-0.371,0.567-0.75,1.128-1.138,1.683c-0.099,0.142-0.2,0.281-0.301,0.423c-1.198,1.688-2.473,3.317-3.819,4.885
	c-0.163,0.189-0.326,0.379-0.49,0.566c-0.412,0.469-0.828,0.934-1.253,1.39c-0.152,0.164-0.309,0.323-0.463,0.485
	c-0.785,0.828-1.592,1.635-2.418,2.422c-0.202,0.192-0.401,0.388-0.606,0.577c-0.414,0.384-0.835,0.76-1.258,1.134
	c-0.271,0.239-0.545,0.475-0.819,0.709c-0.413,0.354-0.826,0.706-1.248,1.049c-0.352,0.286-0.712,0.562-1.069,0.841
	c-0.644,0.5-1.295,0.99-1.956,1.468c-0.367,0.266-0.735,0.53-1.108,0.788c-0.394,0.272-0.79,0.541-1.19,0.805
	c-0.419,0.276-0.844,0.546-1.27,0.813c-0.359,0.226-0.715,0.456-1.078,0.675c-0.727,0.438-1.464,0.859-2.208,1.27
	c-0.35,0.193-0.705,0.377-1.059,0.563c-0.504,0.266-1.011,0.526-1.521,0.779c-0.354,0.175-0.708,0.35-1.065,0.519
	c-0.67,0.317-1.346,0.622-2.027,0.917c-0.298,0.129-0.596,0.257-0.896,0.381c-0.731,0.304-1.47,0.595-2.215,0.873
	c-0.324,0.122-0.651,0.237-0.978,0.354c-0.635,0.226-1.272,0.441-1.916,0.647c-0.294,0.095-0.586,0.193-0.882,0.283
	c-0.902,0.277-1.813,0.537-2.731,0.776c-0.216,0.056-0.434,0.104-0.65,0.157c-0.749,0.188-1.503,0.361-2.261,0.522
	c-0.306,0.064-0.611,0.127-0.919,0.188c-0.78,0.154-1.566,0.295-2.356,0.421c-0.201,0.032-0.399,0.07-0.601,0.101
	c-0.976,0.147-1.959,0.271-2.949,0.374c-0.259,0.027-0.52,0.048-0.779,0.072c-0.774,0.072-1.552,0.132-2.334,0.178
	c-0.291,0.017-0.583,0.035-0.875,0.049c-1.019,0.046-2.041,0.077-3.07,0.077c-36.79,0-66.614-29.824-66.614-66.614
	c0-1.027,0.031-2.047,0.078-3.063c0.01-0.216,0.019-0.431,0.03-0.646c0.054-0.986,0.127-1.966,0.224-2.94
	c0.017-0.169,0.038-0.337,0.056-0.506c0.095-0.891,0.208-1.777,0.338-2.658c0.023-0.158,0.043-0.318,0.067-0.476
	c0.148-0.955,0.32-1.902,0.508-2.843c0.043-0.217,0.089-0.434,0.135-0.65c0.2-0.95,0.413-1.896,0.653-2.83
	c0.015-0.06,0.033-0.118,0.048-0.177c0.231-0.889,0.484-1.77,0.75-2.644c0.066-0.215,0.13-0.431,0.198-0.646
	c0.279-0.884,0.574-1.76,0.889-2.627c0.071-0.197,0.147-0.391,0.22-0.587c0.285-0.763,0.583-1.521,0.896-2.271
	c0.071-0.17,0.138-0.343,0.21-0.512c0.355-0.834,0.73-1.659,1.119-2.475c0.111-0.234,0.225-0.467,0.339-0.7
	c0.398-0.812,0.806-1.618,1.235-2.411c0.074-0.137,0.153-0.271,0.228-0.407c0.381-0.693,0.776-1.378,1.182-2.056
	c0.138-0.231,0.275-0.463,0.416-0.692c0.454-0.739,0.921-1.468,1.402-2.188c0.151-0.226,0.307-0.448,0.461-0.672
	c0.407-0.592,0.823-1.178,1.249-1.757c0.141-0.192,0.278-0.386,0.421-0.577c0.512-0.68,1.04-1.347,1.577-2.006
	c0.198-0.243,0.398-0.484,0.599-0.725c0.535-0.639,1.078-1.271,1.636-1.889c0.174-0.192,0.354-0.38,0.529-0.57
	c0.462-0.5,0.933-0.993,1.41-1.479c0.224-0.228,0.445-0.455,0.672-0.679c0.585-0.579,1.18-1.146,1.786-1.703
	c0.239-0.22,0.483-0.435,0.725-0.651c0.487-0.435,0.981-0.862,1.481-1.283c0.23-0.193,0.457-0.39,0.69-0.58
	c0.619-0.507,1.25-1,1.888-1.484c0.275-0.209,0.552-0.416,0.831-0.621c0.661-0.486,1.328-0.965,2.007-1.427
	c2.168-1.476,4.435-2.815,6.777-4.032l0,0c0.002-0.001,0.003-0.001,0.005-0.002c1.104-0.573,2.225-1.115,3.364-1.627
	c0.069-0.031,0.138-0.063,0.207-0.093c1.679-0.748,3.393-1.43,5.142-2.04c0.269-0.094,0.54-0.184,0.811-0.274
	c0.796-0.266,1.598-0.519,2.408-0.755c0.413-0.121,0.827-0.24,1.243-0.353c0.44-0.119,0.879-0.239,1.323-0.349
	c0.752-0.188,1.511-0.362,2.273-0.524c0.356-0.076,0.714-0.146,1.073-0.215c0.746-0.146,1.495-0.281,2.25-0.402
	c0.264-0.042,0.528-0.083,0.793-0.122c0.831-0.123,1.667-0.227,2.507-0.318c0.241-0.026,0.48-0.054,0.722-0.078
	c0.946-0.093,1.898-0.165,2.856-0.217c0.204-0.011,0.408-0.019,0.612-0.028c1.017-0.046,2.037-0.078,3.064-0.078
	c36.79,0,66.614,29.824,66.614,66.614c0,1.013-0.03,2.019-0.076,3.02c-0.011,0.227-0.019,0.452-0.031,0.678
	c-0.05,0.887-0.116,1.768-0.201,2.645c-0.035,0.375-0.076,0.748-0.118,1.12c-0.065,0.575-0.139,1.148-0.219,1.719
	c-0.1,0.725-0.213,1.445-0.336,2.162c-0.05,0.29-0.101,0.578-0.154,0.866C141.806,89.865,141.572,90.975,141.309,92.074z
	 M143.324,102.756l-0.147-0.052c0.022-0.059,0.046-0.117,0.069-0.176c0.034,0.055,0.063,0.112,0.1,0.165L143.324,102.756z
	 M151.024,98.843c2.801,0.981,3.891,2.919,3.273,4.683c-0.463,1.321-1.635,1.937-3.016,1.842c-0.305-0.036-0.631-0.115-0.914-0.215
	l-2.268-0.793c-0.408-0.144-0.9-0.352-1.234-0.61c-0.992-0.701-1.469-1.964-1.027-3.224
	C146.533,98.542,148.725,98.037,151.024,98.843z"/>
</svg>
