<?xml version="1.0" encoding="utf-8"?>
<!-- Generator: Adobe Illustrator 16.0.0, SVG Export Plug-In . SVG Version: 6.00 Build 0)  -->
<!DOCTYPE svg PUBLIC "-//W3C//DTD SVG 1.1//EN" "http://www.w3.org/Graphics/SVG/1.1/DTD/svg11.dtd">
<svg version="1.1" id="Ebene_1" xmlns="http://www.w3.org/2000/svg" xmlns:xlink="http://www.w3.org/1999/xlink" x="0px" y="0px"
	 width="340.5px" height="113.39px" viewBox="0 0 340.5 113.39" enable-background="new 0 0 340.5 113.39" xml:space="preserve">
<path id="asd" d="M332.824,52.5c-2.2,0-4,1.987-4,4.417s-4.5,4.417-10.001,4.417h-71.211c-5.501,0-10.001-4.5-10.001-10V21.778
	c0-5.5-4.5-10-10.001-10H12.841c-4.815,0-8.864,3.45-9.798,8h17.798h140.104h58.666c5.501,0,10.001,4.5,10.001,10v16.889v40.149
	v17.989c4.551-0.056,12.237-2.687,17.416-4.539l80.381-28.747c5.179-1.853,9.416-6.89,9.416-11.193S335.024,52.5,332.824,52.5z
	 M300.346,72.701L247.027,91.77c-5.179,1.853-9.416-1.132-9.416-6.633v-5.803c0-5.501,4.5-10.001,10.001-10.001h52.149
	C305.263,69.333,305.525,70.849,300.346,72.701z"/>
</svg>
