solid LCD Mount
facet normal 0.7071067808688261 -0.707106781492333 -4.108567455803115e-06
  outer loop
    vertex 24.471558740567627 31.783668181676923 0.0003395679537960412
    vertex 24.470841021028672 31.782921404369713 5.00133946074299
    vertex 20.93531818752473 28.247427637769118 -0.0006959875833644048
  endloop
endfacet
facet normal 0.7071067808688261 -0.707106781492333 -4.108567455803115e-06
  outer loop
    vertex 20.934600324480943 28.246680711147214 5.001303832705135
    vertex 20.93531818752473 28.247427637769118 -0.0006959875833644048
    vertex 24.470841021028672 31.782921404369713 5.00133946074299
  endloop
endfacet
facet normal -0.7071067669402661 -0.7071067651135979 -0.00020706971623838717
  outer loop
    vertex 24.470841021028672 31.782921404369713 5.00133946074299
    vertex 24.471558740567627 31.783668181676923 0.0003395679537960412
    vertex 35.076735678530724 21.177026737515575 5.001277836339421
  endloop
endfacet
facet normal -0.7071067669402661 -0.7071067651135979 -0.00020706971623838717
  outer loop
    vertex 35.077453398069686 21.17777351482273 0.00027794355022682575
    vertex 35.076735678530724 21.177026737515575 5.001277836339421
    vertex 24.471558740567627 31.783668181676923 0.0003395679537960412
  endloop
endfacet
facet normal -0.7071067808688232 0.7071067814923359 4.108567452624127e-06
  outer loop
    vertex 20.228210999824434 36.02701592616185 0.0003642234668012527
    vertex 16.691970446781486 32.490775382254064 -0.0006713320703591823
    vertex 20.227493280285476 36.026269148854674 5.001364116255999
  endloop
endfacet
facet normal -0.7071067808688232 0.7071067814923359 4.108567452624127e-06
  outer loop
    vertex 16.691252583737725 32.49002845563216 5.001328488218146
    vertex 20.227493280285476 36.026269148854674 5.001364116255999
    vertex 16.691970446781486 32.490775382254064 -0.0006713320703591823
  endloop
endfacet
facet normal 0.7071067808688214 -0.7071067814923377 -4.1085674535892515e-06
  outer loop
    vertex 39.32080147598771 16.934425433163 0.0002532880352624949
    vertex 39.32008375644876 16.933678655855843 5.001253180824458
    vertex 35.78456092294481 13.398184889255244 -0.0007822675018979512
  endloop
endfacet
facet normal 0.7071067808688214 -0.7071067814923377 -4.1085674535892515e-06
  outer loop
    vertex 35.783843059901024 13.397437962633303 5.001217552786605
    vertex 35.78456092294481 13.398184889255244 -0.0007822675018979512
    vertex 39.32008375644876 16.933678655855843 5.001253180824458
  endloop
endfacet
facet normal -0.7071067669402675 -0.7071067651135965 -0.0002070697162400838
  outer loop
    vertex 31.54049498198298 17.640786044293044 5.001242208301562
    vertex 31.541212845026763 17.641532970914998 -0.0007576119869336133
    vertex 35.783843059901024 13.397437962633303 5.001217552786605
  endloop
endfacet
facet normal -0.7071067669402675 -0.7071067651135965 -0.0002070697162400838
  outer loop
    vertex 35.78456092294481 13.398184889255244 -0.0007822675018979512
    vertex 35.783843059901024 13.397437962633303 5.001217552786605
    vertex 31.541212845026763 17.641532970914998 -0.0007576119869336133
  endloop
endfacet
facet normal -0.7068133694574513 -0.7074000407260492 -0.00020769445904276527
  outer loop
    vertex 39.32008375644876 16.933678655855843 5.001253180824458
    vertex 39.32080147598771 16.934425433163 0.0002532880352624949
    vertex 56.26857443535653 -0.0007604186630358777 5.001114029428003
  endloop
endfacet
facet normal -0.7068133694574513 -0.7074000407260492 -0.00020769445904276527
  outer loop
    vertex 56.26928731185912 2.8199664825478975e-15 0.00013845503401006655
    vertex 56.26857443535653 -0.0007604186630358777 5.001114029428003
    vertex 39.32080147598771 16.934425433163 0.0002532880352624949
  endloop
endfacet
facet normal -0.7071067808688171 0.707106781492342 4.108567454618032e-06
  outer loop
    vertex 35.077453398069686 21.17777351482273 0.00027794355022682575
    vertex 31.541212845026763 17.641532970914998 -0.0007576119869336133
    vertex 35.076735678530724 21.177026737515575 5.001277836339421
  endloop
endfacet
facet normal -0.7071067808688171 0.707106781492342 4.108567454618032e-06
  outer loop
    vertex 31.54049498198298 17.640786044293044 5.001242208301562
    vertex 35.076735678530724 21.177026737515575 5.001277836339421
    vertex 31.541212845026763 17.641532970914998 -0.0007576119869336133
  endloop
endfacet
facet normal -0.7071067669402676 -0.7071067651135965 -0.0002070697162343587
  outer loop
    vertex 16.691252583737725 32.49002845563216 5.001328488218146
    vertex 16.691970446781486 32.490775382254064 -0.0006713320703591823
    vertex 20.934600324480943 28.246680711147214 5.001303832705135
  endloop
endfacet
facet normal -0.7071067669402676 -0.7071067651135965 -0.0002070697162343587
  outer loop
    vertex 20.93531818752473 28.247427637769118 -0.0006959875833644048
    vertex 20.934600324480943 28.246680711147214 5.001303832705135
    vertex 16.691970446781486 32.490775382254064 -0.0006713320703591823
  endloop
endfacet
facet normal 0.7682212651118576 0.6401843832746705 0.00020794510536778938
  outer loop
    vertex 27.24149343449815 74.33743080326836 0.007152254993317022
    vertex 22.24149341536071 80.33743078161407 0.007414226848780405
    vertex 27.24079670038264 74.33664253365153 5.007913683321907
  endloop
endfacet
facet normal 0.7682212651118576 0.6401843832746705 0.00020794510536778938
  outer loop
    vertex 22.24079668124522 80.33664251199733 5.008175655177374
    vertex 27.24079670038264 74.33664253365153 5.007913683321907
    vertex 22.24149341536071 80.33743078161407 0.007414226848780405
  endloop
endfacet
facet normal -0.9999999901216707 -5.400637301933256e-07 -0.00014055734418764372
  outer loop
    vertex 0.00028901881544227175 56.254938068126634 8.804990946656757e-06
    vertex -0.00042874290635673784 56.25419124840144 5.001301631515784
    vertex 0.00026795952560224533 77.33743705792126 0.0033804359671705145
  endloop
endfacet
facet normal -0.9999999901216707 -5.400637301933256e-07 -0.00014055734418764372
  outer loop
    vertex -0.0004289707292050516 77.33664279445732 5.004597650675589
    vertex 0.00026795952560224533 77.33743705792126 0.0033804359671705145
    vertex -0.00042874290635673784 56.25419124840144 5.001301631515784
  endloop
endfacet
facet normal 0.9999999882377956 -1.3157368321884208e-08 0.00015337668912997036
  outer loop
    vertex 6.000337931748393 74.33741699858841 0.0046525081982035105
    vertex 5.999571006118907 74.33664276823309 5.004945323186131
    vertex 6.000338097499674 58.73741718612635 0.002233586370947241
  endloop
endfacet
facet normal 0.9999999882377956 -1.3157368321884208e-08 0.00015337668912997036
  outer loop
    vertex 5.9995711718701905 58.736642955770876 5.002526401358878
    vertex 6.000338097499674 58.73741718612635 0.002233586370947241
    vertex 5.999571006118907 74.33664276823309 5.004945323186131
  endloop
endfacet
facet normal -0.5774786460303778 0.816405788171417 4.9184643658819164e-05
  outer loop
    vertex -0.0004289707292050516 77.33664279445732 5.004597650675589
    vertex 4.240796854040037 80.33664270745888 5.005681497531118
    vertex 0.00026795952560224533 77.33743705792126 0.0033804359671705145
  endloop
endfacet
facet normal -0.5774786460303778 0.816405788171417 4.9184643658819164e-05
  outer loop
    vertex 4.2414937842948355 80.33743697092275 0.0044642828226963225
    vertex 0.00026795952560224533 77.33743705792126 0.0033804359671705145
    vertex 4.240796854040037 80.33664270745888 5.005681497531118
  endloop
endfacet
facet normal 0.768221268269669 -0.6401844132015218 8.48321806436184e-06
  outer loop
    vertex 22.241498272012024 52.73741779212924 0.003863223234290756
    vertex 27.241498159080372 58.73741746288712 0.005494870698263327
    vertex 22.24079697906559 52.73664249667198 5.003863113944813
  endloop
endfacet
facet normal 0.768221268269669 -0.6401844132015218 8.48321806436184e-06
  outer loop
    vertex 27.24079686613393 58.73664216742992 5.005494761408788
    vertex 22.24079697906559 52.73664249667198 5.003863113944813
    vertex 27.241498159080372 58.73741746288712 0.005494870698263327
  endloop
endfacet
facet normal -0.7071067670313592 -0.7071067650225292 -0.00020706963266950898
  outer loop
    vertex 0.00028901881544227175 56.254938068126634 8.804990946656757e-06
    vertex 20.228210999824434 36.02701592616185 0.0003642234668012527
    vertex -0.00042874290635673784 56.25419124840144 5.001301631515784
  endloop
endfacet
facet normal -0.7071067670313592 -0.7071067650225292 -0.00020706963266950898
  outer loop
    vertex 20.227493280285476 36.026269148854674 5.001364116255999
    vertex -0.00042874290635673784 56.25419124840144 5.001301631515784
    vertex 20.228210999824434 36.02701592616185 0.0003642234668012527
  endloop
endfacet
facet normal 0.7069946256560241 0.7072188876810742 0.00021023948906676514
  outer loop
    vertex 11.99957208123935 52.73664205359708 5.002448421497196
    vertex 56.26857434885906 8.481691285736634 5.002404993650473
    vertex 12.000281608774916 52.737432855057655 0.002053383630412932
  endloop
endfacet
facet normal 0.7069946256560241 0.7072188876810742 0.00021023948906676514
  outer loop
    vertex 56.269287228800536 8.482451708233691 0.0014051022088025073
    vertex 12.000281608774916 52.737432855057655 0.002053383630412932
    vertex 56.26857434885906 8.481691285736634 5.002404993650473
  endloop
endfacet
facet normal 0.9999999898401077 -1.1495791079947839e-08 0.0001425474814382435
  outer loop
    vertex 56.269287228800536 8.482451708233691 0.0014051022088025073
    vertex 56.26857434885906 8.481691285736634 5.002404993650473
    vertex 56.26928731185912 2.8199664825478975e-15 0.00013845503401006655
  endloop
endfacet
facet normal 0.9999999898401077 -1.1495791079947839e-08 0.0001425474814382435
  outer loop
    vertex 56.26857443535653 -0.0007604186630358777 5.001114029428003
    vertex 56.26928731185912 2.8199664825478975e-15 0.00013845503401006655
    vertex 56.26857434885906 8.481691285736634 5.002404993650473
  endloop
endfacet
facet normal -1.0679467488569776e-08 0.9999999879955525 0.00015494803916874151
  outer loop
    vertex 5.9995711718701905 58.736642955770876 5.002526401358878
    vertex 27.24079686613393 58.73664216742992 5.005494761408788
    vertex 6.000338097499674 58.73741718612635 0.002233586370947241
  endloop
endfacet
facet normal -1.0679467488569776e-08 0.9999999879955525 0.00015494803916874151
  outer loop
    vertex 27.241498159080372 58.73741746288712 0.005494870698263327
    vertex 6.000338097499674 58.73741718612635 0.002233586370947241
    vertex 27.24079686613393 58.73664216742992 5.005494761408788
  endloop
endfacet
facet normal 3.395378607997485e-07 -0.9999999877954828 -0.0001562335402367577
  outer loop
    vertex 5.999571006118907 74.33664276823309 5.004945323186131
    vertex 6.000337931748393 74.33741699858841 0.0046525081982035105
    vertex 27.24079670038264 74.33664253365153 5.007913683321907
  endloop
endfacet
facet normal 3.395378607997485e-07 -0.9999999877954828 -0.0001562335402367577
  outer loop
    vertex 27.24149343449815 74.33743080326836 0.007152254993317022
    vertex 27.24079670038264 74.33664253365153 5.007913683321907
    vertex 6.000337931748393 74.33741699858841 0.0046525081982035105
  endloop
endfacet
facet normal 1.5342759146118688e-07 0.9999999874828801 0.00015822204795534078
  outer loop
    vertex 4.240796854040037 80.33664270745888 5.005681497531118
    vertex 22.24079668124522 80.33664251199733 5.008175655177374
    vertex 4.2414937842948355 80.33743697092275 0.0044642828226963225
  endloop
endfacet
facet normal 1.5342759146118688e-07 0.9999999874828801 0.00015822204795534078
  outer loop
    vertex 22.24149341536071 80.33743078161407 0.007414226848780405
    vertex 4.2414937842948355 80.33743697092275 0.0044642828226963225
    vertex 22.24079668124522 80.33664251199733 5.008175655177374
  endloop
endfacet
facet normal -6.891206586782986e-07 -0.9999999877374088 -0.00015660366338343939
  outer loop
    vertex 11.99957208123935 52.73664205359708 5.002448421497196
    vertex 12.000281608774916 52.737432855057655 0.002053383630412932
    vertex 22.24079697906559 52.73664249667198 5.003863113944813
  endloop
endfacet
facet normal -6.891206586782986e-07 -0.9999999877374088 -0.00015660366338343939
  outer loop
    vertex 22.241498272012024 52.73741779212924 0.003863223234290756
    vertex 22.24079697906559 52.73664249667198 5.003863113944813
    vertex 12.000281608774916 52.737432855057655 0.002053383630412932
  endloop
endfacet
facet normal -0.00012818027578369588 -0.00013364946082313972 0.9999999828538192
  outer loop
    vertex 35.783843059901024 13.397437962633303 5.001217552786605
    vertex 39.32008375644876 16.933678655855843 5.001253180824458
    vertex 31.54049498198298 17.640786044293044 5.001242208301562
  endloop
endfacet
facet normal -0.00012818027578369588 -0.00013364946082313972 0.9999999828538192
  outer loop
    vertex 20.934600324480943 28.246680711147214 5.001303832705135
    vertex 24.470841021028672 31.782921404369713 5.00133946074299
    vertex 16.691252583737725 32.49002845563216 5.001328488218146
  endloop
endfacet
facet normal -0.00012818027578369588 -0.00013364946082313972 0.9999999828538192
  outer loop
    vertex 56.26857443535653 -0.0007604186630358777 5.001114029428003
    vertex 56.26857434885906 8.481691285736634 5.002404993650473
    vertex 39.32008375644876 16.933678655855843 5.001253180824458
  endloop
endfacet
facet normal -0.00012818027578369588 -0.00013364946082313972 0.9999999828538192
  outer loop
    vertex 11.99957208123935 52.73664205359708 5.002448421497196
    vertex 39.32008375644876 16.933678655855843 5.001253180824458
    vertex 56.26857434885906 8.481691285736634 5.002404993650473
  endloop
endfacet
facet normal -0.00012818027578369588 -0.00013364946082313972 0.9999999828538192
  outer loop
    vertex 35.076735678530724 21.177026737515575 5.001277836339421
    vertex 39.32008375644876 16.933678655855843 5.001253180824458
    vertex 11.99957208123935 52.73664205359708 5.002448421497196
  endloop
endfacet
facet normal -0.00012818027578369588 -0.00013364946082313972 0.9999999828538192
  outer loop
    vertex 31.54049498198298 17.640786044293044 5.001242208301562
    vertex 39.32008375644876 16.933678655855843 5.001253180824458
    vertex 35.076735678530724 21.177026737515575 5.001277836339421
  endloop
endfacet
facet normal -0.00012818027578369588 -0.00013364946082313972 0.9999999828538192
  outer loop
    vertex 24.470841021028672 31.782921404369713 5.00133946074299
    vertex 35.076735678530724 21.177026737515575 5.001277836339421
    vertex 11.99957208123935 52.73664205359708 5.002448421497196
  endloop
endfacet
facet normal -0.00012818027578369588 -0.00013364946082313972 0.9999999828538192
  outer loop
    vertex 20.227493280285476 36.026269148854674 5.001364116255999
    vertex 24.470841021028672 31.782921404369713 5.00133946074299
    vertex 11.99957208123935 52.73664205359708 5.002448421497196
  endloop
endfacet
facet normal -0.00012818027578369588 -0.00013364946082313972 0.9999999828538192
  outer loop
    vertex 16.691252583737725 32.49002845563216 5.001328488218146
    vertex 24.470841021028672 31.782921404369713 5.00133946074299
    vertex 20.227493280285476 36.026269148854674 5.001364116255999
  endloop
endfacet
facet normal -0.00012818027578369588 -0.00013364946082313972 0.9999999828538192
  outer loop
    vertex -0.00042874290635673784 56.25419124840144 5.001301631515784
    vertex 20.227493280285476 36.026269148854674 5.001364116255999
    vertex 11.99957208123935 52.73664205359708 5.002448421497196
  endloop
endfacet
facet normal -0.00012818027578369588 -0.00013364946082313972 0.9999999828538192
  outer loop
    vertex 22.24079697906559 52.73664249667198 5.003863113944813
    vertex -0.00042874290635673784 56.25419124840144 5.001301631515784
    vertex 11.99957208123935 52.73664205359708 5.002448421497196
  endloop
endfacet
facet normal -0.00012818027578369588 -0.00013364946082313972 0.9999999828538192
  outer loop
    vertex 27.24079686613393 58.73664216742992 5.005494761408788
    vertex -0.00042874290635673784 56.25419124840144 5.001301631515784
    vertex 22.24079697906559 52.73664249667198 5.003863113944813
  endloop
endfacet
facet normal -0.00012818027578369588 -0.00013364946082313972 0.9999999828538192
  outer loop
    vertex 5.9995711718701905 58.736642955770876 5.002526401358878
    vertex -0.00042874290635673784 56.25419124840144 5.001301631515784
    vertex 27.24079686613393 58.73664216742992 5.005494761408788
  endloop
endfacet
facet normal -0.00012818027578369588 -0.00013364946082313972 0.9999999828538192
  outer loop
    vertex -0.0004289707292050516 77.33664279445732 5.004597650675589
    vertex -0.00042874290635673784 56.25419124840144 5.001301631515784
    vertex 5.9995711718701905 58.736642955770876 5.002526401358878
  endloop
endfacet
facet normal -0.00012818027578369588 -0.00013364946082313972 0.9999999828538192
  outer loop
    vertex 5.999571006118907 74.33664276823309 5.004945323186131
    vertex -0.0004289707292050516 77.33664279445732 5.004597650675589
    vertex 5.9995711718701905 58.736642955770876 5.002526401358878
  endloop
endfacet
facet normal -0.00012818027578369588 -0.00013364946082313972 0.9999999828538192
  outer loop
    vertex 27.24079670038264 74.33664253365153 5.007913683321907
    vertex 22.24079668124522 80.33664251199733 5.008175655177374
    vertex 5.999571006118907 74.33664276823309 5.004945323186131
  endloop
endfacet
facet normal -0.00012818027578369588 -0.00013364946082313972 0.9999999828538192
  outer loop
    vertex -0.0004289707292050516 77.33664279445732 5.004597650675589
    vertex 5.999571006118907 74.33664276823309 5.004945323186131
    vertex 22.24079668124522 80.33664251199733 5.008175655177374
  endloop
endfacet
facet normal -0.00012818027578369588 -0.00013364946082313972 0.9999999828538192
  outer loop
    vertex 4.240796854040037 80.33664270745888 5.005681497531118
    vertex -0.0004289707292050516 77.33664279445732 5.004597650675589
    vertex 22.24079668124522 80.33664251199733 5.008175655177374
  endloop
endfacet
facet normal 0.00015093505051784264 0.00015551512702599013 -0.9999999765168277
  outer loop
    vertex 56.26928731185912 2.8199664825478975e-15 0.00013845503401006655
    vertex 39.32080147598771 16.934425433163 0.0002532880352624949
    vertex 56.269287228800536 8.482451708233691 0.0014051022088025073
  endloop
endfacet
facet normal 0.00015093505051784264 0.00015551512702599013 -0.9999999765168277
  outer loop
    vertex 12.000281608774916 52.737432855057655 0.002053383630412932
    vertex 56.269287228800536 8.482451708233691 0.0014051022088025073
    vertex 39.32080147598771 16.934425433163 0.0002532880352624949
  endloop
endfacet
facet normal 0.00015093505051784264 0.00015551512702599013 -0.9999999765168277
  outer loop
    vertex 35.077453398069686 21.17777351482273 0.00027794355022682575
    vertex 12.000281608774916 52.737432855057655 0.002053383630412932
    vertex 39.32080147598771 16.934425433163 0.0002532880352624949
  endloop
endfacet
facet normal 0.00015093505051784264 0.00015551512702599013 -0.9999999765168277
  outer loop
    vertex 31.541212845026763 17.641532970914998 -0.0007576119869336133
    vertex 35.077453398069686 21.17777351482273 0.00027794355022682575
    vertex 39.32080147598771 16.934425433163 0.0002532880352624949
  endloop
endfacet
facet normal 0.00015093505051784264 0.00015551512702599013 -0.9999999765168277
  outer loop
    vertex 24.471558740567627 31.783668181676923 0.0003395679537960412
    vertex 12.000281608774916 52.737432855057655 0.002053383630412932
    vertex 35.077453398069686 21.17777351482273 0.00027794355022682575
  endloop
endfacet
facet normal 0.00015093505051784264 0.00015551512702599013 -0.9999999765168277
  outer loop
    vertex 20.228210999824434 36.02701592616185 0.0003642234668012527
    vertex 12.000281608774916 52.737432855057655 0.002053383630412932
    vertex 24.471558740567627 31.783668181676923 0.0003395679537960412
  endloop
endfacet
facet normal 0.00015093505051784264 0.00015551512702599013 -0.9999999765168277
  outer loop
    vertex 16.691970446781486 32.490775382254064 -0.0006713320703591823
    vertex 20.228210999824434 36.02701592616185 0.0003642234668012527
    vertex 24.471558740567627 31.783668181676923 0.0003395679537960412
  endloop
endfacet
facet normal 0.00015093505051784264 0.00015551512702599013 -0.9999999765168277
  outer loop
    vertex 0.00028901881544227175 56.254938068126634 8.804990946656757e-06
    vertex 12.000281608774916 52.737432855057655 0.002053383630412932
    vertex 20.228210999824434 36.02701592616185 0.0003642234668012527
  endloop
endfacet
facet normal 0.00015093505051784264 0.00015551512702599013 -0.9999999765168277
  outer loop
    vertex 24.471558740567627 31.783668181676923 0.0003395679537960412
    vertex 20.93531818752473 28.247427637769118 -0.0006959875833644048
    vertex 16.691970446781486 32.490775382254064 -0.0006713320703591823
  endloop
endfacet
facet normal 0.00015093505051784264 0.00015551512702599013 -0.9999999765168277
  outer loop
    vertex 39.32080147598771 16.934425433163 0.0002532880352624949
    vertex 35.78456092294481 13.398184889255244 -0.0007822675018979512
    vertex 31.541212845026763 17.641532970914998 -0.0007576119869336133
  endloop
endfacet
facet normal 0.00015093505051784264 0.00015551512702599013 -0.9999999765168277
  outer loop
    vertex 22.241498272012024 52.73741779212924 0.003863223234290756
    vertex 12.000281608774916 52.737432855057655 0.002053383630412932
    vertex 27.241498159080372 58.73741746288712 0.005494870698263327
  endloop
endfacet
facet normal 0.00015093505051784264 0.00015551512702599013 -0.9999999765168277
  outer loop
    vertex 0.00028901881544227175 56.254938068126634 8.804990946656757e-06
    vertex 27.241498159080372 58.73741746288712 0.005494870698263327
    vertex 12.000281608774916 52.737432855057655 0.002053383630412932
  endloop
endfacet
facet normal 0.00015093505051784264 0.00015551512702599013 -0.9999999765168277
  outer loop
    vertex 6.000338097499674 58.73741718612635 0.002233586370947241
    vertex 27.241498159080372 58.73741746288712 0.005494870698263327
    vertex 0.00028901881544227175 56.254938068126634 8.804990946656757e-06
  endloop
endfacet
facet normal 0.00015093505051784264 0.00015551512702599013 -0.9999999765168277
  outer loop
    vertex 0.00028901881544227175 56.254938068126634 8.804990946656757e-06
    vertex 0.00026795952560224533 77.33743705792126 0.0033804359671705145
    vertex 6.000338097499674 58.73741718612635 0.002233586370947241
  endloop
endfacet
facet normal 0.00015093505051784264 0.00015551512702599013 -0.9999999765168277
  outer loop
    vertex 6.000337931748393 74.33741699858841 0.0046525081982035105
    vertex 6.000338097499674 58.73741718612635 0.002233586370947241
    vertex 0.00026795952560224533 77.33743705792126 0.0033804359671705145
  endloop
endfacet
facet normal 0.00015093505051784264 0.00015551512702599013 -0.9999999765168277
  outer loop
    vertex 27.24149343449815 74.33743080326836 0.007152254993317022
    vertex 6.000337931748393 74.33741699858841 0.0046525081982035105
    vertex 0.00026795952560224533 77.33743705792126 0.0033804359671705145
  endloop
endfacet
facet normal 0.00015093505051784264 0.00015551512702599013 -0.9999999765168277
  outer loop
    vertex 22.24149341536071 80.33743078161407 0.007414226848780405
    vertex 27.24149343449815 74.33743080326836 0.007152254993317022
    vertex 0.00026795952560224533 77.33743705792126 0.0033804359671705145
  endloop
endfacet
facet normal 0.00015093505051784264 0.00015551512702599013 -0.9999999765168277
  outer loop
    vertex 4.2414937842948355 80.33743697092275 0.0044642828226963225
    vertex 22.24149341536071 80.33743078161407 0.007414226848780405
    vertex 0.00026795952560224533 77.33743705792126 0.0033804359671705145
  endloop
endfacet
endsolid LCD Mount
