solid Geeetech LCD spacer
facet normal 0.0 0.0 -1.0
  outer loop
    vertex -1.7699999999999991 3.0657299293969125 0.0
    vertex -1.7999999999999998 2.2043642384652356e-16 0.0
    vertex -2.503158005400378 2.503158005400378 0.0
  endloop
endfacet
facet normal 0.0 0.0 -1.0
  outer loop
    vertex -1.7999999999999998 2.2043642384652356e-16 0.0
    vertex -1.7699999999999991 3.0657299293969125 0.0
    vertex -1.7386664873203226 0.4658742811845378 0.0
  endloop
endfacet
facet normal 0.0 0.0 -1.0
  outer loop
    vertex -1.7386664873203226 0.4658742811845378 0.0
    vertex -1.7699999999999991 3.0657299293969125 0.0
    vertex -0.916219419662923 3.419377425063302 0.0
  endloop
endfacet
facet normal 0.0 0.0 -1.0
  outer loop
    vertex -1.7386664873203226 0.4658742811845378 0.0
    vertex -0.916219419662923 3.419377425063302 0.0
    vertex -1.5588457268119893 0.9000000000000005 0.0
  endloop
endfacet
facet normal 0.0 0.0 -1.0
  outer loop
    vertex -1.5588457268119893 0.9000000000000005 0.0
    vertex -0.916219419662923 3.419377425063302 0.0
    vertex -1.2727922061357853 1.2727922061357857 0.0
  endloop
endfacet
facet normal 0.0 0.0 -1.0
  outer loop
    vertex -1.2727922061357853 1.2727922061357857 0.0
    vertex -0.916219419662923 3.419377425063302 0.0
    vertex -0.8999999999999996 1.5588457268119895 0.0
  endloop
endfacet
facet normal 0.0 0.0 -1.0
  outer loop
    vertex -0.8999999999999996 1.5588457268119895 0.0
    vertex -0.916219419662923 3.419377425063302 0.0
    vertex 2.167624834490815e-16 3.5399999999999996 0.0
  endloop
endfacet
facet normal 0.0 0.0 -1.0
  outer loop
    vertex -0.8999999999999996 1.5588457268119895 0.0
    vertex 2.167624834490815e-16 3.5399999999999996 0.0
    vertex -0.46587428118453716 1.738666487320323 0.0
  endloop
endfacet
facet normal 0.0 0.0 -1.0
  outer loop
    vertex -0.46587428118453716 1.738666487320323 0.0
    vertex 2.167624834490815e-16 3.5399999999999996 0.0
    vertex 1.1021821192326178e-16 1.7999999999999998 0.0
  endloop
endfacet
facet normal 0.0 0.0 -1.0
  outer loop
    vertex 1.1021821192326178e-16 1.7999999999999998 0.0
    vertex 2.167624834490815e-16 3.5399999999999996 0.0
    vertex 0.46587428118453766 1.7386664873203226 0.0
  endloop
endfacet
facet normal 0.0 0.0 -1.0
  outer loop
    vertex 0.46587428118453766 1.7386664873203226 0.0
    vertex 2.167624834490815e-16 3.5399999999999996 0.0
    vertex 0.9162194196629242 3.419377425063301 0.0
  endloop
endfacet
facet normal 0.0 0.0 -1.0
  outer loop
    vertex 0.46587428118453766 1.7386664873203226 0.0
    vertex 0.9162194196629242 3.419377425063301 0.0
    vertex 0.9000000000000001 1.5588457268119895 0.0
  endloop
endfacet
facet normal 0.0 0.0 -1.0
  outer loop
    vertex 0.9000000000000001 1.5588457268119895 0.0
    vertex 0.9162194196629242 3.419377425063301 0.0
    vertex 1.2727922061357857 1.2727922061357857 0.0
  endloop
endfacet
facet normal 0.0 0.0 -1.0
  outer loop
    vertex 1.2727922061357857 1.2727922061357857 0.0
    vertex 0.9162194196629242 3.419377425063301 0.0
    vertex 1.7700000000000002 3.065729929396912 0.0
  endloop
endfacet
facet normal 0.0 0.0 -1.0
  outer loop
    vertex 1.2727922061357857 1.2727922061357857 0.0
    vertex 1.7700000000000002 3.065729929396912 0.0
    vertex 1.5588457268119895 0.8999999999999998 0.0
  endloop
endfacet
facet normal 0.0 0.0 -1.0
  outer loop
    vertex 1.5588457268119895 0.8999999999999998 0.0
    vertex 1.7700000000000002 3.065729929396912 0.0
    vertex 1.738666487320323 0.46587428118453733 0.0
  endloop
endfacet
facet normal 0.0 0.0 -1.0
  outer loop
    vertex 1.738666487320323 0.46587428118453733 0.0
    vertex 1.7700000000000002 3.065729929396912 0.0
    vertex 1.7999999999999998 0.0 0.0
  endloop
endfacet
facet normal 0.0 0.0 -1.0
  outer loop
    vertex 1.7999999999999998 0.0 0.0
    vertex 1.7700000000000002 3.065729929396912 0.0
    vertex 2.503158005400378 2.503158005400378 0.0
  endloop
endfacet
facet normal 0.0 0.0 -1.0
  outer loop
    vertex 1.7999999999999998 0.0 0.0
    vertex 2.503158005400378 2.503158005400378 0.0
    vertex 2.5031580054003775 -2.5031580054003784 0.0
  endloop
endfacet
facet normal 0.0 0.0 -1.0
  outer loop
    vertex 2.5031580054003775 -2.5031580054003784 0.0
    vertex 2.503158005400378 2.503158005400378 0.0
    vertex 3.0657299293969116 -1.7700000000000011 0.0
  endloop
endfacet
facet normal 0.0 0.0 -1.0
  outer loop
    vertex 3.0657299293969116 -1.7700000000000011 0.0
    vertex 2.503158005400378 2.503158005400378 0.0
    vertex 3.0657299293969125 1.7699999999999994 0.0
  endloop
endfacet
facet normal 0.0 0.0 -1.0
  outer loop
    vertex 3.0657299293969116 -1.7700000000000011 0.0
    vertex 3.0657299293969125 1.7699999999999994 0.0
    vertex 3.4193774250633004 -0.9162194196629263 0.0
  endloop
endfacet
facet normal 0.0 0.0 -1.0
  outer loop
    vertex 3.4193774250633004 -0.9162194196629263 0.0
    vertex 3.0657299293969125 1.7699999999999994 0.0
    vertex 3.419377425063302 0.9162194196629233 0.0
  endloop
endfacet
facet normal 0.0 0.0 -1.0
  outer loop
    vertex 3.4193774250633004 -0.9162194196629263 0.0
    vertex 3.419377425063302 0.9162194196629233 0.0
    vertex 3.5399999999999996 0.0 0.0
  endloop
endfacet
facet normal 0.0 0.0 -1.0
  outer loop
    vertex -3.419377425063301 0.9162194196629243 0.0
    vertex -3.419377425063302 -0.9162194196629219 0.0
    vertex -3.5399999999999996 4.33524966898163e-16 0.0
  endloop
endfacet
facet normal 0.0 0.0 -1.0
  outer loop
    vertex -3.419377425063302 -0.9162194196629219 0.0
    vertex -3.419377425063301 0.9162194196629243 0.0
    vertex -3.0657299293969134 -1.7699999999999987 0.0
  endloop
endfacet
facet normal 0.0 0.0 -1.0
  outer loop
    vertex -3.0657299293969134 -1.7699999999999987 0.0
    vertex -3.419377425063301 0.9162194196629243 0.0
    vertex -3.065729929396912 1.770000000000001 0.0
  endloop
endfacet
facet normal 0.0 0.0 -1.0
  outer loop
    vertex -3.0657299293969134 -1.7699999999999987 0.0
    vertex -3.065729929396912 1.770000000000001 0.0
    vertex -2.5031580054003792 -2.5031580054003766 0.0
  endloop
endfacet
facet normal 0.0 0.0 -1.0
  outer loop
    vertex -2.5031580054003792 -2.5031580054003766 0.0
    vertex -3.065729929396912 1.770000000000001 0.0
    vertex -2.503158005400378 2.503158005400378 0.0
  endloop
endfacet
facet normal 0.0 0.0 -1.0
  outer loop
    vertex -2.5031580054003792 -2.5031580054003766 0.0
    vertex -2.503158005400378 2.503158005400378 0.0
    vertex -1.7700000000000011 -3.065729929396912 0.0
  endloop
endfacet
facet normal 0.0 0.0 -1.0
  outer loop
    vertex -1.7700000000000011 -3.065729929396912 0.0
    vertex -2.503158005400378 2.503158005400378 0.0
    vertex -1.7999999999999998 2.2043642384652356e-16 0.0
  endloop
endfacet
facet normal 0.0 0.0 -1.0
  outer loop
    vertex -1.7700000000000011 -3.065729929396912 0.0
    vertex -1.7999999999999998 2.2043642384652356e-16 0.0
    vertex -1.738666487320323 -0.4658742811845366 0.0
  endloop
endfacet
facet normal 0.0 0.0 -1.0
  outer loop
    vertex -1.7700000000000011 -3.065729929396912 0.0
    vertex -1.738666487320323 -0.4658742811845366 0.0
    vertex -0.9162194196629261 -3.4193774250633004 0.0
  endloop
endfacet
facet normal 0.0 0.0 -1.0
  outer loop
    vertex -0.9162194196629261 -3.4193774250633004 0.0
    vertex -1.738666487320323 -0.4658742811845366 0.0
    vertex -1.5588457268119897 -0.8999999999999994 0.0
  endloop
endfacet
facet normal 0.0 0.0 -1.0
  outer loop
    vertex -0.9162194196629261 -3.4193774250633004 0.0
    vertex -1.5588457268119897 -0.8999999999999994 0.0
    vertex -1.2727922061357861 -1.2727922061357848 0.0
  endloop
endfacet
facet normal 0.0 0.0 -1.0
  outer loop
    vertex -0.9162194196629261 -3.4193774250633004 0.0
    vertex -1.2727922061357861 -1.2727922061357848 0.0
    vertex -0.9000000000000008 -1.5588457268119893 0.0
  endloop
endfacet
facet normal 0.0 0.0 -1.0
  outer loop
    vertex -0.9162194196629261 -3.4193774250633004 0.0
    vertex -0.9000000000000008 -1.5588457268119893 0.0
    vertex -6.502874503472445e-16 -3.5399999999999996 0.0
  endloop
endfacet
facet normal 0.0 0.0 -1.0
  outer loop
    vertex -6.502874503472445e-16 -3.5399999999999996 0.0
    vertex -0.9000000000000008 -1.5588457268119893 0.0
    vertex -0.4658742811845387 -1.7386664873203226 0.0
  endloop
endfacet
facet normal 0.0 0.0 -1.0
  outer loop
    vertex -6.502874503472445e-16 -3.5399999999999996 0.0
    vertex -0.4658742811845387 -1.7386664873203226 0.0
    vertex -3.306546357697853e-16 -1.7999999999999998 0.0
  endloop
endfacet
facet normal 0.0 0.0 -1.0
  outer loop
    vertex -6.502874503472445e-16 -3.5399999999999996 0.0
    vertex -3.306546357697853e-16 -1.7999999999999998 0.0
    vertex 0.9162194196629218 -3.419377425063302 0.0
  endloop
endfacet
facet normal 0.0 0.0 -1.0
  outer loop
    vertex 0.9162194196629218 -3.419377425063302 0.0
    vertex -3.306546357697853e-16 -1.7999999999999998 0.0
    vertex 0.4658742811845365 -1.738666487320323 0.0
  endloop
endfacet
facet normal 0.0 0.0 -1.0
  outer loop
    vertex 0.9162194196629218 -3.419377425063302 0.0
    vertex 0.4658742811845365 -1.738666487320323 0.0
    vertex 0.8999999999999987 -1.5588457268119902 0.0
  endloop
endfacet
facet normal 0.0 0.0 -1.0
  outer loop
    vertex 0.9162194196629218 -3.419377425063302 0.0
    vertex 0.8999999999999987 -1.5588457268119902 0.0
    vertex 1.272792206135785 -1.2727922061357857 0.0
  endloop
endfacet
facet normal 0.0 0.0 -1.0
  outer loop
    vertex 0.9162194196629218 -3.419377425063302 0.0
    vertex 1.272792206135785 -1.2727922061357857 0.0
    vertex 1.7699999999999974 -3.065729929396914 0.0
  endloop
endfacet
facet normal 0.0 0.0 -1.0
  outer loop
    vertex 1.7699999999999974 -3.065729929396914 0.0
    vertex 1.272792206135785 -1.2727922061357857 0.0
    vertex 1.5588457268119889 -0.9000000000000008 0.0
  endloop
endfacet
facet normal 0.0 0.0 -1.0
  outer loop
    vertex 1.7699999999999974 -3.065729929396914 0.0
    vertex 1.5588457268119889 -0.9000000000000008 0.0
    vertex 1.7386664873203226 -0.46587428118453883 0.0
  endloop
endfacet
facet normal 0.0 0.0 -1.0
  outer loop
    vertex 1.7699999999999974 -3.065729929396914 0.0
    vertex 1.7386664873203226 -0.46587428118453883 0.0
    vertex 1.7999999999999998 0.0 0.0
  endloop
endfacet
facet normal 0.0 0.0 -1.0
  outer loop
    vertex 1.7699999999999974 -3.065729929396914 0.0
    vertex 1.7999999999999998 0.0 0.0
    vertex 2.5031580054003775 -2.5031580054003784 0.0
  endloop
endfacet
facet normal -0.0 -0.0 1.0
  outer loop
    vertex -3.419377425063302 -0.9162194196629219 5.0
    vertex -3.419377425063301 0.9162194196629243 5.0
    vertex -3.5399999999999996 4.33524966898163e-16 5.0
  endloop
endfacet
facet normal -0.0 -0.0 1.0
  outer loop
    vertex -3.419377425063301 0.9162194196629243 5.0
    vertex -3.419377425063302 -0.9162194196629219 5.0
    vertex -3.0657299293969134 -1.7699999999999987 5.0
  endloop
endfacet
facet normal -0.0 -0.0 1.0
  outer loop
    vertex -3.419377425063301 0.9162194196629243 5.0
    vertex -3.0657299293969134 -1.7699999999999987 5.0
    vertex -3.065729929396912 1.770000000000001 5.0
  endloop
endfacet
facet normal -0.0 -0.0 1.0
  outer loop
    vertex -3.065729929396912 1.770000000000001 5.0
    vertex -3.0657299293969134 -1.7699999999999987 5.0
    vertex -2.5031580054003792 -2.5031580054003766 5.0
  endloop
endfacet
facet normal -0.0 -0.0 1.0
  outer loop
    vertex -3.065729929396912 1.770000000000001 5.0
    vertex -2.5031580054003792 -2.5031580054003766 5.0
    vertex -2.503158005400378 2.503158005400378 5.0
  endloop
endfacet
facet normal -0.0 -0.0 1.0
  outer loop
    vertex -2.503158005400378 2.503158005400378 5.0
    vertex -2.5031580054003792 -2.5031580054003766 5.0
    vertex -1.7700000000000011 -3.065729929396912 5.0
  endloop
endfacet
facet normal -0.0 -0.0 1.0
  outer loop
    vertex -2.503158005400378 2.503158005400378 5.0
    vertex -1.7700000000000011 -3.065729929396912 5.0
    vertex -1.7999999999999998 2.2043642384652356e-16 5.0
  endloop
endfacet
facet normal -0.0 -0.0 1.0
  outer loop
    vertex -1.7999999999999998 2.2043642384652356e-16 5.0
    vertex -1.7700000000000011 -3.065729929396912 5.0
    vertex -1.738666487320323 -0.4658742811845366 5.0
  endloop
endfacet
facet normal -0.0 -0.0 1.0
  outer loop
    vertex -1.738666487320323 -0.4658742811845366 5.0
    vertex -1.7700000000000011 -3.065729929396912 5.0
    vertex -0.9162194196629261 -3.4193774250633004 5.0
  endloop
endfacet
facet normal -0.0 -0.0 1.0
  outer loop
    vertex -1.738666487320323 -0.4658742811845366 5.0
    vertex -0.9162194196629261 -3.4193774250633004 5.0
    vertex -1.5588457268119897 -0.8999999999999994 5.0
  endloop
endfacet
facet normal -0.0 -0.0 1.0
  outer loop
    vertex -1.5588457268119897 -0.8999999999999994 5.0
    vertex -0.9162194196629261 -3.4193774250633004 5.0
    vertex -1.2727922061357861 -1.2727922061357848 5.0
  endloop
endfacet
facet normal -0.0 -0.0 1.0
  outer loop
    vertex -1.2727922061357861 -1.2727922061357848 5.0
    vertex -0.9162194196629261 -3.4193774250633004 5.0
    vertex -0.9000000000000008 -1.5588457268119893 5.0
  endloop
endfacet
facet normal -0.0 -0.0 1.0
  outer loop
    vertex -0.9000000000000008 -1.5588457268119893 5.0
    vertex -0.9162194196629261 -3.4193774250633004 5.0
    vertex -6.502874503472445e-16 -3.5399999999999996 5.0
  endloop
endfacet
facet normal -0.0 -0.0 1.0
  outer loop
    vertex -0.9000000000000008 -1.5588457268119893 5.0
    vertex -6.502874503472445e-16 -3.5399999999999996 5.0
    vertex -0.4658742811845387 -1.7386664873203226 5.0
  endloop
endfacet
facet normal -0.0 -0.0 1.0
  outer loop
    vertex -0.4658742811845387 -1.7386664873203226 5.0
    vertex -6.502874503472445e-16 -3.5399999999999996 5.0
    vertex -3.306546357697853e-16 -1.7999999999999998 5.0
  endloop
endfacet
facet normal -0.0 -0.0 1.0
  outer loop
    vertex -3.306546357697853e-16 -1.7999999999999998 5.0
    vertex -6.502874503472445e-16 -3.5399999999999996 5.0
    vertex 0.9162194196629218 -3.419377425063302 5.0
  endloop
endfacet
facet normal -0.0 -0.0 1.0
  outer loop
    vertex -3.306546357697853e-16 -1.7999999999999998 5.0
    vertex 0.9162194196629218 -3.419377425063302 5.0
    vertex 0.4658742811845365 -1.738666487320323 5.0
  endloop
endfacet
facet normal -0.0 -0.0 1.0
  outer loop
    vertex 0.4658742811845365 -1.738666487320323 5.0
    vertex 0.9162194196629218 -3.419377425063302 5.0
    vertex 0.8999999999999987 -1.5588457268119902 5.0
  endloop
endfacet
facet normal -0.0 -0.0 1.0
  outer loop
    vertex 0.8999999999999987 -1.5588457268119902 5.0
    vertex 0.9162194196629218 -3.419377425063302 5.0
    vertex 1.272792206135785 -1.2727922061357857 5.0
  endloop
endfacet
facet normal -0.0 -0.0 1.0
  outer loop
    vertex 1.272792206135785 -1.2727922061357857 5.0
    vertex 0.9162194196629218 -3.419377425063302 5.0
    vertex 1.7699999999999974 -3.065729929396914 5.0
  endloop
endfacet
facet normal -0.0 -0.0 1.0
  outer loop
    vertex 1.272792206135785 -1.2727922061357857 5.0
    vertex 1.7699999999999974 -3.065729929396914 5.0
    vertex 1.5588457268119889 -0.9000000000000008 5.0
  endloop
endfacet
facet normal -0.0 -0.0 1.0
  outer loop
    vertex 1.5588457268119889 -0.9000000000000008 5.0
    vertex 1.7699999999999974 -3.065729929396914 5.0
    vertex 1.7386664873203226 -0.46587428118453883 5.0
  endloop
endfacet
facet normal -0.0 -0.0 1.0
  outer loop
    vertex 1.7386664873203226 -0.46587428118453883 5.0
    vertex 1.7699999999999974 -3.065729929396914 5.0
    vertex 1.7999999999999998 0.0 5.0
  endloop
endfacet
facet normal -0.0 -0.0 1.0
  outer loop
    vertex 1.7999999999999998 0.0 5.0
    vertex 1.7699999999999974 -3.065729929396914 5.0
    vertex 2.5031580054003775 -2.5031580054003784 5.0
  endloop
endfacet
facet normal -0.0 -0.0 1.0
  outer loop
    vertex -1.7999999999999998 2.2043642384652356e-16 5.0
    vertex -1.7699999999999991 3.0657299293969125 5.0
    vertex -2.503158005400378 2.503158005400378 5.0
  endloop
endfacet
facet normal -0.0 -0.0 1.0
  outer loop
    vertex -1.7699999999999991 3.0657299293969125 5.0
    vertex -1.7999999999999998 2.2043642384652356e-16 5.0
    vertex -1.7386664873203226 0.4658742811845378 5.0
  endloop
endfacet
facet normal -0.0 -0.0 1.0
  outer loop
    vertex -1.7699999999999991 3.0657299293969125 5.0
    vertex -1.7386664873203226 0.4658742811845378 5.0
    vertex -0.916219419662923 3.419377425063302 5.0
  endloop
endfacet
facet normal -0.0 -0.0 1.0
  outer loop
    vertex -0.916219419662923 3.419377425063302 5.0
    vertex -1.7386664873203226 0.4658742811845378 5.0
    vertex -1.5588457268119893 0.9000000000000005 5.0
  endloop
endfacet
facet normal -0.0 -0.0 1.0
  outer loop
    vertex -0.916219419662923 3.419377425063302 5.0
    vertex -1.5588457268119893 0.9000000000000005 5.0
    vertex -1.2727922061357853 1.2727922061357857 5.0
  endloop
endfacet
facet normal -0.0 -0.0 1.0
  outer loop
    vertex -0.916219419662923 3.419377425063302 5.0
    vertex -1.2727922061357853 1.2727922061357857 5.0
    vertex -0.8999999999999996 1.5588457268119895 5.0
  endloop
endfacet
facet normal -0.0 -0.0 1.0
  outer loop
    vertex -0.916219419662923 3.419377425063302 5.0
    vertex -0.8999999999999996 1.5588457268119895 5.0
    vertex 2.167624834490815e-16 3.5399999999999996 5.0
  endloop
endfacet
facet normal -0.0 -0.0 1.0
  outer loop
    vertex 2.167624834490815e-16 3.5399999999999996 5.0
    vertex -0.8999999999999996 1.5588457268119895 5.0
    vertex -0.46587428118453716 1.738666487320323 5.0
  endloop
endfacet
facet normal -0.0 -0.0 1.0
  outer loop
    vertex 2.167624834490815e-16 3.5399999999999996 5.0
    vertex -0.46587428118453716 1.738666487320323 5.0
    vertex 1.1021821192326178e-16 1.7999999999999998 5.0
  endloop
endfacet
facet normal -0.0 -0.0 1.0
  outer loop
    vertex 2.167624834490815e-16 3.5399999999999996 5.0
    vertex 1.1021821192326178e-16 1.7999999999999998 5.0
    vertex 0.46587428118453766 1.7386664873203226 5.0
  endloop
endfacet
facet normal -0.0 -0.0 1.0
  outer loop
    vertex 2.167624834490815e-16 3.5399999999999996 5.0
    vertex 0.46587428118453766 1.7386664873203226 5.0
    vertex 0.9162194196629242 3.419377425063301 5.0
  endloop
endfacet
facet normal -0.0 -0.0 1.0
  outer loop
    vertex 0.9162194196629242 3.419377425063301 5.0
    vertex 0.46587428118453766 1.7386664873203226 5.0
    vertex 0.9000000000000001 1.5588457268119895 5.0
  endloop
endfacet
facet normal -0.0 -0.0 1.0
  outer loop
    vertex 0.9162194196629242 3.419377425063301 5.0
    vertex 0.9000000000000001 1.5588457268119895 5.0
    vertex 1.2727922061357857 1.2727922061357857 5.0
  endloop
endfacet
facet normal -0.0 -0.0 1.0
  outer loop
    vertex 0.9162194196629242 3.419377425063301 5.0
    vertex 1.2727922061357857 1.2727922061357857 5.0
    vertex 1.7700000000000002 3.065729929396912 5.0
  endloop
endfacet
facet normal -0.0 -0.0 1.0
  outer loop
    vertex 1.7700000000000002 3.065729929396912 5.0
    vertex 1.2727922061357857 1.2727922061357857 5.0
    vertex 1.5588457268119895 0.8999999999999998 5.0
  endloop
endfacet
facet normal -0.0 -0.0 1.0
  outer loop
    vertex 1.7700000000000002 3.065729929396912 5.0
    vertex 1.5588457268119895 0.8999999999999998 5.0
    vertex 1.738666487320323 0.46587428118453733 5.0
  endloop
endfacet
facet normal -0.0 -0.0 1.0
  outer loop
    vertex 1.7700000000000002 3.065729929396912 5.0
    vertex 1.738666487320323 0.46587428118453733 5.0
    vertex 1.7999999999999998 0.0 5.0
  endloop
endfacet
facet normal -0.0 -0.0 1.0
  outer loop
    vertex 1.7700000000000002 3.065729929396912 5.0
    vertex 1.7999999999999998 0.0 5.0
    vertex 2.503158005400378 2.503158005400378 5.0
  endloop
endfacet
facet normal -0.0 -0.0 1.0
  outer loop
    vertex 2.503158005400378 2.503158005400378 5.0
    vertex 1.7999999999999998 0.0 5.0
    vertex 2.5031580054003775 -2.5031580054003784 5.0
  endloop
endfacet
facet normal -0.0 -0.0 1.0
  outer loop
    vertex 2.503158005400378 2.503158005400378 5.0
    vertex 2.5031580054003775 -2.5031580054003784 5.0
    vertex 3.0657299293969116 -1.7700000000000011 5.0
  endloop
endfacet
facet normal -0.0 -0.0 1.0
  outer loop
    vertex 2.503158005400378 2.503158005400378 5.0
    vertex 3.0657299293969116 -1.7700000000000011 5.0
    vertex 3.0657299293969125 1.7699999999999994 5.0
  endloop
endfacet
facet normal -0.0 -0.0 1.0
  outer loop
    vertex 3.0657299293969125 1.7699999999999994 5.0
    vertex 3.0657299293969116 -1.7700000000000011 5.0
    vertex 3.4193774250633004 -0.9162194196629263 5.0
  endloop
endfacet
facet normal -0.0 -0.0 1.0
  outer loop
    vertex 3.0657299293969125 1.7699999999999994 5.0
    vertex 3.4193774250633004 -0.9162194196629263 5.0
    vertex 3.419377425063302 0.9162194196629233 5.0
  endloop
endfacet
facet normal -0.0 -0.0 1.0
  outer loop
    vertex 3.419377425063302 0.9162194196629233 5.0
    vertex 3.4193774250633004 -0.9162194196629263 5.0
    vertex 3.5399999999999996 0.0 5.0
  endloop
endfacet
facet normal -0.13052619222005116 0.9914448613738105 0.0
  outer loop
    vertex -0.916219419662923 3.419377425063302 5.0
    vertex 2.167624834490815e-16 3.5399999999999996 0.0
    vertex -0.916219419662923 3.419377425063302 0.0
  endloop
endfacet
facet normal -0.13052619222005116 0.9914448613738105 0.0
  outer loop
    vertex 2.167624834490815e-16 3.5399999999999996 0.0
    vertex -0.916219419662923 3.419377425063302 5.0
    vertex 2.167624834490815e-16 3.5399999999999996 5.0
  endloop
endfacet
facet normal 0.1305261922200518 0.9914448613738105 0.0
  outer loop
    vertex 2.167624834490815e-16 3.5399999999999996 5.0
    vertex 0.9162194196629242 3.419377425063301 0.0
    vertex 2.167624834490815e-16 3.5399999999999996 0.0
  endloop
endfacet
facet normal 0.1305261922200518 0.9914448613738105 0.0
  outer loop
    vertex 0.9162194196629242 3.419377425063301 0.0
    vertex 2.167624834490815e-16 3.5399999999999996 5.0
    vertex 0.9162194196629242 3.419377425063301 5.0
  endloop
endfacet
facet normal 0.38268343236508995 0.9238795325112866 0.0
  outer loop
    vertex 0.9162194196629242 3.419377425063301 5.0
    vertex 1.7700000000000002 3.065729929396912 0.0
    vertex 0.9162194196629242 3.419377425063301 0.0
  endloop
endfacet
facet normal 0.38268343236508995 0.9238795325112866 0.0
  outer loop
    vertex 1.7700000000000002 3.065729929396912 0.0
    vertex 0.9162194196629242 3.419377425063301 5.0
    vertex 1.7700000000000002 3.065729929396912 5.0
  endloop
endfacet
facet normal 0.6087614290087204 0.7933533402912353 0.0
  outer loop
    vertex 1.7700000000000002 3.065729929396912 5.0
    vertex 2.503158005400378 2.503158005400378 0.0
    vertex 1.7700000000000002 3.065729929396912 0.0
  endloop
endfacet
facet normal 0.6087614290087204 0.7933533402912353 0.0
  outer loop
    vertex 2.503158005400378 2.503158005400378 0.0
    vertex 1.7700000000000002 3.065729929396912 5.0
    vertex 2.503158005400378 2.503158005400378 5.0
  endloop
endfacet
facet normal 0.7933533402912356 0.6087614290087203 0.0
  outer loop
    vertex 2.503158005400378 2.503158005400378 0.0
    vertex 3.0657299293969125 1.7699999999999994 5.0
    vertex 3.0657299293969125 1.7699999999999994 0.0
  endloop
endfacet
facet normal 0.7933533402912356 0.6087614290087203 0.0
  outer loop
    vertex 3.0657299293969125 1.7699999999999994 5.0
    vertex 2.503158005400378 2.503158005400378 0.0
    vertex 2.503158005400378 2.503158005400378 5.0
  endloop
endfacet
facet normal 0.9238795325112865 0.38268343236509017 0.0
  outer loop
    vertex 3.0657299293969125 1.7699999999999994 0.0
    vertex 3.419377425063302 0.9162194196629233 5.0
    vertex 3.419377425063302 0.9162194196629233 0.0
  endloop
endfacet
facet normal 0.9238795325112865 0.38268343236509017 0.0
  outer loop
    vertex 3.419377425063302 0.9162194196629233 5.0
    vertex 3.0657299293969125 1.7699999999999994 0.0
    vertex 3.0657299293969125 1.7699999999999994 5.0
  endloop
endfacet
facet normal 0.9914448613738106 0.13052619222005116 0.0
  outer loop
    vertex 3.419377425063302 0.9162194196629233 0.0
    vertex 3.5399999999999996 0.0 5.0
    vertex 3.5399999999999996 0.0 0.0
  endloop
endfacet
facet normal 0.9914448613738106 0.13052619222005116 0.0
  outer loop
    vertex 3.5399999999999996 0.0 5.0
    vertex 3.419377425063302 0.9162194196629233 0.0
    vertex 3.419377425063302 0.9162194196629233 5.0
  endloop
endfacet
facet normal 0.9914448613738104 -0.1305261922200522 0.0
  outer loop
    vertex 3.5399999999999996 0.0 0.0
    vertex 3.4193774250633004 -0.9162194196629263 5.0
    vertex 3.4193774250633004 -0.9162194196629263 0.0
  endloop
endfacet
facet normal 0.9914448613738104 -0.1305261922200522 0.0
  outer loop
    vertex 3.4193774250633004 -0.9162194196629263 5.0
    vertex 3.5399999999999996 0.0 0.0
    vertex 3.5399999999999996 0.0 5.0
  endloop
endfacet
facet normal 0.9238795325112866 -0.3826834323650904 0.0
  outer loop
    vertex 3.4193774250633004 -0.9162194196629263 0.0
    vertex 3.0657299293969116 -1.7700000000000011 5.0
    vertex 3.0657299293969116 -1.7700000000000011 0.0
  endloop
endfacet
facet normal 0.9238795325112866 -0.3826834323650904 0.0
  outer loop
    vertex 3.0657299293969116 -1.7700000000000011 5.0
    vertex 3.4193774250633004 -0.9162194196629263 0.0
    vertex 3.4193774250633004 -0.9162194196629263 5.0
  endloop
endfacet
facet normal 0.793353340291235 -0.6087614290087208 0.0
  outer loop
    vertex 3.0657299293969116 -1.7700000000000011 0.0
    vertex 2.5031580054003775 -2.5031580054003784 5.0
    vertex 2.5031580054003775 -2.5031580054003784 0.0
  endloop
endfacet
facet normal 0.793353340291235 -0.6087614290087208 0.0
  outer loop
    vertex 2.5031580054003775 -2.5031580054003784 5.0
    vertex 3.0657299293969116 -1.7700000000000011 0.0
    vertex 3.0657299293969116 -1.7700000000000011 5.0
  endloop
endfacet
facet normal 0.6087614290087203 -0.7933533402912355 0.0
  outer loop
    vertex 2.5031580054003775 -2.5031580054003784 5.0
    vertex 1.7699999999999974 -3.065729929396914 0.0
    vertex 2.5031580054003775 -2.5031580054003784 0.0
  endloop
endfacet
facet normal 0.6087614290087203 -0.7933533402912355 0.0
  outer loop
    vertex 1.7699999999999974 -3.065729929396914 0.0
    vertex 2.5031580054003775 -2.5031580054003784 5.0
    vertex 1.7699999999999974 -3.065729929396914 5.0
  endloop
endfacet
facet normal 0.3826834323650891 -0.923879532511287 0.0
  outer loop
    vertex 1.7699999999999974 -3.065729929396914 5.0
    vertex 0.9162194196629218 -3.419377425063302 0.0
    vertex 1.7699999999999974 -3.065729929396914 0.0
  endloop
endfacet
facet normal 0.3826834323650891 -0.923879532511287 0.0
  outer loop
    vertex 0.9162194196629218 -3.419377425063302 0.0
    vertex 1.7699999999999974 -3.065729929396914 5.0
    vertex 0.9162194196629218 -3.419377425063302 5.0
  endloop
endfacet
facet normal 0.13052619222005127 -0.9914448613738105 0.0
  outer loop
    vertex 0.9162194196629218 -3.419377425063302 5.0
    vertex -6.502874503472445e-16 -3.5399999999999996 0.0
    vertex 0.9162194196629218 -3.419377425063302 0.0
  endloop
endfacet
facet normal 0.13052619222005127 -0.9914448613738105 0.0
  outer loop
    vertex -6.502874503472445e-16 -3.5399999999999996 0.0
    vertex 0.9162194196629218 -3.419377425063302 5.0
    vertex -6.502874503472445e-16 -3.5399999999999996 5.0
  endloop
endfacet
facet normal -0.13052619222005235 -0.9914448613738104 -0.0
  outer loop
    vertex -6.502874503472445e-16 -3.5399999999999996 5.0
    vertex -0.9162194196629261 -3.4193774250633004 0.0
    vertex -6.502874503472445e-16 -3.5399999999999996 0.0
  endloop
endfacet
facet normal -0.13052619222005235 -0.9914448613738104 -0.0
  outer loop
    vertex -0.9162194196629261 -3.4193774250633004 0.0
    vertex -6.502874503472445e-16 -3.5399999999999996 5.0
    vertex -0.9162194196629261 -3.4193774250633004 5.0
  endloop
endfacet
facet normal -0.38268343236509 -0.9238795325112867 -0.0
  outer loop
    vertex -0.9162194196629261 -3.4193774250633004 5.0
    vertex -1.7700000000000011 -3.065729929396912 0.0
    vertex -0.9162194196629261 -3.4193774250633004 0.0
  endloop
endfacet
facet normal -0.38268343236509 -0.9238795325112867 -0.0
  outer loop
    vertex -1.7700000000000011 -3.065729929396912 0.0
    vertex -0.9162194196629261 -3.4193774250633004 5.0
    vertex -1.7700000000000011 -3.065729929396912 5.0
  endloop
endfacet
facet normal -0.6087614290087211 -0.7933533402912347 -0.0
  outer loop
    vertex -1.7700000000000011 -3.065729929396912 5.0
    vertex -2.5031580054003792 -2.5031580054003766 0.0
    vertex -1.7700000000000011 -3.065729929396912 0.0
  endloop
endfacet
facet normal -0.6087614290087211 -0.7933533402912347 -0.0
  outer loop
    vertex -2.5031580054003792 -2.5031580054003766 0.0
    vertex -1.7700000000000011 -3.065729929396912 5.0
    vertex -2.5031580054003792 -2.5031580054003766 5.0
  endloop
endfacet
facet normal -0.7933533402912353 -0.6087614290087204 -0.0
  outer loop
    vertex -3.0657299293969134 -1.7699999999999987 5.0
    vertex -2.5031580054003792 -2.5031580054003766 0.0
    vertex -2.5031580054003792 -2.5031580054003766 5.0
  endloop
endfacet
facet normal -0.7933533402912353 -0.6087614290087204 -0.0
  outer loop
    vertex -2.5031580054003792 -2.5031580054003766 0.0
    vertex -3.0657299293969134 -1.7699999999999987 5.0
    vertex -3.0657299293969134 -1.7699999999999987 0.0
  endloop
endfacet
facet normal -0.9238795325112868 -0.3826834323650893 -0.0
  outer loop
    vertex -3.419377425063302 -0.9162194196629219 5.0
    vertex -3.0657299293969134 -1.7699999999999987 0.0
    vertex -3.0657299293969134 -1.7699999999999987 5.0
  endloop
endfacet
facet normal -0.9238795325112868 -0.3826834323650893 -0.0
  outer loop
    vertex -3.0657299293969134 -1.7699999999999987 0.0
    vertex -3.419377425063302 -0.9162194196629219 5.0
    vertex -3.419377425063302 -0.9162194196629219 0.0
  endloop
endfacet
facet normal -0.9914448613738106 -0.1305261922200513 -0.0
  outer loop
    vertex -3.5399999999999996 4.33524966898163e-16 5.0
    vertex -3.419377425063302 -0.9162194196629219 0.0
    vertex -3.419377425063302 -0.9162194196629219 5.0
  endloop
endfacet
facet normal -0.9914448613738106 -0.1305261922200513 -0.0
  outer loop
    vertex -3.419377425063302 -0.9162194196629219 0.0
    vertex -3.5399999999999996 4.33524966898163e-16 5.0
    vertex -3.5399999999999996 4.33524966898163e-16 0.0
  endloop
endfacet
facet normal -0.9914448613738105 0.1305261922200518 0.0
  outer loop
    vertex -3.419377425063301 0.9162194196629243 5.0
    vertex -3.5399999999999996 4.33524966898163e-16 0.0
    vertex -3.5399999999999996 4.33524966898163e-16 5.0
  endloop
endfacet
facet normal -0.9914448613738105 0.1305261922200518 0.0
  outer loop
    vertex -3.5399999999999996 4.33524966898163e-16 0.0
    vertex -3.419377425063301 0.9162194196629243 5.0
    vertex -3.419377425063301 0.9162194196629243 0.0
  endloop
endfacet
facet normal -0.9238795325112867 0.3826834323650901 0.0
  outer loop
    vertex -3.065729929396912 1.770000000000001 5.0
    vertex -3.419377425063301 0.9162194196629243 0.0
    vertex -3.419377425063301 0.9162194196629243 5.0
  endloop
endfacet
facet normal -0.9238795325112867 0.3826834323650901 0.0
  outer loop
    vertex -3.419377425063301 0.9162194196629243 0.0
    vertex -3.065729929396912 1.770000000000001 5.0
    vertex -3.065729929396912 1.770000000000001 0.0
  endloop
endfacet
facet normal -0.793353340291235 0.6087614290087208 0.0
  outer loop
    vertex -2.503158005400378 2.503158005400378 5.0
    vertex -3.065729929396912 1.770000000000001 0.0
    vertex -3.065729929396912 1.770000000000001 5.0
  endloop
endfacet
facet normal -0.793353340291235 0.6087614290087208 0.0
  outer loop
    vertex -3.065729929396912 1.770000000000001 0.0
    vertex -2.503158005400378 2.503158005400378 5.0
    vertex -2.503158005400378 2.503158005400378 0.0
  endloop
endfacet
facet normal -0.6087614290087203 0.7933533402912356 0.0
  outer loop
    vertex -2.503158005400378 2.503158005400378 5.0
    vertex -1.7699999999999991 3.0657299293969125 0.0
    vertex -2.503158005400378 2.503158005400378 0.0
  endloop
endfacet
facet normal -0.6087614290087203 0.7933533402912356 0.0
  outer loop
    vertex -1.7699999999999991 3.0657299293969125 0.0
    vertex -2.503158005400378 2.503158005400378 5.0
    vertex -1.7699999999999991 3.0657299293969125 5.0
  endloop
endfacet
facet normal -0.38268343236509017 0.9238795325112865 0.0
  outer loop
    vertex -1.7699999999999991 3.0657299293969125 5.0
    vertex -0.916219419662923 3.419377425063302 0.0
    vertex -1.7699999999999991 3.0657299293969125 0.0
  endloop
endfacet
facet normal -0.38268343236509017 0.9238795325112865 0.0
  outer loop
    vertex -0.916219419662923 3.419377425063302 0.0
    vertex -1.7699999999999991 3.0657299293969125 5.0
    vertex -0.916219419662923 3.419377425063302 5.0
  endloop
endfacet
facet normal -0.3826834323650891 0.923879532511287 0.0
  outer loop
    vertex 0.4658742811845365 -1.738666487320323 5.0
    vertex 0.8999999999999987 -1.5588457268119902 0.0
    vertex 0.4658742811845365 -1.738666487320323 0.0
  endloop
endfacet
facet normal -0.3826834323650891 0.923879532511287 0.0
  outer loop
    vertex 0.8999999999999987 -1.5588457268119902 0.0
    vertex 0.4658742811845365 -1.738666487320323 5.0
    vertex 0.8999999999999987 -1.5588457268119902 5.0
  endloop
endfacet
facet normal -0.6087614290087201 0.7933533402912355 0.0
  outer loop
    vertex 0.8999999999999987 -1.5588457268119902 5.0
    vertex 1.272792206135785 -1.2727922061357857 0.0
    vertex 0.8999999999999987 -1.5588457268119902 0.0
  endloop
endfacet
facet normal -0.6087614290087201 0.7933533402912355 0.0
  outer loop
    vertex 1.272792206135785 -1.2727922061357857 0.0
    vertex 0.8999999999999987 -1.5588457268119902 5.0
    vertex 1.272792206135785 -1.2727922061357857 5.0
  endloop
endfacet
facet normal -0.7933533402912349 0.608761429008721 0.0
  outer loop
    vertex 1.5588457268119889 -0.9000000000000008 5.0
    vertex 1.272792206135785 -1.2727922061357857 0.0
    vertex 1.272792206135785 -1.2727922061357857 5.0
  endloop
endfacet
facet normal -0.7933533402912349 0.608761429008721 0.0
  outer loop
    vertex 1.272792206135785 -1.2727922061357857 0.0
    vertex 1.5588457268119889 -0.9000000000000008 5.0
    vertex 1.5588457268119889 -0.9000000000000008 0.0
  endloop
endfacet
facet normal -0.9238795325112863 0.38268343236509084 0.0
  outer loop
    vertex 1.7386664873203226 -0.46587428118453883 5.0
    vertex 1.5588457268119889 -0.9000000000000008 0.0
    vertex 1.5588457268119889 -0.9000000000000008 5.0
  endloop
endfacet
facet normal -0.9238795325112863 0.38268343236509084 0.0
  outer loop
    vertex 1.5588457268119889 -0.9000000000000008 0.0
    vertex 1.7386664873203226 -0.46587428118453883 5.0
    vertex 1.7386664873203226 -0.46587428118453883 0.0
  endloop
endfacet
facet normal -0.9914448613738104 0.13052619222005163 0.0
  outer loop
    vertex 1.7999999999999998 0.0 5.0
    vertex 1.7386664873203226 -0.46587428118453883 0.0
    vertex 1.7386664873203226 -0.46587428118453883 5.0
  endloop
endfacet
facet normal -0.9914448613738104 0.13052619222005163 0.0
  outer loop
    vertex 1.7386664873203226 -0.46587428118453883 0.0
    vertex 1.7999999999999998 0.0 5.0
    vertex 1.7999999999999998 0.0 0.0
  endloop
endfacet
facet normal -0.9914448613738105 -0.13052619222005132 -0.0
  outer loop
    vertex 1.738666487320323 0.46587428118453733 5.0
    vertex 1.7999999999999998 0.0 0.0
    vertex 1.7999999999999998 0.0 5.0
  endloop
endfacet
facet normal -0.9914448613738105 -0.13052619222005132 -0.0
  outer loop
    vertex 1.7999999999999998 0.0 0.0
    vertex 1.738666487320323 0.46587428118453733 5.0
    vertex 1.738666487320323 0.46587428118453733 0.0
  endloop
endfacet
facet normal -0.9238795325112867 -0.3826834323650899 -0.0
  outer loop
    vertex 1.5588457268119895 0.8999999999999998 5.0
    vertex 1.738666487320323 0.46587428118453733 0.0
    vertex 1.738666487320323 0.46587428118453733 5.0
  endloop
endfacet
facet normal -0.9238795325112867 -0.3826834323650899 -0.0
  outer loop
    vertex 1.738666487320323 0.46587428118453733 0.0
    vertex 1.5588457268119895 0.8999999999999998 5.0
    vertex 1.5588457268119895 0.8999999999999998 0.0
  endloop
endfacet
facet normal -0.7933533402912356 -0.6087614290087203 -0.0
  outer loop
    vertex 1.2727922061357857 1.2727922061357857 5.0
    vertex 1.5588457268119895 0.8999999999999998 0.0
    vertex 1.5588457268119895 0.8999999999999998 5.0
  endloop
endfacet
facet normal -0.7933533402912356 -0.6087614290087203 -0.0
  outer loop
    vertex 1.5588457268119895 0.8999999999999998 0.0
    vertex 1.2727922061357857 1.2727922061357857 5.0
    vertex 1.2727922061357857 1.2727922061357857 0.0
  endloop
endfacet
facet normal -0.6087614290087204 -0.7933533402912354 -0.0
  outer loop
    vertex 1.2727922061357857 1.2727922061357857 5.0
    vertex 0.9000000000000001 1.5588457268119895 0.0
    vertex 1.2727922061357857 1.2727922061357857 0.0
  endloop
endfacet
facet normal -0.6087614290087204 -0.7933533402912354 -0.0
  outer loop
    vertex 0.9000000000000001 1.5588457268119895 0.0
    vertex 1.2727922061357857 1.2727922061357857 5.0
    vertex 0.9000000000000001 1.5588457268119895 5.0
  endloop
endfacet
facet normal -0.3826834323650896 -0.923879532511287 -0.0
  outer loop
    vertex 0.9000000000000001 1.5588457268119895 5.0
    vertex 0.46587428118453766 1.7386664873203226 0.0
    vertex 0.9000000000000001 1.5588457268119895 0.0
  endloop
endfacet
facet normal -0.3826834323650896 -0.923879532511287 -0.0
  outer loop
    vertex 0.46587428118453766 1.7386664873203226 0.0
    vertex 0.9000000000000001 1.5588457268119895 5.0
    vertex 0.46587428118453766 1.7386664873203226 5.0
  endloop
endfacet
facet normal -0.13052619222005196 -0.9914448613738104 -0.0
  outer loop
    vertex 0.46587428118453766 1.7386664873203226 5.0
    vertex 1.1021821192326178e-16 1.7999999999999998 0.0
    vertex 0.46587428118453766 1.7386664873203226 0.0
  endloop
endfacet
facet normal -0.13052619222005196 -0.9914448613738104 -0.0
  outer loop
    vertex 1.1021821192326178e-16 1.7999999999999998 0.0
    vertex 0.46587428118453766 1.7386664873203226 5.0
    vertex 1.1021821192326178e-16 1.7999999999999998 5.0
  endloop
endfacet
facet normal 0.13052619222005135 -0.9914448613738105 0.0
  outer loop
    vertex 1.1021821192326178e-16 1.7999999999999998 5.0
    vertex -0.46587428118453716 1.738666487320323 0.0
    vertex 1.1021821192326178e-16 1.7999999999999998 0.0
  endloop
endfacet
facet normal 0.13052619222005135 -0.9914448613738105 0.0
  outer loop
    vertex -0.46587428118453716 1.738666487320323 0.0
    vertex 1.1021821192326178e-16 1.7999999999999998 5.0
    vertex -0.46587428118453716 1.738666487320323 5.0
  endloop
endfacet
facet normal 0.3826834323650899 -0.9238795325112867 0.0
  outer loop
    vertex -0.46587428118453716 1.738666487320323 5.0
    vertex -0.8999999999999996 1.5588457268119895 0.0
    vertex -0.46587428118453716 1.738666487320323 0.0
  endloop
endfacet
facet normal 0.3826834323650899 -0.9238795325112867 0.0
  outer loop
    vertex -0.8999999999999996 1.5588457268119895 0.0
    vertex -0.46587428118453716 1.738666487320323 5.0
    vertex -0.8999999999999996 1.5588457268119895 5.0
  endloop
endfacet
facet normal 0.6087614290087204 -0.7933533402912353 0.0
  outer loop
    vertex -0.8999999999999996 1.5588457268119895 5.0
    vertex -1.2727922061357853 1.2727922061357857 0.0
    vertex -0.8999999999999996 1.5588457268119895 0.0
  endloop
endfacet
facet normal 0.6087614290087204 -0.7933533402912353 0.0
  outer loop
    vertex -1.2727922061357853 1.2727922061357857 0.0
    vertex -0.8999999999999996 1.5588457268119895 5.0
    vertex -1.2727922061357853 1.2727922061357857 5.0
  endloop
endfacet
facet normal 0.7933533402912349 -0.608761429008721 0.0
  outer loop
    vertex -1.2727922061357853 1.2727922061357857 0.0
    vertex -1.5588457268119893 0.9000000000000005 5.0
    vertex -1.5588457268119893 0.9000000000000005 0.0
  endloop
endfacet
facet normal 0.7933533402912349 -0.608761429008721 0.0
  outer loop
    vertex -1.5588457268119893 0.9000000000000005 5.0
    vertex -1.2727922061357853 1.2727922061357857 0.0
    vertex -1.2727922061357853 1.2727922061357857 5.0
  endloop
endfacet
facet normal 0.9238795325112867 -0.38268343236508967 0.0
  outer loop
    vertex -1.5588457268119893 0.9000000000000005 0.0
    vertex -1.7386664873203226 0.4658742811845378 5.0
    vertex -1.7386664873203226 0.4658742811845378 0.0
  endloop
endfacet
facet normal 0.9238795325112867 -0.38268343236508967 0.0
  outer loop
    vertex -1.7386664873203226 0.4658742811845378 5.0
    vertex -1.5588457268119893 0.9000000000000005 0.0
    vertex -1.5588457268119893 0.9000000000000005 5.0
  endloop
endfacet
facet normal 0.9914448613738104 -0.130526192220052 0.0
  outer loop
    vertex -1.7386664873203226 0.4658742811845378 0.0
    vertex -1.7999999999999998 2.2043642384652356e-16 5.0
    vertex -1.7999999999999998 2.2043642384652356e-16 0.0
  endloop
endfacet
facet normal 0.9914448613738104 -0.130526192220052 0.0
  outer loop
    vertex -1.7999999999999998 2.2043642384652356e-16 5.0
    vertex -1.7386664873203226 0.4658742811845378 0.0
    vertex -1.7386664873203226 0.4658742811845378 5.0
  endloop
endfacet
facet normal 0.9914448613738105 0.13052619222005143 0.0
  outer loop
    vertex -1.7999999999999998 2.2043642384652356e-16 0.0
    vertex -1.738666487320323 -0.4658742811845366 5.0
    vertex -1.738666487320323 -0.4658742811845366 0.0
  endloop
endfacet
facet normal 0.9914448613738105 0.13052619222005143 0.0
  outer loop
    vertex -1.738666487320323 -0.4658742811845366 5.0
    vertex -1.7999999999999998 2.2043642384652356e-16 0.0
    vertex -1.7999999999999998 2.2043642384652356e-16 5.0
  endloop
endfacet
facet normal 0.923879532511287 0.3826834323650893 0.0
  outer loop
    vertex -1.738666487320323 -0.4658742811845366 0.0
    vertex -1.5588457268119897 -0.8999999999999994 5.0
    vertex -1.5588457268119897 -0.8999999999999994 0.0
  endloop
endfacet
facet normal 0.923879532511287 0.3826834323650893 0.0
  outer loop
    vertex -1.5588457268119897 -0.8999999999999994 5.0
    vertex -1.738666487320323 -0.4658742811845366 0.0
    vertex -1.738666487320323 -0.4658742811845366 5.0
  endloop
endfacet
facet normal 0.7933533402912355 0.6087614290087203 0.0
  outer loop
    vertex -1.5588457268119897 -0.8999999999999994 0.0
    vertex -1.2727922061357861 -1.2727922061357848 5.0
    vertex -1.2727922061357861 -1.2727922061357848 0.0
  endloop
endfacet
facet normal 0.7933533402912355 0.6087614290087203 0.0
  outer loop
    vertex -1.2727922061357861 -1.2727922061357848 5.0
    vertex -1.5588457268119897 -0.8999999999999994 0.0
    vertex -1.5588457268119897 -0.8999999999999994 5.0
  endloop
endfacet
facet normal 0.6087614290087214 0.7933533402912345 0.0
  outer loop
    vertex -1.2727922061357861 -1.2727922061357848 5.0
    vertex -0.9000000000000008 -1.5588457268119893 0.0
    vertex -1.2727922061357861 -1.2727922061357848 0.0
  endloop
endfacet
facet normal 0.6087614290087214 0.7933533402912345 0.0
  outer loop
    vertex -0.9000000000000008 -1.5588457268119893 0.0
    vertex -1.2727922061357861 -1.2727922061357848 5.0
    vertex -0.9000000000000008 -1.5588457268119893 5.0
  endloop
endfacet
facet normal 0.38268343236509017 0.9238795325112866 0.0
  outer loop
    vertex -0.9000000000000008 -1.5588457268119893 5.0
    vertex -0.4658742811845387 -1.7386664873203226 0.0
    vertex -0.9000000000000008 -1.5588457268119893 0.0
  endloop
endfacet
facet normal 0.38268343236509017 0.9238795325112866 0.0
  outer loop
    vertex -0.4658742811845387 -1.7386664873203226 0.0
    vertex -0.9000000000000008 -1.5588457268119893 5.0
    vertex -0.4658742811845387 -1.7386664873203226 5.0
  endloop
endfacet
facet normal 0.13052619222005177 0.9914448613738105 0.0
  outer loop
    vertex -0.4658742811845387 -1.7386664873203226 5.0
    vertex -3.306546357697853e-16 -1.7999999999999998 0.0
    vertex -0.4658742811845387 -1.7386664873203226 0.0
  endloop
endfacet
facet normal 0.13052619222005177 0.9914448613738105 0.0
  outer loop
    vertex -3.306546357697853e-16 -1.7999999999999998 0.0
    vertex -0.4658742811845387 -1.7386664873203226 5.0
    vertex -3.306546357697853e-16 -1.7999999999999998 5.0
  endloop
endfacet
facet normal -0.13052619222005143 0.9914448613738105 0.0
  outer loop
    vertex -3.306546357697853e-16 -1.7999999999999998 5.0
    vertex 0.4658742811845365 -1.738666487320323 0.0
    vertex -3.306546357697853e-16 -1.7999999999999998 0.0
  endloop
endfacet
facet normal -0.13052619222005143 0.9914448613738105 0.0
  outer loop
    vertex 0.4658742811845365 -1.738666487320323 0.0
    vertex -3.306546357697853e-16 -1.7999999999999998 5.0
    vertex 0.4658742811845365 -1.738666487320323 5.0
  endloop
endfacet
endsolid Geeetech LCD spacer
