<?xml version="1.0" encoding="utf-8"?>
<!-- Generator: Adobe Illustrator 15.1.0, SVG Export Plug-In . SVG Version: 6.00 Build 0)  -->
<!DOCTYPE svg PUBLIC "-//W3C//DTD SVG 1.1//EN" "http://www.w3.org/Graphics/SVG/1.1/DTD/svg11.dtd">
<svg version="1.1" id="Ebene_1" xmlns="http://www.w3.org/2000/svg" xmlns:xlink="http://www.w3.org/1999/xlink" x="0px" y="0px"
	 width="206.929px" height="283.464px" viewBox="0 0 206.929 283.464" enable-background="new 0 0 206.929 283.464"
	 xml:space="preserve">
<g display="none">
	<rect display="inline" width="206.929" height="283.464"/>
	<rect x="11.338" y="170.079" display="inline" fill="#D20A11" width="184.251" height="124.425"/>
	<rect x="-28.995" y="255.118" display="inline" fill="#D20A11" width="40.333" height="28.347"/>
	<rect y="226.771" display="inline" fill="#D20A11" width="1.417" height="5.669"/>
	<rect x="9.921" y="226.771" display="inline" fill="#D20A11" width="1.417" height="5.669"/>
	<rect display="inline" fill="#D20A11" width="195.59" height="158.74"/>
	<rect x="99.212" y="45.354" display="inline" width="11.338" height="113.386"/>
</g>
<path d="M201.26,0L201.26,0c-3.119,0-5.67,2.551-5.67,5.669v81.999v14.379c0,31.181-19.134,56.693-42.521,56.693
	c-23.386,0-42.52-25.512-42.52-56.693V87.668V51.024c0-3.118-2.551-5.669-5.669-5.669s-5.669,2.551-5.669,5.669v102.047
	c0,3.118-2.551,5.669-5.669,5.669H5.669c-3.118,0-5.669,2.551-5.669,5.669v62.362h1.417v5.669H0v17.009
	c0,3.118,2.551,5.669,5.669,5.669c3.118,0,5.669-2.551,5.669-5.669V232.44H9.921v-5.669h1.417v-51.023
	c0-3.118,2.551-5.669,5.669-5.669H189.92c3.118,0,5.669,2.551,5.669,5.669v102.047c0,3.118,2.551,5.669,5.669,5.669h0.002
	c3.118,0,5.669-2.551,5.669-5.669V5.669C206.929,2.551,204.378,0,201.26,0z"/>
<polygon display="none" points="195.59,0 195.59,158.74 110.55,158.74 110.55,45.354 99.212,45.354 99.212,158.74 0,158.74 
	0,226.771 1.417,226.771 1.417,232.44 0,232.44 0,255.118 11.338,255.118 11.338,232.44 9.921,232.44 9.921,226.771 11.338,226.771 
	11.338,170.079 195.589,170.079 195.589,283.464 206.929,283.464 206.929,0 "/>
</svg>
