<?xml version="1.0" encoding="utf-8"?>
<!-- Generator: Adobe Illustrator 16.0.3, SVG Export Plug-In . SVG Version: 6.00 Build 0)  -->
<!DOCTYPE svg PUBLIC "-//W3C//DTD SVG 1.1//EN" "http://www.w3.org/Graphics/SVG/1.1/DTD/svg11.dtd">
<svg version="1.1" id="Ebene_1" xmlns="http://www.w3.org/2000/svg" xmlns:xlink="http://www.w3.org/1999/xlink" x="0px" y="0px"
	 width="141.73px" height="141.73px" viewBox="0 0 141.73 141.73" enable-background="new 0 0 141.73 141.73" xml:space="preserve">
<g>
	<path fill-rule="evenodd" clip-rule="evenodd" d="M139.36,70.87V98.52H88.87c0-8.159-0.061-16.18,0.07-24.199
		c0.02-0.88,0.989-1.86,1.71-2.58c7.13-7.19,14.27-14.38,21.489-21.48c1.511-1.47,2.21-2.95,2.17-5.09
		c-0.13-6.74-0.069-13.49-0.06-20.4c-8.35,8.36-16.91,16.92-25.22,25.24v-26.9h50.31c0,8.06,0.08,15.97-0.08,23.9
		c-0.029,1.08-1.05,2.31-1.91,3.18c-6.979,7.05-14.1,13.94-20.979,21.06c-1.18,1.23-2.01,3.33-2.061,5.05
		c-0.22,6.47-0.119,12.96-0.109,20.25C122.75,87.82,130.75,79.66,139.36,70.87z"/>
</g>
</svg>
