<?xml version="1.0" encoding="utf-8"?>
<!-- Generator: Adobe Illustrator 16.0.3, SVG Export Plug-In . SVG Version: 6.00 Build 0)  -->
<!DOCTYPE svg PUBLIC "-//W3C//DTD SVG 1.1//EN" "http://www.w3.org/Graphics/SVG/1.1/DTD/svg11.dtd">
<svg version="1.1" id="Ebene_1" xmlns="http://www.w3.org/2000/svg" xmlns:xlink="http://www.w3.org/1999/xlink" x="0px" y="0px"
	 width="141.73px" height="141.73px" viewBox="0 0 141.73 141.73" enable-background="new 0 0 141.73 141.73" xml:space="preserve">
<g>
	<path d="M2.385,93.887c0-6.905-0.053-13.313,0.066-19.717c0.016-0.81,0.813-1.73,1.464-2.385
		C19.666,55.973,35.434,40.18,51.25,24.435c0.763-0.76,1.993-1.462,3.017-1.479c7.605-0.124,15.216-0.066,22.812-0.066
		C60.531,39.294,44.053,55.63,27.576,71.967c0.249,0.429,0.499,0.854,0.749,1.282c16.403,0,32.806,0,49.376,0
		c0,15.488,0,30.457,0,45.607c-8.267,0-16.369,0-24.752,0c0-8.232,0-16.354,0-24.971C36.009,93.887,19.34,93.887,2.385,93.887z"/>
</g>
</svg>
