<?xml version="1.0" encoding="utf-8"?>
<!-- Generator: Adobe Illustrator 16.0.3, SVG Export Plug-In . SVG Version: 6.00 Build 0)  -->
<!DOCTYPE svg PUBLIC "-//W3C//DTD SVG 1.1//EN" "http://www.w3.org/Graphics/SVG/1.1/DTD/svg11.dtd">
<svg version="1.1" id="Ebene_1" xmlns="http://www.w3.org/2000/svg" xmlns:xlink="http://www.w3.org/1999/xlink" x="0px" y="0px"
	 width="141.73px" height="141.73px" viewBox="0 0 141.73 141.73" enable-background="new 0 0 141.73 141.73" xml:space="preserve">
<g>
	<path fill-rule="evenodd" clip-rule="evenodd" d="M2.386,93.887c0-6.905-0.053-13.313,0.066-19.716
		c0.016-0.81,0.813-1.731,1.464-2.385c15.75-15.813,31.518-31.606,47.334-47.351c0.762-0.759,1.993-1.462,3.016-1.479
		c7.606-0.124,15.216-0.067,22.812-0.067C60.531,39.294,44.053,55.63,27.576,71.967c0.249,0.428,0.499,0.854,0.749,1.282
		c16.403,0,32.806,0,49.376,0c0,15.488,0,30.457,0,45.607c-8.267,0-16.369,0-24.752,0c0-8.232,0-16.353,0-24.97
		C36.009,93.887,19.34,93.887,2.386,93.887z"/>
	<path fill-rule="evenodd" clip-rule="evenodd" d="M139.261,47.01c-0.027,1.078-1.053,2.313-1.906,3.182
		c-6.982,7.047-14.108,13.937-20.983,21.063c-1.185,1.222-2.013,3.327-2.065,5.047c-0.235,7.049-0.092,14.107-0.092,22.22H88.865
		c0-8.163-0.053-16.186,0.079-24.204c0.014-0.881,0.986-1.854,1.709-2.577c7.126-7.192,14.266-14.383,21.483-21.483
		c1.512-1.472,2.209-2.945,2.169-5.087c-0.131-7.284-0.052-14.568-0.052-22.062h25.085C139.339,31.167,139.417,39.082,139.261,47.01
		z"/>
	<path fill-rule="evenodd" clip-rule="evenodd" d="M139.358,73.357v25.164h-24.651C123.16,89.896,130.944,81.956,139.358,73.357z"/>
	<path fill-rule="evenodd" clip-rule="evenodd" d="M89.028,23.028c8.462,0,16.746,0,24.473,0
		c-8.076,8.081-16.408,16.417-24.473,24.487C89.028,39.964,89.028,31.693,89.028,23.028z"/>
</g>
</svg>
