<?xml version="1.0" encoding="utf-8"?>
<!-- Generator: Adobe Illustrator 15.1.0, SVG Export Plug-In . SVG Version: 6.00 Build 0)  -->
<!DOCTYPE svg PUBLIC "-//W3C//DTD SVG 1.1//EN" "http://www.w3.org/Graphics/SVG/1.1/DTD/svg11.dtd">
<svg version="1.1" id="Ebene_1" xmlns="http://www.w3.org/2000/svg" xmlns:xlink="http://www.w3.org/1999/xlink" x="0px" y="0px"
	 width="408px" height="392px" viewBox="0 0 408 392" enable-background="new 0 0 408 392" xml:space="preserve">
<line display="none" fill="none" stroke="#000000" stroke-miterlimit="10" x1="311.806" y1="122.498" x2="311.806" y2="264.23"/>
<g display="none">
	<circle display="inline" fill="#FFFFFF" stroke="#000000" stroke-miterlimit="10" cx="256.042" cy="304.959" r="36.177"/>
	<g display="inline">
		<path fill="#FFFFFF" d="M267.141,131.755c0-4.677-3.827-8.504-8.504-8.504h-5.191c-4.677,0-8.504,3.827-8.504,8.504v180.734
			c0,4.677,3.827,8.504,8.504,8.504h5.191c4.677,0,8.504-3.827,8.504-8.504V131.755z"/>
		<path fill="none" stroke="#000000" stroke-miterlimit="10" d="M267.141,131.755c0-4.677-3.827-8.504-8.504-8.504h-5.191
			c-4.677,0-8.504,3.827-8.504,8.504v180.734c0,4.677,3.827,8.504,8.504,8.504h5.191c4.677,0,8.504-3.827,8.504-8.504V131.755z"/>
	</g>
	<g display="inline">
		<g>
			<circle fill="#FFFFFF" cx="256.042" cy="238.881" r="4.522"/>
			<circle fill="none" stroke="#000000" stroke-miterlimit="10" cx="256.042" cy="238.881" r="4.522"/>
		</g>
		<g>
			<circle fill="#FFFFFF" cx="256.042" cy="221.873" r="4.522"/>
			<circle fill="none" stroke="#000000" stroke-miterlimit="10" cx="256.042" cy="221.873" r="4.522"/>
		</g>
		<g>
			<circle fill="#FFFFFF" cx="256.042" cy="204.865" r="4.522"/>
			<circle fill="none" stroke="#000000" stroke-miterlimit="10" cx="256.042" cy="204.865" r="4.522"/>
		</g>
		<g>
			<circle fill="#FFFFFF" cx="256.042" cy="187.857" r="4.522"/>
			<circle fill="none" stroke="#000000" stroke-miterlimit="10" cx="256.042" cy="187.857" r="4.522"/>
		</g>
		<g>
			<circle fill="#FFFFFF" cx="256.042" cy="170.85" r="4.522"/>
			<circle fill="none" stroke="#000000" stroke-miterlimit="10" cx="256.042" cy="170.85" r="4.522"/>
		</g>
		<g>
			<circle fill="#FFFFFF" cx="256.042" cy="153.842" r="4.522"/>
			<circle fill="none" stroke="#000000" stroke-miterlimit="10" cx="256.042" cy="153.842" r="4.522"/>
		</g>
		<g>
			<circle fill="#FFFFFF" cx="256.042" cy="136.834" r="4.522"/>
			<circle fill="none" stroke="#000000" stroke-miterlimit="10" cx="256.042" cy="136.834" r="4.522"/>
		</g>
	</g>
	<path display="inline" fill="#FFFFFF" stroke="#000000" stroke-miterlimit="10" d="M244.941,239.5
		c0,14.333-4.89,29.037-13.939,39.348"/>
	<path display="inline" fill="#FFFFFF" stroke="#000000" stroke-miterlimit="10" d="M267.141,239.5
		c0,14.333,4.891,29.037,13.94,39.348"/>
</g>
<g>
	<path fill="#E30613" stroke="#000000" stroke-miterlimit="10" d="M281.08,278.85l-0.01-0.01c-9.04-10.31-13.931-25.01-13.931-39.34
		V131.76c0-4.68-3.83-8.51-8.5-8.51h-5.189c-4.681,0-8.51,3.83-8.51,8.51V239.5c0,14.33-4.891,29.03-13.931,39.34l-0.01,0.01
		c-6.87,6.58-11.14,15.85-11.14,26.11c0,19.98,16.199,36.18,36.18,36.18c19.979,0,36.18-16.2,36.18-36.18
		C292.22,294.7,287.95,285.43,281.08,278.85z M256.04,243.4c-2.5,0-4.521-2.02-4.521-4.52s2.021-4.52,4.521-4.52
		s4.52,2.02,4.52,4.52S258.54,243.4,256.04,243.4z M256.04,226.4c-2.5,0-4.521-2.03-4.521-4.53c0-2.49,2.021-4.52,4.521-4.52
		s4.52,2.03,4.52,4.52C260.56,224.37,258.54,226.4,256.04,226.4z M256.04,209.39c-2.5,0-4.521-2.03-4.521-4.52
		c0-2.5,2.021-4.53,4.521-4.53s4.52,2.03,4.52,4.53C260.56,207.36,258.54,209.39,256.04,209.39z M256.04,192.38
		c-2.5,0-4.521-2.03-4.521-4.52c0-2.5,2.021-4.53,4.521-4.53s4.52,2.03,4.52,4.53C260.56,190.35,258.54,192.38,256.04,192.38z
		 M256.04,175.37c-2.5,0-4.521-2.02-4.521-4.52s2.021-4.52,4.521-4.52s4.52,2.02,4.52,4.52S258.54,175.37,256.04,175.37z
		 M256.04,158.36c-2.5,0-4.521-2.02-4.521-4.52s2.021-4.52,4.521-4.52s4.52,2.02,4.52,4.52S258.54,158.36,256.04,158.36z
		 M256.04,141.36c-2.5,0-4.521-2.03-4.521-4.53c0-2.49,2.021-4.52,4.521-4.52s4.52,2.03,4.52,4.52
		C260.56,139.33,258.54,141.36,256.04,141.36z"/>
	<g display="none">
		<g display="inline">
			<path fill="#E30613" d="M260.56,238.88c0,2.5-2.02,4.52-4.52,4.52s-4.521-2.02-4.521-4.52s2.021-4.52,4.521-4.52
				S260.56,236.38,260.56,238.88z"/>
			<path fill="#E30613" stroke="#000000" stroke-miterlimit="10" d="M260.56,238.88c0,2.5-2.02,4.52-4.52,4.52
				s-4.521-2.02-4.521-4.52s2.021-4.52,4.521-4.52S260.56,236.38,260.56,238.88z"/>
		</g>
		<g display="inline">
			<path fill="#E30613" d="M260.56,221.87c0,2.5-2.02,4.53-4.52,4.53s-4.521-2.03-4.521-4.53c0-2.49,2.021-4.52,4.521-4.52
				S260.56,219.38,260.56,221.87z"/>
			<path fill="#E30613" stroke="#000000" stroke-miterlimit="10" d="M260.56,221.87c0,2.5-2.02,4.53-4.52,4.53
				s-4.521-2.03-4.521-4.53c0-2.49,2.021-4.52,4.521-4.52S260.56,219.38,260.56,221.87z"/>
		</g>
		<g display="inline">
			<path fill="#E30613" d="M260.56,204.87c0,2.49-2.02,4.52-4.52,4.52s-4.521-2.03-4.521-4.52c0-2.5,2.021-4.53,4.521-4.53
				S260.56,202.37,260.56,204.87z"/>
			<path fill="#E30613" stroke="#000000" stroke-miterlimit="10" d="M260.56,204.87c0,2.49-2.02,4.52-4.52,4.52
				s-4.521-2.03-4.521-4.52c0-2.5,2.021-4.53,4.521-4.53S260.56,202.37,260.56,204.87z"/>
		</g>
		<g display="inline">
			<path fill="#E30613" d="M260.56,187.86c0,2.49-2.02,4.52-4.52,4.52s-4.521-2.03-4.521-4.52c0-2.5,2.021-4.53,4.521-4.53
				S260.56,185.36,260.56,187.86z"/>
			<path fill="#E30613" stroke="#000000" stroke-miterlimit="10" d="M260.56,187.86c0,2.49-2.02,4.52-4.52,4.52
				s-4.521-2.03-4.521-4.52c0-2.5,2.021-4.53,4.521-4.53S260.56,185.36,260.56,187.86z"/>
		</g>
		<g display="inline">
			<path fill="#E30613" d="M260.56,170.85c0,2.5-2.02,4.52-4.52,4.52s-4.521-2.02-4.521-4.52s2.021-4.52,4.521-4.52
				S260.56,168.35,260.56,170.85z"/>
			<path fill="#E30613" stroke="#000000" stroke-miterlimit="10" d="M260.56,170.85c0,2.5-2.02,4.52-4.52,4.52
				s-4.521-2.02-4.521-4.52s2.021-4.52,4.521-4.52S260.56,168.35,260.56,170.85z"/>
		</g>
		<g display="inline">
			<path fill="#E30613" d="M260.56,153.84c0,2.5-2.02,4.52-4.52,4.52s-4.521-2.02-4.521-4.52s2.021-4.52,4.521-4.52
				S260.56,151.34,260.56,153.84z"/>
			<path fill="#E30613" stroke="#000000" stroke-miterlimit="10" d="M260.56,153.84c0,2.5-2.02,4.52-4.52,4.52
				s-4.521-2.02-4.521-4.52s2.021-4.52,4.521-4.52S260.56,151.34,260.56,153.84z"/>
		</g>
		<g display="inline">
			<path fill="#E30613" d="M260.56,136.83c0,2.5-2.02,4.53-4.52,4.53s-4.521-2.03-4.521-4.53c0-2.49,2.021-4.52,4.521-4.52
				S260.56,134.34,260.56,136.83z"/>
			<path fill="#E30613" stroke="#000000" stroke-miterlimit="10" d="M260.56,136.83c0,2.5-2.02,4.53-4.52,4.53
				s-4.521-2.03-4.521-4.53c0-2.49,2.021-4.52,4.521-4.52S260.56,134.34,260.56,136.83z"/>
		</g>
	</g>
	<path display="none" fill="#E30613" stroke="#000000" stroke-miterlimit="10" d="M244.94,239.5c0,14.33-4.891,29.03-13.931,39.34"
		/>
	<path display="none" fill="#E30613" stroke="#000000" stroke-miterlimit="10" d="M281.07,278.84
		c-9.04-10.31-13.931-25.01-13.931-39.34"/>
</g>
</svg>
