<?xml version="1.0" encoding="utf-8"?>
<!-- Generator: Adobe Illustrator 16.0.3, SVG Export Plug-In . SVG Version: 6.00 Build 0)  -->
<!DOCTYPE svg PUBLIC "-//W3C//DTD SVG 1.1//EN" "http://www.w3.org/Graphics/SVG/1.1/DTD/svg11.dtd">
<svg version="1.1" id="Ebene_1" xmlns="http://www.w3.org/2000/svg" xmlns:xlink="http://www.w3.org/1999/xlink" x="0px" y="0px"
	 width="246.447px" height="104.451px" viewBox="41.754 -12.006 246.447 104.451"
	 enable-background="new 41.754 -12.006 246.447 104.451" xml:space="preserve">
<path d="M287.856,57.681c-0.439,4.739-1.17,9.43-2.17,14.029c-1.021,4.6-2.221,9.16-3.69,13.62c-1.398,4.47-2.85,4.01-1.75-0.511
	c1.16-4.5,2.03-9.039,2.75-13.609c0.7-4.561,1.102-9.15,1.23-13.72c0.1-4.58-0.17-9.15-0.82-13.62c-0.649-4.47-1.739-8.85-3.34-13
	c-3.181-8.29-8.47-15.61-15.38-20.86c-3.44-2.65-7.229-4.83-11.221-6.55c-4-1.73-8.21-2.95-12.5-3.8
	c-8.58-1.7-17.521-1.78-26.189-0.53c-8.68,1.23-17.16,3.8-24.771,7.69c-3.33,1.69-6.46,3.66-9.311,5.87
	c-0.399,0.31-0.8,0.63-1.2,0.96c-0.75,0.61-1.47,1.24-2.159,1.89c-7.761,10.56-9.721,28.311-7.221,36.01
	c3.11,9.61,5.91,14.08-3.63,14.08c-9.55,0-10.74-1.96-7.62-13.699c2.729-10.311,0.86-28.181-6.6-37.709
	c-0.21-0.19-0.431-0.36-0.65-0.54c-3.19-2.61-6.771-4.91-10.61-6.84c-7.67-3.88-16.21-6.46-24.939-7.69
	c-8.73-1.26-17.71-1.22-26.36,0.43c-4.32,0.83-8.57,2.05-12.62,3.74c-4.04,1.69-7.87,3.84-11.359,6.45
	c-3.5,2.62-6.631,5.71-9.261,9.22c-2.649,3.52-4.8,7.42-6.449,11.56c-1.641,4.16-2.761,8.54-3.45,13.03
	c-0.67,4.488-0.971,9.07-0.851,13.67s0.511,9.21,1.21,13.8c0.71,4.58,1.61,9.15,2.79,13.671c1.11,4.529-0.33,4.989-1.729,0.5
	c-1.5-4.479-2.69-9.061-3.74-13.681c-1.01-4.63-1.72-9.34-2.17-14.101c-0.42-4.76-0.43-9.58-0.02-14.409
	c0.43-4.81,1.319-9.63,2.829-14.32c1.511-4.68,3.631-9.21,6.37-13.37c2.721-4.18,6.09-7.98,9.91-11.22
	c3.8-3.26,8.04-6.01,12.51-8.25c4.5-2.21,9.21-3.9,14.021-5.15c9.64-2.5,19.649-3.19,29.55-2.41c9.9,0.76,19.75,3,29.1,6.99
	c4.69,1.97,9.23,4.46,13.511,7.51c0.59,0.41,1.17,0.85,1.739,1.28l3.131,2.254c0,0,3.222-1.796,6.346-3.673s8.904-5.4,13.555-7.391
	c9.311-4.01,19.13-6.24,28.979-7c9.87-0.76,19.83-0.04,29.439,2.51c4.79,1.28,9.471,2.98,13.92,5.26
	c4.42,2.26,8.631,5.05,12.37,8.34c7.561,6.57,13.021,15.35,15.891,24.69c1.46,4.67,2.319,9.47,2.71,14.26
	C288.316,48.149,288.286,52.95,287.856,57.681z"/>
<path d="M137.754,65.706c-11.408,0.638-16.86-3.609-14.032-14.339c2.827-10.73-1.009-25.508-5.917-32.984
	c-4.909-7.477-12.621-15.985,1.947-11.739c14.568,4.249,14.874,5.886,12.854,12.187c-2.021,6.3-0.604,19.048-0.102,26.165
	c0.504,7.116,0.604,10.726,7.37,10.624c6.766-0.104,5.119-5.319,4.226-19.125c-0.895-13.805-14.109-25.81-2.958-21.347
	c11.151,4.461,9.33,5.071,11.559,12.979c2.229,7.908,2.42,25.435-0.054,32.677C150.174,68.043,144.508,65.329,137.754,65.706z"/>
<path d="M100.477,48.64c-0.379-3.859-1.296-10.275-2.353-14.376c-1.055-4.098,0.419-9.078,6.939-8.094
	c6.52,0.984,10.101-2.341,12.954,0.638c2.853,2.979,3.074,9.541-1.403,7.928c-4.478-1.616-6.875-0.816-8.415,0.777
	c-1.54,1.597-3.041,9.292,3.408,6.77c6.449-2.524,5.801,8.884,0.464,6.853c-5.336-2.032-4.544,8.401-0.012,6.728
	c5.378-1.992,6.402-0.541,8.162,4.084c1.759,4.625-1.019,6.188-7.051,5.31c-6.031-0.886-14.489,3.854-13.77-1.163
	C100.122,59.067,100.854,52.504,100.477,48.64z"/>
<path d="M178.568,27.01c9.188-25.111,52.947-26.235,68.813-20.753c15.865,5.483-6.951,20.794-7.619,13.026
	c-0.669-7.771-13.646-7.555-27.641-6.64c-13.994,0.914-20.224,8.297-21.271,11.8c-1.057,3.502,3.645,5.57,9.316,2.216
	c5.678-3.356,5.664,8.908,2.164,11.433c-3.506,2.525-7.191-0.454-12.969-2.081c-5.779-1.627-5.787,17.043,1.979,17.665
	c7.768,0.623,10.396-9.021,13.594-0.641c3.188,8.38-3.071,12.063-13.045,11.51C181.92,63.989,169.381,52.123,178.568,27.01z"/>
<path d="M241.603,65.438c-4.731-0.756-3.324-3.852-3.394-11.451c-0.067-7.604,0.045-14.89,1.402-21.079
	c1.359-6.19,10.234-12.607,15.957-5.481c5.725,7.126,7.393,11.374,7.936,22.542c0.541,11.169,10.289,4.173,6.381-8.247
	c-3.909-12.418-18.629-18.345-13.354-26.409c4.422-6.761,11.672,1.929,15.559,8.424c5.729,9.579,12.048,27.743,6.089,43.446
	c-4.634,12.211-1.476,15.996-1.697,21.854c-0.219,5.877-5.586,3.345-4.347-1.502c1.132-4.92,0.507-12.2-8.868-17.403
	s-10.228-18.086-9.875-26.578c0.353-8.492-6.779-8.225-6.248-4.396c0.53,3.828,5.666,22.229,3.498,24.563
	C248.476,66.054,245.275,66.022,241.603,65.438z"/>
<path d="M89.449,36.254C97.206,37.279,93.863,28.25,97,24.67l-5.039-3.032c-1.272,1.969-2.897,3.247-4.357,2.225
	c-3.329-2.33-6.662-0.336-6.764-3.757c-0.031-1.077,1.161-2.325,2.842-3.451l-10.997-6.618
	c-12.867,7.809-22.743,23.231-23.673,45.999C47.6,90.589,57.289,90.724,61.027,83.094c3.736-7.633-15.743-28.651-1.407-49.981
	c14.336-21.329,14.634-2.104,12.009,3.282c-2.625,5.39-18.678,42.54-5.4,35.595c13.276-6.942,12.469-8.652,10.45-15.394
	c-2.021-6.736,2.221-13.921,5.451-4.938c3.231,8.979-2.826,13.196,1.01,14.125c3.835,0.931,18.98,2.491,11.912-10.755
	C87.984,41.778,80.919,35.127,89.449,36.254z"/>
<path d="M94.243,4.067c-6.891-0.072-13.8,1.646-20.075,5.112l10.965,6.599c3.604-1.981,8.269-3.234,8.913-1.729
	c0.506,1.18-0.152,3.938-1.34,6.286l5.583,3.36C103.442,20.9,115.855,4.29,94.243,4.067z"/>
<path d="M225.187,40.933c-2.128-3.253,2.548-2.765,7.146-6.108l-6.882-4.141c-1.744,1.604-2.89,2.236-6.02,2.917
	c-2.049,0.447-4.111-4.798-3.267-8.505l-9.261-5.573c-0.332,1.566,0.198,3.624,1.194,6.201c2.623,6.791,3.733,22.363,0.325,32.967
	c-3.407,10.6,3.541,5.153,10.4,6.356c5.754,1.009,2.301-9.637-1.139-16.862c-3.438-7.226,7.096,1.213,8.002,7.774
	c0.907,6.563,2.119,8.56,6.895,8.708c4.771,0.148,3.103-3.355,3.14-10.828C235.758,46.367,228.015,45.257,225.187,40.933z"/>
<path d="M217.207,15.671c-5.527,0.035-8.457,0.84-9.686,2.471l9.172,5.519c0.854-1.567,2.53-2.504,5.404-1.903
	c8.354,1.749,6.384,5.661,4.45,7.834l7.021,4.224c1.081-0.978,2.122-2.209,3.029-3.805
	C241.644,21.128,228.344,15.601,217.207,15.671z"/>
</svg>
