<?xml version="1.0" encoding="utf-8"?>
<!-- Generator: Adobe Illustrator 16.0.3, SVG Export Plug-In . SVG Version: 6.00 Build 0)  -->
<!DOCTYPE svg PUBLIC "-//W3C//DTD SVG 1.1//EN" "http://www.w3.org/Graphics/SVG/1.1/DTD/svg11.dtd">
<svg version="1.1" id="Ebene_1" xmlns="http://www.w3.org/2000/svg" xmlns:xlink="http://www.w3.org/1999/xlink" x="0px" y="0px"
	 width="257.953px" height="218.268px" viewBox="0 0 257.953 218.268" enable-background="new 0 0 257.953 218.268"
	 xml:space="preserve">
<g>
	<path d="M81.662,215.843c-0.174-0.006-0.325-0.011-0.488-0.038l-0.566-0.022l-1.509-0.081l-1.002-0.064
		c-0.681-0.041-1.359-0.083-2.064-0.152l-0.142-0.019c-0.767-0.131-1.528-0.245-2.289-0.358l-0.837-0.126l-1.603-0.264
		c-0.5-0.095-0.927-0.204-1.356-0.316l-3.453-0.885l-0.057-0.019c-4.858-1.559-8.66-3.199-11.958-5.16
		c-1.424-0.754-2.724-1.641-3.981-2.497c-0.49-0.335-0.979-0.669-1.476-0.994l-0.077-0.051l-0.072-0.057
		c-0.46-0.366-0.926-0.724-1.392-1.082c-1.229-0.943-2.5-1.92-3.678-3.051c-2.938-2.55-5.87-5.661-8.888-9.445
		c-2.673-3.349-5.125-6.995-7.289-10.836c-0.35-0.577-0.695-1.229-1.039-1.88c-0.166-0.314-0.332-0.629-0.502-0.939l-0.265-0.507
		c-0.179-0.338-0.355-0.673-0.537-1.065l-0.283-0.603l-6.939-12.08l-0.041-0.169c-0.134-0.333-0.62-1.444-1.051-2.433
		c-0.668-1.53-1.453-3.327-1.845-4.296c-1.595-3.964-3.423-8.652-4.905-13.404c-1.349-4.027-2.555-8.436-3.781-13.832
		c-1.001-4.589-1.744-9.412-2.211-14.354c-0.432-4.895-0.438-9.858-0.021-14.769c0.468-5.236,1.45-10.2,2.919-14.764
		c1.607-4.982,3.829-9.645,6.603-13.857c2.813-4.322,6.276-8.243,10.287-11.645c3.8-3.26,8.146-6.127,12.908-8.513
		c4.458-2.189,9.303-3.97,14.413-5.297c7.11-1.844,14.642-2.779,22.388-2.779c2.575,0,5.207,0.104,7.822,0.311
		c10.505,0.806,20.508,3.21,29.728,7.144c4.581,1.924,8.942,4.305,12.971,7.081c3.656-20.614,17.425-35.554,25.583-42.815
		c2.122-1.887,2.034-2.355,1.888-3.129c-0.272-1.37-0.838-4.222,2.075-7.107c1.434-1.434,3.499-2.196,5.965-2.196
		c2.712,0,5.906,0.924,8.764,2.534c4.313,2.449,6.332,5.627,5.547,8.724c-0.603,2.467-2.826,3.976-7.258,6.98L166.5,20.78
		c-8.923,6.027-23.786,16.067-28.668,34.79c-0.022,0.089-0.045,0.178-0.067,0.267c3.193-1.998,6.563-3.757,10.075-5.261
		c9.139-3.936,19.104-6.344,29.612-7.155c2.524-0.194,5.063-0.293,7.547-0.293c7.808,0,15.398,0.964,22.561,2.864
		c5.279,1.411,9.962,3.181,14.319,5.413c4.725,2.417,9.024,5.316,12.779,8.619c7.574,6.583,13.43,15.678,16.48,25.604
		c1.431,4.579,2.371,9.522,2.791,14.685c0.387,4.895,0.359,9.833-0.081,14.683c-0.462,4.858-1.204,9.658-2.208,14.274
		c-1.145,5.109-2.372,9.627-3.755,13.821c-1.333,4.289-3.618,10.723-4.878,13.412c-0.713,1.534-4.11,7.695-6.84,12.646
		c-1.104,2.003-2.074,3.763-2.657,4.836l-0.222,0.523c0,0-0.453,0.97-0.503,1.073v0.033l-0.226,0.453c0,0-0.254,0.487-0.739,1.397
		c-0.195,0.403-0.495,0.994-0.858,1.679c-0.2,0.373-0.42,0.768-0.657,1.193c-0.199,0.358-0.412,0.739-0.633,1.145
		c-1.362,2.372-2.644,4.403-4.054,6.435c-1.854,2.725-3.981,5.453-6.313,8.093c-2.627,2.938-5.856,5.854-9.607,8.675
		c-4.216,3.068-8.771,5.548-13.564,7.389c0,0-1.606,0.572-1.93,0.69c-0.747,0.281-1.441,0.532-2.212,0.704
		c-0.455,0.116-0.971,0.252-1.488,0.389c-0.847,0.223-1.7,0.448-2.563,0.654l-0.077,0.019l-0.078,0.012
		c-0.785,0.123-1.576,0.252-2.373,0.382l-1.913,0.309c-1.067,0.148-2.102,0.21-3.103,0.27c-0.495,0.029-0.992,0.059-1.493,0.099
		l-1.385,0.086c-0.039,0.003-0.086,0.004-0.154,0.004c-0.043,0-0.109-0.001-0.227-0.006l-0.172,0.002l-2.776-0.04
		c-0.276-0.007-0.523-0.008-0.771-0.009c-0.525-0.001-1.052-0.005-1.605-0.047l-2.413-0.202c-2.987-0.232-6.153-0.786-9.944-1.742
		c-3.561-1.034-6.87-2.309-9.905-3.806c-1.667-0.831-3.275-1.727-4.83-2.592c-1.4-0.78-2.723-1.517-4.05-2.188
		c-3.027-1.545-5.638-2.395-8.222-2.676c-0.415-0.058-0.812-0.071-1.232-0.087c-0.361-0.013-0.724-0.026-1.086-0.059l-0.279-0.02
		l-1.882,0.094c-0.6,0.009-1.006,0.082-1.477,0.166c-0.23,0.041-0.459,0.082-0.7,0.117c-0.505,0.051-1.038,0.199-1.602,0.355
		l-0.455,0.126c-2.862,0.801-5.756,2.343-8.969,4.127c-3.169,1.76-6.881,3.757-10.847,5.2c-3.689,1.334-7.686,2.283-12.223,2.903
		l-3.124,0.28l-1.592,0.136l-1.585,0.032c-0.681,0.02-1.38,0.031-2.081,0.042l-1.269,0.025l-0.25,0.025L81.662,215.843z"/>
	<path d="M159.614,4.427c2.544,0,5.43,0.951,7.782,2.276c3.45,1.96,5.14,4.32,4.59,6.49c-0.43,1.76-2.51,3.15-6.609,5.93
		c-9,6.08-24.4,16.46-29.48,35.94c-0.42,1.66-0.78,3.37-1.05,5.16c0.11-0.09,0.229-0.17,0.35-0.26c4.261-3.06,8.78-5.56,13.431-7.55
		c9.31-4.01,19.13-6.24,28.979-7c2.461-0.189,4.928-0.287,7.394-0.287c7.422,0,14.833,0.883,22.047,2.797
		c4.79,1.28,9.47,2.98,13.92,5.26c4.42,2.26,8.63,5.05,12.37,8.34c7.56,6.57,13.02,15.35,15.89,24.69
		c1.46,4.67,2.32,9.47,2.71,14.26c0.38,4.81,0.35,9.61-0.08,14.34c-0.45,4.74-1.17,9.431-2.17,14.03c-1.03,4.6-2.229,9.16-3.7,13.62
		c-1.39,4.47-3.609,10.67-4.79,13.189c-0.979,2.11-7.56,13.9-9.489,17.461c0.079-0.2,0.17-0.4,0.26-0.631
		c-0.311,0.631-0.55,1.11-0.67,1.381c0.1-0.171,0.229-0.431,0.41-0.75c-0.091,0.21-0.171,0.409-0.25,0.59
		c-0.44,0.939-0.66,1.42-0.671,1.42v0.02c0,0-0.25,0.48-0.729,1.38c-0.22,0.45-0.51,1.021-0.86,1.681
		c-0.359,0.67-0.8,1.439-1.279,2.319c-1,1.74-2.28,3.86-3.94,6.25c-1.64,2.41-3.67,5.08-6.17,7.91c-2.521,2.82-5.64,5.641-9.311,8.4
		c-3.71,2.7-8.079,5.2-13.079,7.12c-0.631,0.229-1.271,0.449-1.9,0.68c-0.64,0.24-1.29,0.48-1.96,0.63
		c-1.34,0.34-2.7,0.72-4.08,1.05c-1.41,0.221-2.84,0.46-4.29,0.69c-1.44,0.2-2.93,0.229-4.44,0.35l-1.149,0.07l-0.13,0.01
		c-0.06,0-0.054,0.004-0.102,0.004c-0.024,0-0.063-0.001-0.129-0.004h-0.27l-0.55-0.01c-0.73-0.01-1.471-0.021-2.2-0.03
		c-0.75-0.02-1.471,0.01-2.25-0.05c-0.8-0.07-1.59-0.13-2.391-0.2c-3.21-0.25-6.38-0.87-9.63-1.689c-3.2-0.931-6.43-2.141-9.51-3.66
		c-3.07-1.53-5.979-3.311-8.86-4.771c-2.899-1.479-5.79-2.54-8.909-2.88c-0.78-0.109-1.57-0.08-2.36-0.149l-0.29-0.021l-0.14-0.01
		l-0.67,0.03l-1.34,0.069c-0.96,0.011-1.6,0.19-2.36,0.301c-0.72,0.069-1.51,0.319-2.29,0.529c-3.11,0.87-6.16,2.5-9.42,4.311
		c-3.26,1.81-6.77,3.689-10.56,5.069c-3.79,1.37-7.78,2.25-11.81,2.801c-1.01,0.09-2.02,0.18-3.03,0.27l-1.52,0.13l-1.52,0.03
		c-1.02,0.03-2.04,0.04-3.06,0.06l-0.38,0.011l-0.19,0.02c-0.3-0.01-0.19-0.01-0.3-0.03l-0.74-0.029l-1.48-0.08
		c-1-0.07-1.96-0.11-2.98-0.21c-1.06-0.181-2.11-0.33-3.16-0.49l-1.58-0.26c-0.53-0.101-1.02-0.24-1.53-0.37l-3.05-0.78
		c-3.99-1.28-7.95-2.83-11.59-5c-1.88-0.99-3.57-2.26-5.34-3.42c-1.66-1.32-3.4-2.54-4.93-4.01c-3.2-2.78-6.07-5.94-8.71-9.25
		c-2.65-3.32-5.02-6.86-7.11-10.57c-0.55-0.91-1.02-1.87-1.53-2.8c-0.25-0.49-0.49-0.91-0.74-1.45c-0.1-0.22-0.21-0.44-0.31-0.66
		l0.16,0.28c-0.05-0.11-0.17-0.37-0.37-0.74c0.06,0.141,0.12,0.28,0.19,0.42l-6.83-11.89c-0.06-0.25-2.22-5.07-2.96-6.9
		c-1.75-4.35-3.45-8.76-4.85-13.25c-1.5-4.479-2.69-9.06-3.74-13.68c-1.01-4.63-1.72-9.34-2.17-14.1
		c-0.42-4.761-0.43-9.581-0.02-14.411c0.43-4.81,1.32-9.63,2.83-14.32c1.51-4.68,3.63-9.21,6.37-13.37
		c2.72-4.18,6.09-7.98,9.91-11.22c3.8-3.26,8.04-6.01,12.51-8.25c4.5-2.21,9.21-3.9,14.02-5.15
		c7.156-1.856,14.517-2.714,21.885-2.714c2.557,0,5.115,0.103,7.665,0.304c9.9,0.76,19.75,3,29.1,6.99
		c4.69,1.97,9.23,4.46,13.51,7.51c0.59,0.41,1.17,0.85,1.74,1.28c2.58-21.5,16.689-37.1,25.42-44.87c2.979-2.65,2.76-3.74,2.52-5.01
		c-0.25-1.26-0.63-3.17,1.521-5.3C156.201,4.9,157.823,4.427,159.614,4.427 M159.614,0.427c-3.008,0-5.563,0.964-7.387,2.789
		c-3.641,3.606-2.91,7.417-2.62,8.88c-0.178,0.228-0.541,0.639-1.249,1.27c-7.965,7.089-21.151,21.334-25.627,41.01
		c-3.414-2.148-7.049-4.039-10.835-5.63c-9.4-4.011-19.616-6.467-30.343-7.29c-2.659-0.209-5.344-0.316-7.971-0.316
		c-7.915,0-15.616,0.956-22.889,2.842c-5.242,1.362-10.214,3.19-14.779,5.432c-4.937,2.473-9.419,5.431-13.352,8.804
		c-4.142,3.513-7.733,7.58-10.658,12.074c-2.861,4.345-5.162,9.17-6.824,14.324c-1.516,4.707-2.527,9.817-3.007,15.192
		c-0.428,5.042-0.421,10.122,0.02,15.118c0.477,5.047,1.231,9.951,2.246,14.601c1.245,5.48,2.464,9.938,3.842,14.059
		c1.501,4.805,3.342,9.525,4.945,13.512c0.411,1.016,1.186,2.79,1.87,4.355c0.361,0.826,0.798,1.826,0.975,2.249l0.071,0.297
		l0.287,0.498l6.75,11.751c0.037,0.079,0.075,0.158,0.113,0.238c0.042,0.089,0.085,0.178,0.125,0.267
		c0.22,0.476,0.418,0.851,0.594,1.182c0.074,0.14,0.148,0.28,0.223,0.428l0.027,0.053l0.029,0.053
		c0.165,0.302,0.326,0.606,0.487,0.911c0.338,0.641,0.687,1.302,1.093,1.979c2.209,3.915,4.712,7.634,7.44,11.052
		c3.07,3.849,6.061,7.026,9.14,9.711c1.235,1.176,2.524,2.166,3.772,3.124c0.457,0.351,0.914,0.701,1.365,1.061l0.144,0.114
		l0.153,0.101c0.486,0.318,0.966,0.646,1.446,0.973c1.29,0.88,2.623,1.789,4.127,2.59c3.422,2.029,7.342,3.721,12.328,5.32
		l0.114,0.037l0.117,0.029l3.05,0.78l0.334,0.087c0.422,0.11,0.901,0.235,1.441,0.338l0.048,0.01l0.049,0.008l1.58,0.26l0.887,0.134
		c0.747,0.112,1.496,0.224,2.25,0.353l0.141,0.023l0.143,0.015c0.753,0.073,1.458,0.116,2.138,0.158
		c0.315,0.019,0.63,0.038,0.95,0.061l0.032,0.002l0.032,0.002l1.48,0.08l0.029,0.002l0.029,0.001l0.459,0.018
		c0.23,0.03,0.431,0.037,0.609,0.043l0.27,0.009l0.269-0.027l0.042-0.005l0.231-0.007l0.936-0.016c0.71-0.011,1.42-0.022,2.13-0.044
		l1.481-0.029l0.131-0.003l0.13-0.011l1.52-0.13l1.529-0.136l1.515-0.135l0.094-0.009l0.093-0.013
		c4.678-0.64,8.809-1.621,12.628-3.002c4.112-1.497,7.907-3.538,11.142-5.334c3.101-1.722,5.885-3.208,8.557-3.955l0.434-0.12
		c0.413-0.114,0.927-0.258,1.162-0.28l0.096-0.009l0.095-0.014c0.263-0.039,0.514-0.083,0.766-0.128
		c0.429-0.077,0.713-0.128,1.064-0.132l0.081-0.001l0.081-0.004l1.34-0.069l0.413-0.02l0.169,0.013
		c0.384,0.032,0.768,0.048,1.15,0.062c0.368,0.013,0.715,0.025,0.966,0.061l0.062,0.009l0.061,0.007
		c2.335,0.254,4.726,1.038,7.524,2.466c1.303,0.66,2.608,1.388,3.991,2.157c1.574,0.877,3.202,1.783,4.903,2.631
		c3.154,1.557,6.574,2.873,10.177,3.921l0.069,0.021l0.07,0.018c3.903,0.983,7.175,1.556,10.297,1.799
		c0.367,0.032,0.771,0.065,1.176,0.098c0.391,0.032,0.782,0.064,1.175,0.099c0.694,0.054,1.28,0.056,1.798,0.057
		c0.231,0.001,0.464,0.001,0.698,0.008h0.025l0.025,0.001l1.088,0.015l1.112,0.016l0.532,0.009l0.036,0.001h0.035h0.185
		c0.103,0.004,0.168,0.004,0.214,0.004h0.183l0.053-0.004h0.016l0.149-0.011l0.103-0.008l1.122-0.069l0.036-0.002l0.037-0.003
		c0.486-0.039,0.972-0.067,1.452-0.096c1.04-0.062,2.115-0.125,3.222-0.279l0.038-0.005l0.039-0.007
		c0.644-0.102,1.282-0.206,1.918-0.31c0.794-0.129,1.581-0.257,2.362-0.379l0.157-0.024l0.155-0.037
		c0.876-0.21,1.745-0.438,2.605-0.666c0.495-0.13,0.988-0.26,1.479-0.385c0.944-0.216,1.802-0.538,2.432-0.774
		c0.285-0.104,0.604-0.218,0.925-0.331c0.313-0.11,0.626-0.222,0.937-0.335l0.033-0.012l0.033-0.013
		c4.957-1.903,9.667-4.468,13.999-7.62l0.025-0.019l0.024-0.019c3.856-2.899,7.184-5.904,9.89-8.933
		c2.402-2.72,4.583-5.515,6.495-8.325c1.421-2.046,2.731-4.124,4.101-6.507l0.022-0.039l0.022-0.04
		c0.217-0.399,0.427-0.775,0.623-1.128c0.243-0.436,0.468-0.84,0.668-1.215c0.338-0.636,0.646-1.235,0.898-1.751
		c0.471-0.883,0.716-1.354,0.716-1.354l0.451-0.868v-0.094l0.293-0.626l0.021-0.047l0.021-0.047c0.05-0.113,0.1-0.232,0.152-0.357
		l0.041-0.099c0.586-1.076,1.531-2.792,2.604-4.738c3.491-6.33,6.216-11.291,6.905-12.777c1.328-2.833,3.613-9.288,4.972-13.653
		c1.399-4.248,2.641-8.816,3.794-13.966c1.025-4.718,1.78-9.597,2.249-14.526c0.452-4.979,0.48-10.03,0.085-15.033
		c-0.433-5.319-1.401-10.409-2.88-15.138c-3.152-10.26-9.222-19.684-17.083-26.516c-3.861-3.396-8.299-6.39-13.173-8.883
		c-4.482-2.296-9.294-4.116-14.709-5.563c-7.336-1.947-15.1-2.933-23.079-2.933c-2.535,0-5.126,0.1-7.7,0.298
		c-10.73,0.828-20.909,3.289-30.255,7.314c-1.99,0.852-3.938,1.785-5.834,2.794c5.726-15.126,18.474-23.737,26.367-29.07
		l0.003-0.002l0.041-0.028l0.167-0.113c4.703-3.189,7.294-4.946,8.083-8.179c0.476-1.875,0.812-6.764-6.5-10.917
		C166.212,1.445,162.66,0.427,159.614,0.427L159.614,0.427z"/>
</g>
<g id="Ebene_2" display="none">
	<g display="inline">
		<g>
			<path fill="#FFFFFF" d="M201.6,135.833c-5.604,0.646-13.458,8.521-15.291,14.854s-0.75,10.582-2.25,18.082
				s-8.325,21.716-12.209,29.172s14.604,6.309,12.313-1.279c-2.291-7.586,2.729-20.101,5.145-19.636
				c2.416,0.466,2.415,0.466,4.915-0.181s-1.144,10.402-3.935,18.674c-2.793,8.271,14.354,0.854,11.396-5.063
				s0.646-16.646,2.19-24.938S207.204,135.187,201.6,135.833z M196.657,166.816c-1.141,2.496-6.276,1.691-6.053-0.438
				c0.225-2.129,0.811-7.393,1.768-10.316s4.371-8.379,5.603-5.627S197.798,164.32,196.657,166.816z"/>
			<path fill="#FFFFFF" d="M36.587,152.611c0.098-12.533-0.008-21.464,14.688-21.162c14.697,0.299,32.356,20.164,32.712,27.688
				c0.354,7.524-6.847,16.079-13.987,14.931c-7.14-1.148,3.14-6.061,0.434-10.919c-2.707-4.856-7.853-13.604-15.425-13.704
				c-7.572-0.104-5.792,5.653-5.792,8.063c0,2.406,5.792,5.865,8.518,3.949c2.726-1.918,4.443-3.023,4.443,4.849
				c0,7.875-3.939,8.683-5.251,6.259c-1.312-2.423-8.077-6.061-8.077,3.131c0,9.188,0.814,12.245,3.054,12.885
				c2.24,0.639,4.948,10.467-0.707,6.227c-5.027-3.771-18.399-19.409-18.501-21.934c-0.102-2.522,4.137-0.906,4.137-4.039
				C36.835,160.85,36.75,162.062,36.587,152.611z"/>
			<path fill="#FFFFFF" d="M57.357,187.933c-0.213-9.918-1.099-12.835,3.709-11.889c4.809,0.947,15.092-0.121,17.504-1.668
				c2.412-1.551,2.79-0.039,2.221,2.16c-0.605,2.348-0.946,4.275-0.491,6.928c0.46,2.688-4.505-1.932-7.951-1.932
				s-5.301,1.1-5.452,3.143c-0.151,2.047,0.682,2.652,2.575,2.652c1.892,0,0.757-1.326,4.506-1.326c1.822,0,2.838,1.593,2.838,3.029
				c0,1.438-0.846,3.295-3.18,3.295s-2.994-1.031-4.725-1.031s-2.317,1.183-2.317,3.83c0,2.648,0.893,3.604,3.817,3.604
				s3.678-0.042,5.117-2.162c1.439-2.119,4.392-4.619,4.166,1.288c-0.227,5.905,0.605,7.724-3.105,7.496
				c-3.71-0.228-16.212-4.438-18.029-6.029C56.743,197.73,57.513,195.124,57.357,187.933z"/>
			<path fill="#FFFFFF" d="M234.321,152.206c-0.449-3.688-1.5-7.76-3.609-11.729c-2.09-3.95-5.408-7.79-10.051-10.3
				c-4.619-2.5-10.328-3.521-16.209-3.4c-2.961,0.11-6.011,0.63-9.011,1.642c-3,1.011-5.899,2.551-8.6,4.398
				c-5.44,3.71-10.15,8.48-15.37,12.62c-2.609,2.069-5.33,4.021-8.21,5.729c-2.88,1.711-5.96,3.108-9.16,4.301
				c-3.21,1.16-6.59,1.988-10.069,2.568c-0.881,0.142-1.74,0.301-2.631,0.42c-0.88,0.109-1.77,0.201-2.66,0.301
				c-0.897,0.131-1.779,0.141-2.658,0.211c-0.909,0.039-1.729,0.14-2.711,0.13c-7.451,0.17-14.879-0.2-22.221-1.841
				c-7.31-1.609-14.4-4.629-20.88-9.221c-3.25-2.271-6.39-4.851-9.521-7.529c-3.159-2.659-6.349-5.43-9.919-7.739
				c-3.55-2.319-7.53-4.12-11.72-4.95c-4.2-0.8-8.47-0.84-12.68-0.18c-4.19,0.71-8.28,2.189-11.79,4.67
				c-1.73,1.25-3.31,2.72-4.67,4.38c-1.36,1.67-2.46,3.53-3.41,5.46c-1.89,3.87-2.86,8.15-3.22,12.43
				c-0.33,4.291-0.04,8.643,0.95,12.853c0.49,2.118,1.1,4.159,2,6.229c0.21,0.5,0.44,0.961,0.66,1.439
				c0.25,0.54,0.49,0.96,0.74,1.449c0.51,0.931,0.98,1.891,1.53,2.801c2.09,3.71,4.46,7.25,7.11,10.561
				c2.64,3.319,5.51,6.471,8.71,9.25c1.53,1.471,3.27,2.699,4.93,4.012c1.77,1.158,3.46,2.438,5.34,3.42c3.64,2.17,7.6,3.72,11.59,5
				l3.05,0.779c0.51,0.129,1,0.278,1.53,0.369l1.58,0.26c1.05,0.16,2.1,0.319,3.16,0.49c1.02,0.109,1.98,0.141,2.98,0.211l1.48,0.08
				l0.739,0.038c0.111,0.011,0,0.011,0.301,0.021l0.189-0.012l0.381-0.01c1.02-0.02,2.039-0.029,3.06-0.061l1.521-0.029l1.52-0.13
				c1.01-0.091,2.02-0.181,3.029-0.271c4.031-0.552,8.021-1.432,11.811-2.802c3.79-1.38,7.301-3.26,10.561-5.069
				c3.26-1.811,6.31-3.438,9.42-4.311c0.779-0.21,1.57-0.46,2.289-0.529c0.761-0.109,1.4-0.289,2.361-0.301l1.34-0.068l0.67-0.029
				l0.147,0.01l0.29,0.02c0.79,0.063,1.58,0.041,2.359,0.143c3.119,0.34,6.011,1.408,8.91,2.88c2.879,1.46,5.789,3.24,8.858,4.778
				c3.08,1.512,6.312,2.722,9.511,3.66c3.25,0.812,6.42,1.439,9.631,1.689c0.799,0.07,1.59,0.13,2.391,0.2
				c0.779,0.06,1.5,0.03,2.25,0.05c0.729,0.01,1.47,0.021,2.199,0.03l0.551,0.01h0.271c0.198,0.011,0.141,0,0.229,0l0.13-0.01
				l1.142-0.07c1.51-0.12,3-0.149,4.448-0.351c1.45-0.229,2.882-0.471,4.29-0.689c1.38-0.33,2.74-0.71,4.08-1.05
				c0.67-0.149,1.318-0.39,1.96-0.63c0.63-0.23,1.271-0.45,1.899-0.682c5-1.92,9.369-4.42,13.08-7.119
				c3.67-2.76,6.789-5.58,9.311-8.399c2.5-2.83,4.529-5.5,6.17-7.91c1.66-2.39,2.932-4.51,3.932-6.25
				c0.488-0.88,0.92-1.649,1.289-2.319c0.342-0.66,0.631-1.229,0.859-1.688c0.479-0.899,0.729-1.38,0.729-1.38v-0.012
				c0.011,0,0.229-0.488,0.67-1.42c0.41-0.961,1.012-2.391,1.562-4.33C234.151,165.546,235.262,159.626,234.321,152.206z
				 M233.161,161.977c-0.43,2.78-1.049,5.09-1.67,6.92c-0.59,1.83-1.199,3.17-1.619,4.06c-0.41,0.813-0.641,1.25-0.681,1.32
				c-0.01,0.021-0.26,0.48-0.771,1.33c-0.279,0.43-0.619,0.971-1.021,1.609c-0.408,0.609-0.898,1.32-1.449,2.109
				c-2.238,3.159-5.709,7.779-11.029,12.569c-2.659,2.38-5.629,4.938-9.149,7.3c-3.55,2.313-7.63,4.37-12.188,5.86
				c-1.159,0.312-2.291,0.778-3.512,0.989c-1.209,0.25-2.438,0.488-3.68,0.738c-1.26,0.131-2.54,0.271-3.84,0.41
				c-1.29,0.11-2.631,0.051-3.96,0.09l-1,0.012l-0.13,0.011l-0.271-0.021l-0.55-0.039c-0.72-0.041-1.46-0.09-2.19-0.142
				c-0.729-0.062-1.529-0.069-2.199-0.17s-1.34-0.188-2.021-0.279c-2.7-0.319-5.54-1.028-8.271-1.841
				c-2.729-0.898-5.409-2.021-8.1-3.47c-2.722-1.421-5.5-3.189-8.779-4.931c-1.893-1.012-4.041-1.961-6.342-2.66
				c-0.568,0.631-1.238,1.131-1.949,1.511c-2.602,1.448-5.709,1.448-6.971,1.448c-2.82,0-5.791-0.18-8.361-1.09
				c-0.899-0.311-1.739-0.721-2.52-1.229c-3.279,1.189-6.22,2.84-8.869,4.37c-3.221,1.851-6.23,3.521-9.461,4.76
				c-3.199,1.271-6.6,2.131-10.13,2.75c-0.899,0.103-1.8,0.222-2.7,0.33l-1.359,0.17l-1.381,0.08c-0.92,0.062-1.85,0.108-2.779,0.16
				l-0.35,0.028l-0.15,0.012c-0.01,0-0.01,0-0.02,0l-0.73-0.021l-1.48-0.029c-0.979-0.029-2.01-0.021-2.95-0.069l-2.62-0.3
				l-1.32-0.143c-0.44-0.06-0.9-0.18-1.35-0.26l-2.73-0.561c-3.58-0.971-7.18-2.149-10.55-3.971c-1.75-0.779-3.33-1.88-5.01-2.851
				c-1.56-1.142-3.22-2.188-4.7-3.472c-3.08-2.43-5.91-5.25-8.55-8.271c-2.65-3.01-5.09-6.26-7.28-9.698
				c-0.57-0.842-1.07-1.729-1.6-2.602c-0.25-0.42-0.57-0.92-0.75-1.279c-0.24-0.449-0.52-0.939-0.73-1.369
				c-0.84-1.642-1.58-3.58-2.15-5.479c-1.14-3.841-1.71-7.921-1.66-11.99c0.07-4.067,0.71-8.181,2.26-11.979
				c0.77-1.91,1.77-3.711,2.99-5.359c1.24-1.648,2.71-3.102,4.34-4.359c1.62-1.271,3.46-2.261,5.39-3.021
				c1.93-0.74,3.98-1.13,6.02-1.431c2.05-0.221,4.14-0.319,6.17-0.211c1.05,0.062,2.1,0.109,3.08,0.312
				c1,0.108,1.99,0.37,2.98,0.601c1.96,0.521,3.85,1.25,5.61,2.221c0.9,0.438,1.74,1.011,2.59,1.529
				c0.81,0.592,1.64,1.149,2.41,1.801c3.14,2.511,5.87,5.541,8.62,8.608c2.76,3.052,5.541,6.229,8.65,9.183
				c3.11,2.938,6.57,5.658,10.34,7.89c3.74,2.28,7.801,4,11.91,5.34c1.03,0.3,2.07,0.569,3.11,0.851
				c1.04,0.271,2.079,0.461,3.12,0.682c0.939,0.229,1.89,0.369,2.83,0.521c0.129,0.061,0.27,0.129,0.399,0.209
				c0.36,0.189,0.71,0.42,1.021,0.689c1.779,1.529,2.58,4.369,0.41,10.609c-3.03,8.699-0.82,12.028,4.039,13.17
				c0.391,0.09,0.801,0.17,1.23,0.238c1.41,0.211,3,0.291,4.721,0.291c1.512,0,2.771-0.141,3.789-0.421c0.012,0,0.012,0,0.021,0
				c0.32-0.09,0.631-0.188,0.9-0.319c3.789-1.619,3.198-5.959,0.061-13.34c-2.23-5.25-0.182-8.211,2.729-9.949
				c0.41-0.239,0.83-0.461,1.262-0.649c0.129-0.069,0.261-0.12,0.391-0.181c0.271-0.029,0.529-0.062,0.79-0.102
				c1.01-0.14,2.01-0.27,3.01-0.398c1-0.182,2-0.409,2.99-0.609c3.938-0.898,7.83-2.01,11.47-3.66
				c7.342-3.22,13.551-8.068,18.512-13.14c5.021-5.052,9.028-10.25,13.58-14.181c2.278-1.961,4.67-3.642,7.25-4.819
				c2.568-1.181,5.301-1.91,8.051-2.271c0.688-0.061,1.379-0.131,2.06-0.199c0.62-0.029,1.399-0.029,2.08-0.039
				c0.72-0.041,1.36,0.029,2.03,0.06c0.658,0.03,1.318,0.08,1.979,0.181c2.631,0.301,5.16,1,7.42,2.09
				c0.98,0.479,1.9,1.021,2.76,1.642c3.183,2.101,5.631,4.97,7.24,7.989c1.07,1.921,1.811,3.921,2.33,5.869
				c0.53,1.939,0.83,3.852,0.99,5.67C233.852,155.927,233.571,159.187,233.161,161.977z"/>
			<path fill="#FFFFFF" d="M147.491,169.229c10.157,0,3.457,5.896,3.457,11.563c0,5.677,7.262,12.293-4.722,12.293
				c-11.979,0-3.843-6.387-3.843-13.156C142.393,173.149,137.333,169.229,147.491,169.229z"/>
			<path fill="#FFFFFF" d="M157.745,186.417c1.254-6.186-0.328-7.283-1.451-11.58c-1.131-4.295,0.6-7.672,4.224-9.881
				c3.624-2.207,6.708-4.623,8.104,0.146c1.396,4.77-2.506,4.232-3.39,4.43c-0.883,0.196-3.688,1.187-2.224,7.879
				c1.465,6.691-0.829,16.781,3.455,9.365c4.285-7.416,6.393-16.461,5.785-20.441c-0.608-3.981-0.94-9.041,1.977-11.731
				s9.686-8.164,7.958-2.208s-0.704,11.016-2.467,17.122s-8.704,21.653-11.776,26.989c-3.072,5.334-2.833,6.824-9.22,3.42
				C152.333,196.522,156.491,192.601,157.745,186.417z"/>
			<path display="none" fill="#FFFFFF" d="M201.612,133.011c-7.783,3.176-9.916,5.588-12.818,10.568
				c-2.901,4.981-4.748,10.496-4.543,20.113c0.203,9.618-4.389,16.115-9.573,27.661s-2.028,13.216,2.802,13.565
				c4.83,0.349,6.252-1.18,5.874-11.123s4.412-17.672,8.373-17.193s1.929,5.051-1.703,16.232c-3.631,11.183,2.744,10.56,7.952,7.851
				s1.773-19.065,4.127-28.408C204.456,162.936,209.394,129.835,201.612,133.011z M196.435,157.913c-1.464,0,1.893,2.321-1.615,2.39
				c-3.508,0.067,0.6-2.755-1.271-2.8c-1.871-0.043-0.642-4.596,2.018-4.641C198.224,152.818,200.278,157.913,196.435,157.913z"/>
			<path display="none" fill="#FFFFFF" d="M154.092,197.975c-1.957-1.283,2.399-5.374,3.653-11.558
				c1.254-6.186-0.328-7.283-1.451-11.58c-1.131-4.295-0.598-6.256,4.893-10.426c5.486-4.168,7.051-4.526,8.794,0.457
				c1.742,4.983-1.575,4.598-3.021,4.557c-1.439-0.043-3.029,0.537-3.674,8.811c-0.646,8.27-1.074,14.781,4.263,8.625
				c5.333-6.16,6.028-8.824,4.985-10.33c-1.043-1.51,0.01-9.416,4.647-5.758c4.642,3.66,6.834,0.922,6.44,3.829
				c-0.391,2.907-4.312,4.771-6.186,6.968c-1.877,2.198-5.426,9.602-8.498,14.938s-5.479,5.646-8.712,4.388
				C156.989,199.63,156.05,199.257,154.092,197.975z"/>
			<path display="none" fill="#FFFFFF" d="M205.786,143.181c-0.972-18.62-21.847,1.611-29.318,12.516
				c-7.479,10.903,1.14,12.092,5.104,11.109c3.965-0.979,5.803,2.803,6.299,5.451c0.498,2.646-2.082,7.347-6.627,14.395
				c-4.529,7.045-6.722,7.471-10.086,11.189c-6.738,7.441,3.869,7.283,8.618,6.943c4.737-0.326,4.408-2.445,2.849-6.863
				c-1.563-4.42-0.398-4.768,3.539-11.223c3.938-6.472,10.504-18.777,3.742-0.132c-6.746,18.646,0.701,16.888,5.137,14.613
				c4.445-2.274,4.65-6.604,1.744-15.222C193.876,177.348,206.753,161.816,205.786,143.181z M196.376,154.79
				c-6.963,4.063-0.817,12.633-4.608,12.397c-3.793-0.231,3.915-11.438-3.116-9.622c-7.035,1.814-0.816-9.922,2.51-10.677
				S203.337,150.724,196.376,154.79z"/>
			<path fill="#FFFFFF" d="M96.618,163.384c6.432,3.863,9.314,4.83,12.313,5.537c2.579,0.605,9.505,0.883,9.546,4.158
				c0.041,3.27-2.927,9.744-5.939,6.127c-3.012-3.615-8.008-6.795-12.931-7.25c-4.921-0.453-7.771,5.084-5.155,6.74
				c2.615,1.653,10.102,3.145,16.108,3.274s4.771,3.512,5.267,6.688c0.496,3.184,1.01,3.258-3.756,5.896
				c-4.767,2.641-23.75,11.169-27.013,8.695c-3.263-2.478-4.929-20.623,2.424-16.229c7.353,4.396,13.81,4.819,18.116,4.269
				c4.307-0.558,0.6-5.461-2.211-6.151c-2.811-0.688-23.232-0.188-18.202-10.129C90.217,165.067,90.691,159.823,96.618,163.384z"/>
			<path fill="#FFFFFF" d="M205.456,187.206c0.377-9.111,4.629-34.229,4.021-43.215c-0.604-8.988,0.303-12.439,8.784-8.604
				c8.479,3.836-0.161,14.21-3.003,22.392c-2.842,8.183-3.289,22.025,2.338,16.8c5.627-5.225,2.744-8.088,1.311-10.406
				c-1.433-2.318,3.731-7.131,6.232-5.268c2.501,1.864,4.639,11.106-2.514,20.152C215.473,188.104,205.079,196.317,205.456,187.206z
				"/>
		</g>
		<g>
			<path fill="#FFFFFF" d="M74.543,132.269c-5.25-4.089-6.714-6.139,1.463-6.139c8.177,0,7.017,0,9.439,0
				c2.424,0,3.231,0.636,3.231,1.896c0,1.265,0.909,0.054,1.666-0.854c0.757-0.909,1.817-0.858,3.685-0.758
				c1.868,0.1,5.807,0.604,2.373,4.691c-3.434,4.09-5.352,7.438-6.814,9.057c0,0-1.161,2.978-4.443,0.199
				c-3.281-2.773-5.322-3.49-1.046-3.771s3.056-2.399,1.601-2.148c-1.453,0.253-3.264,0.102-2.81-1.16
				c0.455-1.262,0.386-2.539-2.138-2.234C78.227,131.349,79.794,136.357,74.543,132.269z"/>
			<path fill="#FFFFFF" d="M98.321,132.833c3.029-4.442,2.727-6.26,5.353-6.26s5.097-0.244,4.467,1.885
				c-0.63,2.127-4.737,5.789-7.228,8.68c-2.488,2.888-2.403,5.425-0.301,6.339c2.102,0.916,2.576,1.241,3.867,1.647
				c1.292,0.402,4.523,0.008,4.963-2.785c0.438-2.795,0.825-9.041,0.607-12.202c-0.219-3.16,0.04-3.577,2.357-3.394
				c2.319,0.182,5.752-1.535,3.684,4.066c-2.069,5.604-2.676,14.135-2.424,17.212c0.252,3.081,0.404,6.865-4.746,4.849
				c-5.149-2.021-13.831-4.691-16.709-7.018c-2.877-2.318-2.068-2.523,1.061-6.259C96.405,135.863,98.321,132.833,98.321,132.833z"
				/>
			<path fill="#FFFFFF" d="M130.934,126.876c6.61-0.103,7.267-0.104,7.217,3.281c-0.05,3.383-1.716,5.146-5.502,2.424
				c-3.785-2.729-7.644-2.896-9.17-1.484c-1.53,1.408-2.847,7.089,4.147,5.775s10.857,2.424,11.209,5.146
				c0.353,2.729,0.935,13.074-8.303,13.074c-9.24,0-4.795,0.199-8.026,0c-3.231-0.201-7.218-0.76-6.814-6.061
				s1.363-7.32,5.755-3.584c4.391,3.735,3.635,3.383,6.714,3.457s4.241-1.592,4.241-4.519s-2.827-3.073-5.957-3.073
				c-3.131,0-10.438,2.469-9.586-6.316c0.852-8.779,4.914-8.039,8.475-8.082C128.887,126.876,130.934,126.876,130.934,126.876z"/>
			<path fill="#FFFFFF" d="M154.411,141.109c2.746,1.885,10.242,3.461,8.424,5.633c-1.814,2.17-10.774,5.975-17.088,7.113
				c-6.311,1.139-5.881-0.591-4.565-3.215c1.313-2.624,2.828-10.487,0.149-16.141c-2.674-5.654-1.713-7.705,2.195-7.623
				c3.909,0.082,3.881,0.021,4.719-0.051c0.834-0.074,4.598-1.312,2.813,3.756C149.282,135.648,151.665,139.223,154.411,141.109z"/>
			<path fill="#FFFFFF" d="M178.85,134.587c0,1.438-8.972,7.875-10.526,9.123c-1.551,1.25-4.808,3.22-4.24-1.551
				c0.57-4.771-7.269-11.512-8.78-12.496c-1.517-0.983-2.611-3.322,1.815-3.14c4.432,0.188,15.826,0.534,17.414,0.323
				c1.59-0.212,2.235-0.021,2.235,1.072c0,1.099,0.38,3.258-1.629,2.842c-2.006-0.417-5.528-0.076-7.498-0.188
				s-5.231,0.252-3.343,2.106c1.894,1.854,3.721,6.521,7.166,3.305s2.5-2.192,3.445-3.255
				C175.856,131.671,178.85,133.149,178.85,134.587z"/>
		</g>
		<g>
			<path fill="#FFFFFF" d="M251.932,100.476c-0.39-4.79-1.25-9.59-2.71-14.26c-2.87-9.34-8.33-18.12-15.891-24.69
				c-3.739-3.29-7.949-6.08-12.369-8.34c-4.45-2.28-9.131-3.98-13.92-5.26c-9.603-2.55-19.57-3.27-29.432-2.51
				c-9.859,0.76-19.671,2.99-28.98,7c-4.659,1.99-9.17,4.49-13.432,7.55c-0.119,0.09-0.238,0.17-0.357,0.26
				c3.479-22.85,20.771-34.51,30.539-41.1c4.101-2.78,6.181-4.17,6.609-5.93c0.551-2.17-1.141-4.53-4.591-6.49
				c-4.01-2.26-9.569-3.43-12.34-0.66c-2.149,2.13-1.771,4.04-1.521,5.3c0.24,1.27,0.461,2.36-2.521,5.01
				c-8.729,7.77-22.84,23.37-25.42,44.87c-0.57-0.43-1.15-0.87-1.74-1.28c-4.279-3.05-8.82-5.54-13.51-7.51
				c-9.35-3.99-19.2-6.23-29.1-6.99c-9.9-0.78-19.911-0.09-29.55,2.41c-4.81,1.25-9.52,2.94-14.02,5.15
				c-4.47,2.24-8.71,4.99-12.51,8.25c-3.82,3.24-7.19,7.04-9.91,11.22c-2.74,4.16-4.86,8.69-6.37,13.37
				c-1.51,4.69-2.4,9.51-2.83,14.32c-0.41,4.83-0.4,9.65,0.02,14.411c0.45,4.76,1.16,9.471,2.17,14.102
				c1.05,4.619,2.24,9.199,3.74,13.68c1.4,4.49,3.1,8.891,4.85,13.25c0.74,1.83,2.9,6.648,2.96,6.891l4.06,8.521
				c-0.36-0.892-3.12-7.5-3.83-9.108c-0.77-1.722-1.61-4.399-2.35-6.609c-1.46-4.45-2.85-8.92-3.96-13.45
				c-1.18-4.521-2.08-9.09-2.79-13.67c-0.7-4.591-1.09-9.2-1.21-13.8c-0.12-4.602,0.18-9.182,0.85-13.671
				c0.69-4.49,1.81-8.87,3.45-13.03c1.65-4.14,3.8-8.04,6.45-11.56c2.63-3.51,5.76-6.6,9.26-9.22c3.49-2.61,7.32-4.76,11.36-6.45
				c4.05-1.69,8.3-2.91,12.62-3.74c8.65-1.65,17.63-1.69,26.36-0.43c8.729,1.23,17.271,3.81,24.94,7.69
				c3.84,1.93,7.42,4.23,10.609,6.84c0.221,0.18,0.44,0.35,0.65,0.54c7.46,9.53,9.33,27.4,6.6,37.71
				c-3.119,11.741-1.93,13.701,7.621,13.701c9.541,0,6.739-4.472,3.631-14.081c-2.5-7.7-0.539-25.45,7.221-36.01
				c0.689-0.65,1.41-1.28,2.16-1.89c3.158-2.6,6.709-4.9,10.51-6.83c7.609-3.89,16.09-6.46,24.77-7.69
				c8.67-1.25,17.602-1.17,26.19,0.53c4.29,0.85,8.5,2.07,12.5,3.8c3.989,1.72,7.78,3.9,11.22,6.55
				c6.91,5.25,12.2,12.57,15.381,20.86c1.6,4.15,2.689,8.53,3.34,13c0.649,4.47,0.92,9.04,0.812,13.621
				c-0.13,4.569-0.53,9.16-1.222,13.722c-0.721,4.567-1.59,9.108-2.75,13.608c-1.101,4.521-2.778,10.619-3.908,13.392
				c-1.07,2.6-6.393,14.647-7.04,16.118c0.739-1.461,6.79-13.448,7.897-15.811c1.182-2.52,3.4-8.72,4.791-13.189
				c1.471-4.461,2.67-9.021,3.699-13.618c1-4.603,1.721-9.29,2.17-14.03C252.282,110.086,252.312,105.286,251.932,100.476z
				 M140.241,68.066c-0.147,0.12-0.33,0.3-0.619,0.49c-0.561,0.42-1.42,0.92-2.51,1.35c-1.101,0.43-2.451,0.81-3.91,0.98
				c-1.479,0.2-3.08,0.22-4.681-0.01c-1.59-0.23-3.19-0.73-4.53-1.54c-0.689-0.38-1.289-0.89-1.789-1.41
				c-0.531-0.52-0.891-1.13-1.181-1.68c-0.271-0.57-0.42-1.14-0.5-1.63c-0.08-0.49-0.08-0.92-0.06-1.28
				c-0.01-0.35,0.09-0.59,0.109-0.77c0.041-0.19,0.061-0.28,0.061-0.28s0.029,0.09,0.08,0.26c0.06,0.17,0.119,0.45,0.24,0.74
				c0.09,0.32,0.25,0.66,0.449,1.04c0.221,0.39,0.48,0.78,0.801,1.18c0.35,0.36,0.729,0.74,1.209,1.07
				c0.461,0.32,0.99,0.61,1.57,0.87c0.08,0.03,0.141,0.06,0.211,0.08c0.52,0.23,1.079,0.39,1.659,0.55c0.649,0.17,1.33,0.3,2.04,0.4
				c0-1.47,0.061-2.92,0.17-4.34c1.721-21.48,15.75-37.39,24.37-45.06c4.19-3.74,4.13-6.12,3.67-8.44
				c-0.2-1.01-0.25-1.26,0.521-2.02c0.789-0.79,2.961-0.75,5.41,0.1c3.149,1.08,5.25,2.94,5.42,3.57
				c-0.49,0.72-2.938,2.36-5.108,3.82c-10.021,6.77-30.24,20.4-32.54,47.39c-0.148,1.66-0.221,3.38-0.221,5.16
				c0.129,0.01,0.271,0.02,0.398,0.03c0.7,0.03,1.391,0.1,2.07,0.08c0.398,0,0.79-0.01,1.16-0.03c0.93-0.03,1.77-0.11,2.55-0.18
				c2.06-0.23,3.489-0.63,3.67-0.68C140.392,67.906,140.331,67.976,140.241,68.066z"/>
			<path fill="#FFFFFF" d="M251.932,100.476c-0.39-4.79-1.25-9.59-2.71-14.26c-2.87-9.34-8.33-18.12-15.891-24.69
				c-3.739-3.29-7.949-6.08-12.369-8.34c-4.45-2.28-9.131-3.98-13.92-5.26c-9.603-2.55-19.57-3.27-29.432-2.51
				c-9.859,0.76-19.671,2.99-28.98,7c-4.659,1.99-9.17,4.49-13.432,7.55c-0.119,0.09-0.238,0.17-0.357,0.26
				c3.479-22.85,20.771-34.51,30.539-41.1c4.101-2.78,6.181-4.17,6.609-5.93c0.551-2.17-1.141-4.53-4.591-6.49
				c-4.01-2.26-9.569-3.43-12.34-0.66c-2.149,2.13-1.771,4.04-1.521,5.3c0.24,1.27,0.461,2.36-2.521,5.01
				c-8.729,7.77-22.84,23.37-25.42,44.87c-0.57-0.43-1.15-0.87-1.74-1.28c-4.279-3.05-8.82-5.54-13.51-7.51
				c-9.35-3.99-19.2-6.23-29.1-6.99c-9.9-0.78-19.911-0.09-29.55,2.41c-4.81,1.25-9.52,2.94-14.02,5.15
				c-4.47,2.24-8.71,4.99-12.51,8.25c-3.82,3.24-7.19,7.04-9.91,11.22c-2.74,4.16-4.86,8.69-6.37,13.37
				c-1.51,4.69-2.4,9.51-2.83,14.32c-0.41,4.83-0.4,9.65,0.02,14.411c0.45,4.76,1.16,9.471,2.17,14.102
				c1.05,4.619,2.24,9.199,3.74,13.68c1.4,4.49,3.1,8.891,4.85,13.25c0.74,1.83,2.9,6.648,2.96,6.891l4.06,8.521
				c-0.36-0.892-3.12-7.5-3.83-9.108c-0.77-1.722-1.61-4.399-2.35-6.609c-1.46-4.45-2.85-8.92-3.96-13.45
				c-1.18-4.521-2.08-9.09-2.79-13.67c-0.7-4.591-1.09-9.2-1.21-13.8c-0.12-4.602,0.18-9.182,0.85-13.671
				c0.69-4.49,1.81-8.87,3.45-13.03c1.65-4.14,3.8-8.04,6.45-11.56c2.63-3.51,5.76-6.6,9.26-9.22c3.49-2.61,7.32-4.76,11.36-6.45
				c4.05-1.69,8.3-2.91,12.62-3.74c8.65-1.65,17.63-1.69,26.36-0.43c8.729,1.23,17.271,3.81,24.94,7.69
				c3.84,1.93,7.42,4.23,10.609,6.84c0.221,0.18,0.44,0.35,0.65,0.54c7.46,9.53,9.33,27.4,6.6,37.71
				c-3.119,11.741-1.93,13.701,7.621,13.701c9.541,0,6.739-4.472,3.631-14.081c-2.5-7.7-0.539-25.45,7.221-36.01
				c0.689-0.65,1.41-1.28,2.16-1.89c3.158-2.6,6.709-4.9,10.51-6.83c7.609-3.89,16.09-6.46,24.77-7.69
				c8.67-1.25,17.602-1.17,26.19,0.53c4.29,0.85,8.5,2.07,12.5,3.8c3.989,1.72,7.78,3.9,11.22,6.55
				c6.91,5.25,12.2,12.57,15.381,20.86c1.6,4.15,2.689,8.53,3.34,13c0.649,4.47,0.92,9.04,0.812,13.621
				c-0.13,4.569-0.53,9.16-1.222,13.722c-0.721,4.567-1.59,9.108-2.75,13.608c-1.101,4.521-2.778,10.619-3.908,13.392
				c-1.07,2.6-6.393,14.647-7.04,16.118c0.739-1.461,6.79-13.448,7.897-15.811c1.182-2.52,3.4-8.72,4.791-13.189
				c1.471-4.461,2.67-9.021,3.699-13.618c1-4.603,1.721-9.29,2.17-14.03C252.282,110.086,252.312,105.286,251.932,100.476z
				 M140.241,68.066c-0.147,0.12-0.33,0.3-0.619,0.49c-0.561,0.42-1.42,0.92-2.51,1.35c-1.101,0.43-2.451,0.81-3.91,0.98
				c-1.479,0.2-3.08,0.22-4.681-0.01c-1.59-0.23-3.19-0.73-4.53-1.54c-0.689-0.38-1.289-0.89-1.789-1.41
				c-0.531-0.52-0.891-1.13-1.181-1.68c-0.271-0.57-0.42-1.14-0.5-1.63c-0.08-0.49-0.08-0.92-0.06-1.28
				c-0.01-0.35,0.09-0.59,0.109-0.77c0.041-0.19,0.061-0.28,0.061-0.28s0.029,0.09,0.08,0.26c0.06,0.17,0.119,0.45,0.24,0.74
				c0.09,0.32,0.25,0.66,0.449,1.04c0.221,0.39,0.48,0.78,0.801,1.18c0.35,0.36,0.729,0.74,1.209,1.07
				c0.461,0.32,0.99,0.61,1.57,0.87c0.08,0.03,0.141,0.06,0.211,0.08c0.52,0.23,1.079,0.39,1.659,0.55c0.649,0.17,1.33,0.3,2.04,0.4
				c0-1.47,0.061-2.92,0.17-4.34c1.721-21.48,15.75-37.39,24.37-45.06c4.19-3.74,4.13-6.12,3.67-8.44
				c-0.2-1.01-0.25-1.26,0.521-2.02c0.789-0.79,2.961-0.75,5.41,0.1c3.149,1.08,5.25,2.94,5.42,3.57
				c-0.49,0.72-2.938,2.36-5.108,3.82c-10.021,6.77-30.24,20.4-32.54,47.39c-0.148,1.66-0.221,3.38-0.221,5.16
				c0.129,0.01,0.271,0.02,0.398,0.03c0.7,0.03,1.391,0.1,2.07,0.08c0.398,0,0.79-0.01,1.16-0.03c0.93-0.03,1.77-0.11,2.55-0.18
				c2.06-0.23,3.489-0.63,3.67-0.68C140.392,67.906,140.331,67.976,140.241,68.066z"/>
			<path fill="#FFFFFF" d="M58.242,61.201c-21.808-0.225-43.819,17.416-45.231,51.97c-1.412,34.553,8.277,34.688,12.015,27.058
				c3.736-7.633-15.743-28.653-1.407-49.982s14.634-2.104,12.009,3.283c-2.625,5.389-18.678,42.539-5.401,35.595
				c13.277-6.942,12.469-8.652,10.45-15.392c-2.02-6.736,2.221-13.92,5.452-4.939c3.231,8.981-2.827,13.196,1.009,14.126
				c3.835,0.931,18.981,2.492,11.913-10.754c-7.068-13.249-14.133-19.901-5.603-18.774c8.531,1.127,3.634-9.908,8.7-12.479
				C67.213,78.341,80.049,61.427,58.242,61.201z M51.604,80.997c-3.329-2.33-6.662-0.336-6.763-3.757
				c-0.101-3.419,12.13-8.564,13.205-6.055C59.121,73.693,54.934,83.327,51.604,80.997z"/>
			<path fill="#FFFFFF" d="M101.755,122.841c-11.409,0.638-16.861-3.609-14.033-14.34c2.828-10.73-1.008-25.508-5.917-32.984
				c-4.909-7.477-12.621-15.987,1.948-11.739c14.568,4.249,14.873,5.884,12.854,12.185c-2.02,6.3-0.604,19.048-0.101,26.165
				c0.504,7.116,0.604,10.727,7.37,10.623c6.765-0.104,5.119-5.319,4.225-19.125c-0.895-13.805-14.109-25.808-2.958-21.347
				c11.151,4.461,9.33,5.073,11.56,12.981c2.229,7.908,2.42,25.434-0.055,32.676C114.174,125.178,108.508,122.464,101.755,122.841z"
				/>
			<path fill="#FFFFFF" d="M64.476,105.775c-0.379-3.862-1.296-10.278-2.352-14.377c-1.055-4.098,0.419-9.078,6.939-8.094
				c6.52,0.984,10.101-2.341,12.954,0.638c2.854,2.979,3.075,9.541-1.402,7.926c-4.479-1.616-6.875-0.816-8.416,0.779
				c-1.54,1.595-3.041,9.291,3.408,6.768c6.449-2.524,5.801,8.884,0.464,6.853c-5.336-2.032-4.544,8.401-0.012,6.725
				c5.378-1.992,6.403-0.541,8.162,4.084s-1.019,6.188-7.05,5.31c-6.032-0.886-14.49,3.854-13.77-1.163
				C64.121,116.202,64.854,109.639,64.476,105.775z"/>
			<path fill="#FFFFFF" d="M142.569,84.145c9.188-25.113,52.946-26.237,68.813-20.753c15.866,5.483-6.953,20.794-7.621,13.026
				c-0.667-7.769-13.644-7.554-27.638-6.639c-13.994,0.915-20.223,8.296-21.272,11.799c-1.054,3.502,3.644,5.572,9.319,2.216
				c5.675-3.356,5.664,8.908,2.164,11.433c-3.506,2.525-7.193-0.454-12.969-2.081c-5.779-1.627-5.787,17.042,1.978,17.665
				c7.767,0.623,10.396-9.021,13.592-0.642c3.188,8.381-3.071,12.064-13.044,11.511C145.919,121.124,133.38,109.257,142.569,84.145z
				"/>
			<path fill="#FFFFFF" d="M200.596,87.147c5.048-8.884-8.253-14.411-19.39-14.341c-11.135,0.07-11.732,3.261-9.108,10.052
				s3.735,22.363,0.328,32.965c-3.409,10.6,3.54,5.156,10.399,6.359c5.754,1.009,2.301-9.637-1.138-16.863
				c-3.438-7.225,7.095,1.211,8.003,7.775c0.907,6.563,2.119,8.559,6.893,8.708c4.771,0.149,3.102-3.356,3.138-10.828
				c0.037-7.473-7.707-8.582-10.535-12.907C186.36,93.742,195.546,96.031,200.596,87.147z M183.431,90.735
				c-3.354,0.732-6.766-13.815,2.665-11.842c9.427,1.972,5.71,6.701,3.731,8.578C187.85,89.347,186.784,90.004,183.431,90.735z"/>
			<path display="none" fill="#FFFFFF" d="M214.542,121.734c-6.188-0.223-11.045,1.84-10.539-9.773
				c0.506-11.61-0.496-26.126,3.433-28.065c3.929-1.94,8.539-7.125,12.206-3.333s5.325,18.009,7.579,28.233
				c2.254,10.225,7.229,13.306,9.296,12.893c4.375-0.875-1.109-19.809-2.909-27.987c-1.799-8.179-14.091-14.013-13.216-19.263
				s5.963-5.756,10.09-0.327c4.127,5.429,7.965,10.115,11.463,21.7c4.661,15.445,0.779,54.001-7.826,39.244
				c-8.609-14.762-13.201-6.979-13.227-17.241c-0.025-10.264,0.313-28.067-5.219-26.764c-5.532,1.304-5.229,3.648-4.715,9.06
				C211.474,105.521,217.987,121.859,214.542,121.734z"/>
			<path fill="#FFFFFF" d="M205.603,122.573c-4.732-0.755-3.324-3.85-3.393-11.451c-0.068-7.602,0.045-14.889,1.404-21.079
				s10.233-12.607,15.957-5.481c5.723,7.126,7.391,11.374,7.934,22.542c0.541,11.168,10.289,4.172,6.38-8.247
				c-3.909-12.419-18.628-18.345-13.353-26.41c4.422-6.76,11.672,1.928,15.559,8.423c5.73,9.579,12.046,27.743,6.088,43.447
				c-4.633,12.21-1.475,15.995-1.697,21.854c-0.219,5.877-5.586,3.345-4.347-1.502c1.132-4.92,0.507-12.2-8.868-17.403
				s-10.227-18.086-9.875-26.579s-6.779-8.224-6.248-4.398c0.532,3.826,5.665,22.23,3.498,24.564S209.276,123.157,205.603,122.573z"
				/>
		</g>
	</g>
</g>
</svg>
